<?xml version="1.0" encoding="UTF-8"?>
<svg xmlns="http://www.w3.org/2000/svg" version="1.1" width="576" height="660" style="background-color:transparent;">
  <path d="M0 0 C190.08 0 380.16 0 576 0 C576 217.8 576 435.6 576 660 C385.92 660 195.84 660 0 660 C0 442.2 0 224.4 0 0 Z " fill="#E1E0EA" transform="translate(0,0)"/>
  <path d="M0 0 C190.08 0 380.16 0 576 0 C576 216.81 576 433.62 576 657 C544.65 657 513.3 657 481 657 C477.1977402 629.13777737 477.1977402 629.13777737 475.72265625 618.21826172 C475.57207103 617.1035448 475.57207103 617.1035448 475.41844368 615.96630836 C470.5483472 579.8955231 465.77290197 543.81194931 461.00030518 507.72815895 C459.15213734 493.75589512 457.29873614 479.78434564 455.43882751 465.8136397 C454.11265764 455.84872929 452.79243496 445.88304167 451.47659302 435.91676229 C450.69701862 430.01348518 449.91486824 424.11057754 449.12615967 418.20851326 C448.39041554 412.70199086 447.66205599 407.19454132 446.93929482 401.68630028 C446.67433286 399.6768449 446.40673458 397.667735 446.13622093 395.65901947 C444.80167493 385.73817896 443.5365948 376.03631725 444 366 C444.04567108 364.77528992 444.09134216 363.55057983 444.13839722 362.28875732 C444.20342438 361.25084045 444.26845154 360.21292358 444.33544922 359.14355469 C444.40907684 357.94059753 444.48270447 356.73764038 444.55856323 355.49822998 C444.63978424 354.23553284 444.72100525 352.97283569 444.8046875 351.671875 C444.88983245 350.31164111 444.97471605 348.95139085 445.05935669 347.59112549 C445.23692588 344.75037475 445.4170323 341.90980048 445.59912109 339.06933594 C445.82734 335.50751247 446.05018634 331.94537984 446.27113152 328.3830986 C446.44598548 325.57175552 446.62339914 322.76057799 446.80151749 319.94944 C446.92331145 318.02273986 447.04347269 316.0959367 447.1635437 314.16912842 C447.52620713 308.53950634 447.91157386 302.91561253 448.40789795 297.29600525 C450.24023189 276.52852488 451.46691053 255.72193483 452.76200294 234.91548848 C453.0416923 230.4270939 453.32298432 225.93880031 453.60426474 221.4505052 C454.27013192 210.82529552 454.93351608 200.19993292 455.59521484 189.57446289 C456.27025727 178.73528975 456.94909846 167.89635951 457.62993002 157.05754858 C458.22061657 147.65196056 458.80904261 138.2462329 459.39573526 128.84039491 C459.74335157 123.26756113 460.09167621 117.69477454 460.44212341 112.122118 C461.88162436 89.21666208 463.27405404 66.3146052 464.26441193 43.3845911 C464.87430637 29.87775474 465.96093437 16.50785323 467 3 C365.69 3 264.38 3 160 3 C159.34 7.29 158.68 11.58 158 16 C157.39447794 18.99230519 156.7703157 21.95804772 156.08203125 24.9296875 C155.81520287 26.10732918 155.81520287 26.10732918 155.54298401 27.3087616 C154.97033292 29.83181293 154.39146716 32.35339135 153.8125 34.875 C153.40727026 36.65541645 153.00249145 38.43593558 152.59814453 40.21655273 C151.78488417 43.79542043 150.9693843 47.37376515 150.15185547 50.95166016 C148.54546959 57.98543396 146.9609462 65.02409359 145.375 72.0625 C144.810081 74.56384391 144.24497813 77.0651463 143.6796875 79.56640625 C141.95227827 87.21074637 140.22607048 94.85535749 138.5 102.5 C137.91667166 105.08333446 137.33333833 107.6666678 136.75 110.25 C136.46125 111.52875 136.1725 112.8075 135.875 114.125 C105.25 249.75 105.25 249.75 104.3737793 253.63037109 C103.79449496 256.19579626 103.21523042 258.7612259 102.63598633 261.32666016 C101.27749865 267.34320265 99.91881985 273.35970167 98.55941772 279.3760376 C97.92201921 282.1970442 97.28473585 285.0180768 96.64746094 287.83911133 C96.20128374 289.81399012 95.75494138 291.7888316 95.30859375 293.76367188 C94.77140369 296.14175147 94.23904488 298.52092955 93.71240234 300.90136719 C93.28743793 302.74977306 92.83410064 304.59254899 92.32275391 306.41894531 C88.79132782 319.41766154 93.17148061 334.39798988 95.25 347.4375 C95.56851782 349.4607242 95.8867111 351.48399951 96.20458984 353.50732422 C98.13308429 365.74184308 100.15111092 377.95896202 102.2277832 390.16918945 C103.91395008 400.20405653 105.34278752 410.26708012 106.74667358 420.3442688 C108.29802264 431.45056276 110.04892193 442.50885746 111.9375 453.5625 C114.12273747 466.3700754 116.07560472 479.19517476 117.875 492.0625 C120.12735208 508.14832791 122.53826151 524.20453862 125.0625 540.25 C125.32080093 541.89248215 125.32080093 541.89248215 125.58432007 543.56814575 C127.73377201 557.21063731 129.95700143 570.83763278 132.27539062 584.45239258 C133.99364114 594.67088662 135.44489424 604.92182066 136.87567139 615.18362427 C138.32635087 625.57892044 139.92552799 635.92804654 141.83227539 646.25170898 C141.98688232 647.09548096 142.14148926 647.93925293 142.30078125 648.80859375 C142.43653564 649.52845459 142.57229004 650.24831543 142.7121582 650.98999023 C143 653 143 653 143 657 C95.81 657 48.62 657 0 657 C0 440.19 0 223.38 0 0 Z " fill="#FEFEFE" transform="translate(0,0)"/>
  <path d="M0 0 C1.258125 0.04125 2.51625 0.0825 3.8125 0.125 C3.4825 1.115 3.1525 2.105 2.8125 3.125 C4.56282844 2.98316304 6.31275534 2.83636571 8.0625 2.6875 C9.52429688 2.56568359 9.52429688 2.56568359 11.015625 2.44140625 C13.7484548 2.21427267 13.7484548 2.21427267 16.046875 1.46484375 C16.62953125 1.35269531 17.2121875 1.24054687 17.8125 1.125 C18.8025 2.115 18.8025 2.115 19.8125 3.125 C19.4375 6.0625 19.4375 6.0625 18.8125 9.125 C18.8125 10.115 18.8125 11.105 18.8125 12.125 C18.50161632 13.79599977 18.17169668 15.46371537 17.8125 17.125 C17.1525 17.125 16.4925 17.125 15.8125 17.125 C15.93625 18.0325 16.06 18.94 16.1875 19.875 C15.8125 23.125 15.8125 23.125 13 25.375 C11.948125 25.9525 10.89625 26.53 9.8125 27.125 C8.8225 27.785 7.8325 28.445 6.8125 29.125 C4.42950383 29.57441255 2.03024516 29.94106943 -0.375 30.25 C-2.28345703 30.50136719 -2.28345703 30.50136719 -4.23046875 30.7578125 C-5.20628906 30.87898438 -6.18210937 31.00015625 -7.1875 31.125 C-7.55101562 32.81302734 -7.55101562 32.81302734 -7.921875 34.53515625 C-12.53159623 55.75243952 -18.28338044 76.0806936 -27.41748047 95.82617188 C-31.75031544 105.22215613 -35.69685717 114.77563331 -39.67041016 124.32739258 C-39.93748779 124.9687767 -40.20456543 125.61016083 -40.47973633 126.27098083 C-41.24834447 128.11708078 -42.01603104 129.96356433 -42.78369141 131.81005859 C-44.29168195 135.37101434 -45.87661976 138.88843403 -47.5300293 142.3840332 C-48.9235296 146.07398889 -47.74311584 148.87319082 -46.21484375 152.31640625 C-45.49561231 153.88118576 -44.77430049 155.44501094 -44.05078125 157.0078125 C-43.02062266 159.53426479 -42.69737978 161.42933879 -43.1875 164.125 C-43.8475 164.785 -44.5075 165.445 -45.1875 166.125 C-45.04599208 173.12964195 -42.46135027 178.28514752 -39.3125 184.4375 C-34.87830433 193.38319344 -30.86647303 202.43052553 -27.125 211.6875 C-26.6604541 212.83452393 -26.1959082 213.98154785 -25.71728516 215.16333008 C-22.77478057 222.4988312 -20.2665383 229.26343526 -19.1875 237.125 C-18.8575 237.455 -18.5275 237.785 -18.1875 238.125 C-17.6275109 241.40493617 -17.76869863 243.44490565 -19.52734375 246.30078125 C-21.0301245 248.29152375 -22.56917565 250.22732204 -24.1875 252.125 C-23.15689453 252.27195312 -23.15689453 252.27195312 -22.10546875 252.421875 C-21.20441406 252.57140625 -20.30335938 252.7209375 -19.375 252.875 C-18.48167969 253.01421875 -17.58835937 253.1534375 -16.66796875 253.296875 C-13.57158223 254.33062924 -12.70614093 255.25590638 -11.1875 258.125 C-10.8515625 260.78125 -10.8515625 260.78125 -10.8125 263.625 C-10.64576769 267.9518726 -10.64576769 267.9518726 -8.0625 271.25 C-7.11375 271.86875 -6.165 272.4875 -5.1875 273.125 C-3.38256527 275.36262457 -1.70313874 277.66562789 -0.03125 280.00390625 C2.01790184 282.36129915 4.07365261 283.65709035 6.8125 285.125 C7.70001953 284.12919922 7.70001953 284.12919922 8.60546875 283.11328125 C9.39566406 282.23027344 10.18585938 281.34726562 11 280.4375 C11.77730469 279.56738281 12.55460938 278.69726562 13.35546875 277.80078125 C14.16628906 276.91777344 14.97710937 276.03476562 15.8125 275.125 C16.5130249 274.25633301 17.2135498 273.38766602 17.93530273 272.49267578 C21.67730598 269.4133421 24.67062387 269.45039465 29.3046875 269.56640625 C30.12768341 269.56873764 30.95067932 269.57106903 31.7986145 269.57347107 C33.54195508 269.58319873 35.28526449 269.60496359 37.02832031 269.63793945 C39.64437867 269.68669632 42.25853137 269.699388 44.875 269.70507812 C72.43418877 269.88679786 72.43418877 269.88679786 79.8125 275.125 C85.13628947 280.69640758 86.87443557 285.15964527 87.25 292.75 C86.77161833 310.42837726 72.82709539 322.35405436 61.0078125 333.9453125 C55.72429317 339.19122671 51.11669794 344.93603584 46.5625 350.8125 C46.13775391 351.35946533 45.71300781 351.90643066 45.27539062 352.4699707 C42.89570112 355.57747066 40.75433492 358.72678889 38.8125 362.125 C33.9890623 361.82353514 31.26111828 359.36364352 27.6796875 356.40234375 C25.77687501 354.84268899 25.77687501 354.84268899 22.8125 355.125 C21.13532719 357.49266513 21.13532719 357.49266513 19.5625 360.4375 C15.71157743 366.75821258 15.71157743 366.75821258 12.1875 368.3125 C11.07375 368.580625 9.96 368.84875 8.8125 369.125 C7.5440625 369.434375 7.5440625 369.434375 6.25 369.75 C2.71839795 368.84446101 1.31213982 366.58495175 -0.85546875 363.75390625 C-2.10974334 361.99333905 -2.10974334 361.99333905 -4.1875 361.125 C-2.19665437 356.44133428 1.23300258 352.70250364 4.44335938 348.81445312 C5.64298893 347.30927393 6.73668939 345.72102851 7.8125 344.125 C7.06099977 340.84726496 7.06099977 340.84726496 3.8125 339.125 C0.32538927 338.21985978 -3.02926132 337.93620406 -6.625 337.875 C-7.53121094 337.84921875 -8.43742188 337.8234375 -9.37109375 337.796875 C-15.20508011 338.47656273 -19.12107962 341.66671272 -23.3125 345.5625 C-24.55386719 346.70525391 -24.55386719 346.70525391 -25.8203125 347.87109375 C-30.11066823 351.79048063 -30.11066823 351.79048063 -33.5 356.4375 C-35.02462881 358.86561255 -36.26665085 360.17208976 -38.3515625 362.05859375 C-43.04664553 366.70175738 -46.04737785 372.14545964 -49.25 377.875 C-50.20531616 379.56919067 -50.20531616 379.56919067 -51.17993164 381.29760742 C-52.85943251 384.28801419 -54.51781182 387.28971288 -56.17297363 390.29364014 C-57.18647588 392.12315132 -58.21197393 393.94541416 -59.24121094 395.76611328 C-61.23859885 399.30410811 -63.18420146 402.86813468 -65.125 406.4375 C-65.7341626 407.51418945 -66.3433252 408.59087891 -66.97094727 409.70019531 C-74.3716618 423.62260819 -70.62782624 438.17483238 -68.5 453.125 C-68.22810084 455.08215901 -67.95645589 457.03935336 -67.68505859 458.99658203 C-65.92635583 471.54955686 -63.96735635 484.05496473 -61.66137695 496.51953125 C-61.46632568 497.58300781 -61.27127441 498.64648438 -61.0703125 499.7421875 C-60.89902832 500.64565918 -60.72774414 501.54913086 -60.55126953 502.47998047 C-60.1875 505.125 -60.1875 505.125 -60.1875 511.125 C-64.4775 511.455 -68.7675 511.785 -73.1875 512.125 C-73.1875 517.075 -73.1875 522.025 -73.1875 527.125 C-82.16576087 531.99456522 -82.16576087 531.99456522 -86.1875 531.125 C-89.5292035 528.89719766 -92.06489022 526.53090681 -94.1875 523.125 C-94.48046875 520.546875 -94.48046875 520.546875 -94.375 517.875 C-94.34792969 516.98296875 -94.32085937 516.0909375 -94.29296875 515.171875 C-94.25816406 514.49640625 -94.22335938 513.8209375 -94.1875 513.125 C-97.1575 513.125 -100.1275 513.125 -103.1875 513.125 C-105.13017434 502.26368439 -106.70987767 491.3800963 -108.125 480.4375 C-110.02185563 465.84982049 -112.25402981 451.33817053 -115.2734375 436.9375 C-121.69687521 404.80147441 -101.0262285 367.09495216 -88.94775391 338.04394531 C-88.40399805 336.67145943 -87.9001295 335.28290344 -87.42333984 333.88574219 C-86.75607832 331.93701072 -85.97943553 330.0264811 -85.1875 328.125 C-81.64224543 326.94324848 -79.82917209 327.46890079 -76.1875 328.125 C-71.95987346 328.33725532 -67.73248146 328.31010742 -63.5 328.3125 C-62.37916016 328.32474609 -61.25832031 328.33699219 -60.10351562 328.34960938 C-52.91286887 328.36212936 -46.20808544 327.6858179 -39.1875 326.125 C-37.49870766 318.3620458 -36.99457192 310.99496115 -37 303.0625 C-36.9990332 301.66994995 -36.9990332 301.66994995 -36.99804688 300.24926758 C-36.78047501 293.72387211 -36.78047501 293.72387211 -40 288.3359375 C-40.721875 287.73007812 -41.44375 287.12421875 -42.1875 286.5 C-42.909375 285.88898438 -43.63125 285.27796875 -44.375 284.6484375 C-44.973125 284.14570313 -45.57125 283.64296875 -46.1875 283.125 C-47.77022601 281.54227399 -47.53485747 279.74465997 -47.75 277.5625 C-47.83378906 276.73621094 -47.91757812 275.90992188 -48.00390625 275.05859375 C-48.06449219 274.42050781 -48.12507812 273.78242188 -48.1875 273.125 C-49.00371826 273.69214722 -49.00371826 273.69214722 -49.83642578 274.27075195 C-52.32568114 275.9970344 -54.81903622 277.71730248 -57.3125 279.4375 C-58.1684375 280.03240234 -59.024375 280.62730469 -59.90625 281.24023438 C-71.29348004 289.07990429 -71.29348004 289.07990429 -75.8125 289.1875 C-79.25130317 287.64908805 -80.40352722 285.36258023 -82.1875 282.125 C-82.1875 281.465 -82.1875 280.805 -82.1875 280.125 C-83.8375 279.465 -85.4875 278.805 -87.1875 278.125 C-87.1875 277.135 -87.1875 276.145 -87.1875 275.125 C-88.858125 275.186875 -88.858125 275.186875 -90.5625 275.25 C-94.1875 275.125 -94.1875 275.125 -96.1875 273.125 C-96.3125 269.5 -96.3125 269.5 -96.1875 266.125 C-97.46625 266.228125 -98.745 266.33125 -100.0625 266.4375 C-108.54065886 266.3843454 -114.43490528 262.15524176 -120.25 256.3125 C-121.35021484 255.12720703 -121.35021484 255.12720703 -122.47265625 253.91796875 C-123.03855469 253.32628906 -123.60445313 252.73460937 -124.1875 252.125 C-124.5175 252.125 -124.8475 252.125 -125.1875 252.125 C-125.36756592 253.27162109 -125.36756592 253.27162109 -125.55126953 254.44140625 C-131.24038132 290.02110065 -131.24038132 290.02110065 -140.1875 302.125 C-143.84007292 304.56004862 -145.43647778 304.56780167 -149.6640625 303.97265625 C-154.91992947 302.20714056 -158.42284328 298.03580023 -162.1875 294.125 C-162.95578125 293.37605469 -163.7240625 292.62710937 -164.515625 291.85546875 C-171.30232214 284.9002278 -176.56079945 276.99160848 -181.92260742 268.91723633 C-186.24788235 262.40559639 -190.42324641 256.39706935 -196.4375 251.3125 C-197.12328125 250.72855469 -197.8090625 250.14460937 -198.515625 249.54296875 C-199.34320313 248.84107422 -199.34320313 248.84107422 -200.1875 248.125 C-200.5175 247.795 -200.8475 247.465 -201.1875 247.125 C-201.13439346 240.81859872 -199.85797595 235.46896842 -195.85546875 230.45703125 C-194.1875 229.125 -194.1875 229.125 -192.13671875 228.91015625 C-186.88881321 229.5536818 -183.00935221 230.21426751 -179.1875 234.125 C-178.51121619 236.12285508 -177.91665945 238.14902269 -177.375 240.1875 C-174.43692343 251.04984946 -166.71404114 258.20806102 -158.1875 265.125 C-157.8575 265.455 -157.5275 265.785 -157.1875 266.125 C-156.5275 261.175 -155.8675 256.225 -155.1875 251.125 C-156.1775 251.125 -157.1675 251.125 -158.1875 251.125 C-162.12044371 232.97025089 -158.8524581 218.65178697 -149.33007812 202.83935547 C-146.9556954 199.27676668 -144.02371497 196.25646232 -140.97265625 193.2734375 C-138.90311343 190.78274045 -138.34881625 189.34628382 -138.1875 186.125 C-138.90202137 183.85719359 -138.90202137 183.85719359 -140.125 181.8125 C-140.50527344 181.11511719 -140.88554687 180.41773438 -141.27734375 179.69921875 C-141.57769531 179.17972656 -141.87804687 178.66023437 -142.1875 178.125 C-143.22648437 178.29257813 -144.26546875 178.46015625 -145.3359375 178.6328125 C-163.05830727 181.30286941 -163.05830727 181.30286941 -169.984375 177.01171875 C-171.5625 175.75 -171.5625 175.75 -174.1875 173.125 C-174.8371875 172.53332031 -175.486875 171.94164062 -176.15625 171.33203125 C-178.49809186 168.78753 -179.81362338 166.2990423 -181.3125 163.1875 C-181.81007812 162.16785156 -182.30765625 161.14820313 -182.8203125 160.09765625 C-187.00254813 151.00428106 -187.36880013 142.71784348 -184.1875 133.125 C-179.58700009 122.26586947 -173.27187658 115.40514419 -163.1875 109.3125 C-154.2937729 105.79206635 -145.00259947 104.46751919 -135.875 107.8125 C-131.77866941 109.64019196 -129.09654851 111.65030316 -126.1875 115.125 C-125.69636719 115.6509375 -125.20523438 116.176875 -124.69921875 116.71875 C-120.21253816 121.61735908 -116.51179819 126.68743916 -115.875 133.4375 C-116.1875 136.125 -116.1875 136.125 -117.1875 139.125 C-116.08054196 142.3595685 -116.08054196 142.3595685 -114.4375 145.875 C-113.64085937 147.66164062 -113.64085937 147.66164062 -112.828125 149.484375 C-112.28671875 150.68578125 -111.7453125 151.8871875 -111.1875 153.125 C-110.17762962 155.4542536 -109.18178609 157.78902665 -108.1875 160.125 C-107.506875 159.3 -106.82625 158.475 -106.125 157.625 C-100.41536106 150.79387853 -94.49959428 144.34265553 -88.125 138.125 C-82.04854949 132.18005261 -76.6906191 126.00616881 -71.5703125 119.23046875 C-69.49860202 116.53045263 -67.35879724 114.00791679 -65.0625 111.5 C-63.7692283 110.04308984 -62.47760234 108.58471739 -61.1875 107.125 C-60.09308594 105.93390625 -60.09308594 105.93390625 -58.9765625 104.71875 C-52.86658463 97.46184796 -50.1607599 90.15386784 -47.26855469 81.2175293 C-45.0772139 74.49409733 -42.50076945 68.18168606 -39.4375 61.8125 C-34.17237656 50.80257618 -30.27750394 39.37793434 -26.47363281 27.79956055 C-23.37035156 18.50558461 -20.2808183 10.05220442 -11.5 4.75 C-10.75363281 4.28851563 -10.00726563 3.82703125 -9.23828125 3.3515625 C-8.56152344 2.94679688 -7.88476562 2.54203125 -7.1875 2.125 C-4.09861478 0.06574319 -3.47814073 -0.1140374 0 0 Z " fill="#A7D5E6" transform="translate(338.1875,27.875)"/>
  <path d="M0 0 C3.16876893 2.91432023 5.19702835 5.78370459 7.25 9.55859375 C7.85191162 10.65550537 8.45382324 11.75241699 9.07397461 12.88256836 C9.38769012 13.46166962 9.70140564 14.04077087 10.02462769 14.63742065 C11.35429581 17.09136371 12.6993539 19.53674971 14.04368591 21.98268127 C14.72619429 23.22465815 15.4079659 24.46704018 16.08900452 25.70982361 C18.98193515 30.98537435 21.94120561 36.22013637 24.9375 41.4375 C25.4113916 42.26403076 25.8852832 43.09056152 26.37353516 43.94213867 C27.37106545 45.68096052 28.36912749 47.4194774 29.36767578 49.15771484 C32.54220846 54.68537106 35.70968568 60.21706174 38.875 65.75 C39.21455719 66.34332123 39.55411438 66.93664246 39.90396118 67.54794312 C44.69420874 75.92117935 49.42927739 84.323275 54.125 92.75 C58.63770352 100.84723974 63.24138757 108.88279297 67.9375 116.875 C73.57496445 126.46927264 79.00494182 136.16625602 84.38110352 145.90893555 C89.17207318 154.56783259 94.1138595 163.12933868 99.12158203 171.66430664 C102.58277618 177.56472814 106.01410305 183.47929862 109.375 189.4375 C109.75060059 190.10031982 110.12620117 190.76313965 110.51318359 191.44604492 C113 195.87700127 113 195.87700127 113 197 C3.11 197 -106.78 197 -220 197 C-218.09884726 190.02910662 -216.19000876 183.4041713 -213.65625 176.69140625 C-213.33443253 175.82627411 -213.01261505 174.96114197 -212.68104553 174.0697937 C-211.98669227 172.20452631 -211.29022702 170.34004396 -210.59182739 168.47628784 C-208.6962191 163.41742924 -206.81610857 158.35280466 -204.93359375 153.2890625 C-204.33961037 151.69332649 -204.33961037 151.69332649 -203.73362732 150.06535339 C-198.52513397 136.05968091 -193.41728147 122.01715452 -188.30175781 107.97732544 C-187.49633252 105.76701665 -186.69063387 103.55680745 -185.8846283 101.34671021 C-185.15209993 99.33800301 -184.42025496 97.32904642 -183.68922424 95.3197937 C-183.36324753 94.42591949 -183.03727081 93.53204529 -182.70141602 92.61108398 C-182.41959976 91.83715805 -182.13778351 91.06323212 -181.84742737 90.26585388 C-181.56777634 89.5181221 -181.28812531 88.77039032 -181 88 C-180.70101807 87.12058746 -180.40203613 86.24117493 -180.09399414 85.33511353 C-178.39068664 81.69943008 -175.18501891 80.69971769 -171.68359375 79.15234375 C-170.58785789 78.64448082 -170.58785789 78.64448082 -169.46998596 78.12635803 C-167.13271631 77.04758109 -164.78561503 75.99242928 -162.4375 74.9375 C-160.8840669 74.22482836 -159.33132385 73.51065056 -157.77929688 72.79492188 C-154.14695605 71.12419935 -150.50488828 69.47636636 -146.85760498 67.83856201 C-145.23667574 67.10684041 -143.62192727 66.36145773 -142.00830078 65.61376953 C-136.33114276 63 -136.33114276 63 -133 63 C-132.6603981 64.87387477 -132.32861309 66.74916697 -132 68.625 C-131.814375 69.66914062 -131.62875 70.71328125 -131.4375 71.7890625 C-131.01284203 74.90574865 -130.92454794 77.85930812 -131 81 C-128.03 81 -125.06 81 -122 81 C-121.97421875 81.66386719 -121.9484375 82.32773437 -121.921875 83.01171875 C-121.5674866 88.52890176 -121.2111154 92.03659727 -117 96 C-113.5408807 98.30607953 -112.04146024 98.00928573 -108.03515625 97.484375 C-104.78788893 96.75225976 -104.78788893 96.75225976 -102 95 C-101.53290648 92.33517159 -101.30427527 90.04929034 -101.25 87.375 C-101.20552734 86.31539062 -101.20552734 86.31539062 -101.16015625 85.234375 C-101.08944643 83.49019953 -101.04245965 81.74509173 -101 80 C-96.71 79.67 -92.42 79.34 -88 79 C-88.43431889 76.16614622 -88.87180208 73.33286473 -89.3125 70.5 C-89.51117676 69.21887329 -89.51117676 69.21887329 -89.71386719 67.91186523 C-90.80684905 60.97400214 -92.11985507 54.09893363 -93.546875 47.22265625 C-93.95410951 44.32637632 -94.00106666 42.6988216 -93 40 C-93 40.99 -93 41.98 -93 43 C-91.97269775 42.52393311 -90.94539551 42.04786621 -89.88696289 41.55737305 C-89.19694687 41.23761002 -88.50693085 40.91784698 -87.79600525 40.58839417 C-86.21418612 39.85535502 -84.63236855 39.12231248 -83.05055237 38.38926697 C-78.54138731 36.29963546 -74.03219298 34.21006715 -69.52294922 32.12060547 C-60.80086783 28.07895383 -52.07894861 24.03695473 -43.358078 19.99269104 C-39.66653733 18.28078178 -35.97485953 16.56916833 -32.28317261 14.85757446 C-30.52734656 14.04341125 -28.77158761 13.2291033 -27.01589966 12.41464233 C-18.02522215 8.2439427 -9.03355823 4.07731552 0 0 Z " fill="#C3C1CA" transform="translate(366,460)"/>
  <path d="M0 0 C3 2 3 2 3.5625 4.625 C2.76017415 9.4389551 0.11255502 12.3501587 -3 16 C-2.31292969 16.09796875 -1.62585938 16.1959375 -0.91796875 16.296875 C-0.01691406 16.44640625 0.88414062 16.5959375 1.8125 16.75 C2.70582031 16.88921875 3.59914063 17.0284375 4.51953125 17.171875 C7.61591777 18.20562924 8.48135907 19.13090638 10 22 C10.3359375 24.65625 10.3359375 24.65625 10.375 27.5 C10.54173231 31.8268726 10.54173231 31.8268726 13.125 35.125 C14.07375 35.74375 15.0225 36.3625 16 37 C17.80493473 39.23762457 19.48436126 41.54062789 21.15625 43.87890625 C23.20540184 46.23629915 25.26115261 47.53209035 28 49 C28.59167969 48.33613281 29.18335938 47.67226563 29.79296875 46.98828125 C30.58316406 46.10527344 31.37335938 45.22226562 32.1875 44.3125 C33.35345703 43.00732422 33.35345703 43.00732422 34.54296875 41.67578125 C35.35378906 40.79277344 36.16460937 39.90976562 37 39 C37.7005249 38.13133301 38.4010498 37.26266602 39.12280273 36.36767578 C42.86480598 33.2883421 45.85812387 33.32539465 50.4921875 33.44140625 C51.31518341 33.44373764 52.13817932 33.44606903 52.9861145 33.44847107 C54.72945508 33.45819873 56.47276449 33.47996359 58.21582031 33.51293945 C60.83187867 33.56169632 63.44603137 33.574388 66.0625 33.58007812 C93.62168877 33.76179786 93.62168877 33.76179786 101 39 C106.32378947 44.57140758 108.06193557 49.03464527 108.4375 56.625 C107.95911833 74.30337726 94.01459539 86.22905436 82.1953125 97.8203125 C76.91179317 103.06622671 72.30419794 108.81103584 67.75 114.6875 C67.11288086 115.507948 67.11288086 115.507948 66.46289062 116.3449707 C64.08320112 119.45247066 61.94183492 122.60178889 60 126 C55.1765623 125.69853514 52.44861828 123.23864352 48.8671875 120.27734375 C46.96437501 118.71768899 46.96437501 118.71768899 44 119 C42.32282719 121.36766513 42.32282719 121.36766513 40.75 124.3125 C36.89907743 130.63321258 36.89907743 130.63321258 33.375 132.1875 C31.704375 132.5896875 31.704375 132.5896875 30 133 C29.154375 133.20625 28.30875 133.4125 27.4375 133.625 C23.90589795 132.71946101 22.49963982 130.45995175 20.33203125 127.62890625 C19.07775666 125.86833905 19.07775666 125.86833905 17 125 C18.99084563 120.31633428 22.42050258 116.57750364 25.63085938 112.68945312 C26.83048893 111.18427393 27.92418939 109.59602851 29 108 C28.24849977 104.72226496 28.24849977 104.72226496 25 103 C21.51288927 102.09485978 18.15823868 101.81120406 14.5625 101.75 C13.65628906 101.72421875 12.75007813 101.6984375 11.81640625 101.671875 C5.98241989 102.35156273 2.06642038 105.54171272 -2.125 109.4375 C-2.95257813 110.19933594 -3.78015625 110.96117187 -4.6328125 111.74609375 C-8.92316823 115.66548063 -8.92316823 115.66548063 -12.3125 120.3125 C-13.83712881 122.74061255 -15.07915085 124.04708976 -17.1640625 125.93359375 C-21.85914553 130.57675738 -24.85987785 136.02045964 -28.0625 141.75 C-28.69937744 142.87946045 -29.33625488 144.0089209 -29.99243164 145.17260742 C-31.67193251 148.16301419 -33.33031182 151.16471288 -34.98547363 154.16864014 C-35.99897588 155.99815132 -37.02447393 157.82041416 -38.05371094 159.64111328 C-40.05109885 163.17910811 -41.99670146 166.74313468 -43.9375 170.3125 C-44.8512439 171.92753418 -44.8512439 171.92753418 -45.78344727 173.57519531 C-53.1841618 187.49760819 -49.44032624 202.04983238 -47.3125 217 C-47.04060084 218.95715901 -46.76895589 220.91435336 -46.49755859 222.87158203 C-44.73885583 235.42455686 -42.77985635 247.92996473 -40.47387695 260.39453125 C-40.18130005 261.98974609 -40.18130005 261.98974609 -39.8828125 263.6171875 C-39.71152832 264.52065918 -39.54024414 265.42413086 -39.36376953 266.35498047 C-39 269 -39 269 -39 275 C-43.29 275.33 -47.58 275.66 -52 276 C-52 280.95 -52 285.9 -52 291 C-60.97826087 295.86956522 -60.97826087 295.86956522 -65 295 C-68.3417035 292.77219766 -70.87739022 290.40590681 -73 287 C-73.29296875 284.421875 -73.29296875 284.421875 -73.1875 281.75 C-73.16042969 280.85796875 -73.13335937 279.9659375 -73.10546875 279.046875 C-73.07066406 278.37140625 -73.03585938 277.6959375 -73 277 C-75.97 277 -78.94 277 -82 277 C-83.94267434 266.13868439 -85.52237767 255.2550963 -86.9375 244.3125 C-88.83435563 229.72482049 -91.06652981 215.21317053 -94.0859375 200.8125 C-100.50937521 168.67647441 -79.8387285 130.96995216 -67.76025391 101.91894531 C-67.21649805 100.54645943 -66.7126295 99.15790344 -66.23583984 97.76074219 C-65.56857832 95.81201072 -64.79193553 93.9014811 -64 92 C-60.45474543 90.81824848 -58.64167209 91.34390079 -55 92 C-50.77237346 92.21225532 -46.54498146 92.18510742 -42.3125 92.1875 C-41.19166016 92.19974609 -40.07082031 92.21199219 -38.91601562 92.22460938 C-31.72536887 92.23712936 -25.02058544 91.5608179 -18 90 C-16.31120766 82.2370458 -15.80707192 74.86996115 -15.8125 66.9375 C-15.8115332 65.54494995 -15.8115332 65.54494995 -15.81054688 64.12426758 C-15.59297501 57.59887211 -15.59297501 57.59887211 -18.8125 52.2109375 C-19.8953125 51.30214844 -19.8953125 51.30214844 -21 50.375 C-22.0828125 49.45847656 -22.0828125 49.45847656 -23.1875 48.5234375 C-23.785625 48.02070313 -24.38375 47.51796875 -25 47 C-26.58272601 45.41727399 -26.34735747 43.61965997 -26.5625 41.4375 C-26.64628906 40.61121094 -26.73007812 39.78492188 -26.81640625 38.93359375 C-26.87699219 38.29550781 -26.93757813 37.65742188 -27 37 C-27.81621826 37.56714722 -27.81621826 37.56714722 -28.64892578 38.14575195 C-31.13818114 39.8720344 -33.63153622 41.59230248 -36.125 43.3125 C-36.9809375 43.90740234 -37.836875 44.50230469 -38.71875 45.11523438 C-50.10598004 52.95490429 -50.10598004 52.95490429 -54.625 53.0625 C-58.08552446 51.51437064 -59.2304062 49.27702556 -61 46 C-61 45.01 -61 44.02 -61 43 C-60.07058594 42.55269531 -59.14117187 42.10539062 -58.18359375 41.64453125 C-56.93473358 41.03418605 -55.68604483 40.42349002 -54.4375 39.8125 C-53.82841797 39.52052734 -53.21933594 39.22855469 -52.59179688 38.92773438 C-49.35812018 37.33656013 -46.41570345 35.64671667 -43.51953125 33.49609375 C-39.97220025 30.87752936 -36.24064444 29.0905274 -32.25 27.25 C-19.97674183 21.32044593 -7.64019459 11.46029189 0 0 Z " fill="#BF5248" transform="translate(317,264)"/>
  <path d="M0 0 C3.91549098 3.24902443 7.52295484 6.53543373 11 10.25 C20.33625655 19.6497685 31.43679059 25.97468838 44 30 C43.42881052 34.17118631 42.05419739 36.81263715 39.75 40.3125 C35.6470315 46.72785749 31.99382493 53.36436335 28.375 60.0625 C27.83713867 61.05483643 27.29927734 62.04717285 26.74511719 63.06958008 C25.68045055 65.04702742 24.62703587 67.03057417 23.58496094 69.02001953 C22.51988276 71.02253712 21.41264257 73.0031403 20.26660156 74.96044922 C12.65071881 88.55960173 16.59023402 103.2645496 18.6875 118 C18.95939916 119.95715901 19.23104411 121.91435336 19.50244141 123.87158203 C21.26114417 136.42455686 23.22014365 148.92996473 25.52612305 161.39453125 C25.81869995 162.98974609 25.81869995 162.98974609 26.1171875 164.6171875 C26.28847168 165.52065918 26.45975586 166.42413086 26.63623047 167.35498047 C27 170 27 170 27 176 C22.71 176.33 18.42 176.66 14 177 C14 181.95 14 186.9 14 192 C5.02173913 196.86956522 5.02173913 196.86956522 1 196 C-2.3417035 193.77219766 -4.87739022 191.40590681 -7 188 C-7.29296875 185.421875 -7.29296875 185.421875 -7.1875 182.75 C-7.16042969 181.85796875 -7.13335937 180.9659375 -7.10546875 180.046875 C-7.07066406 179.37140625 -7.03585938 178.6959375 -7 178 C-9.97 178 -12.94 178 -16 178 C-17.94267434 167.13868439 -19.52237767 156.2550963 -20.9375 145.3125 C-22.83435563 130.72482049 -25.06652981 116.21317053 -28.0859375 101.8125 C-34.54395431 69.50347749 -13.56931893 30.08692535 -1 1 C-0.67 0.67 -0.34 0.34 0 0 Z " fill="#C05248" transform="translate(251,363)"/>
  <path d="M0 0 C3 2 3 2 3.5625 4.625 C2.76017415 9.4389551 0.11255502 12.3501587 -3 16 C-2.31292969 16.09796875 -1.62585938 16.1959375 -0.91796875 16.296875 C-0.01691406 16.44640625 0.88414062 16.5959375 1.8125 16.75 C2.70582031 16.88921875 3.59914063 17.0284375 4.51953125 17.171875 C7.61591777 18.20562924 8.48135907 19.13090638 10 22 C10.3359375 24.65625 10.3359375 24.65625 10.375 27.5 C10.54173231 31.8268726 10.54173231 31.8268726 13.125 35.125 C14.07375 35.74375 15.0225 36.3625 16 37 C17.14145558 38.40807295 18.24185752 39.84986028 19.3125 41.3125 C22.17196101 45.09635573 25.18466343 48.07673037 28.8125 51.109375 C34.33034505 55.87836965 39.76656065 61.04030383 44 67 C44.02909763 63.75001888 44.04683161 60.50007143 44.0625 57.25 C44.07506836 55.86941406 44.07506836 55.86941406 44.08789062 54.4609375 C44.09272461 53.12675781 44.09272461 53.12675781 44.09765625 51.765625 C44.10551147 50.54020996 44.10551147 50.54020996 44.11352539 49.29003906 C44.0026854 47.05417008 43.58620703 45.15247893 43 43 C42.87794671 40.32459184 42.95532687 37.68038762 43 35 C44.65 35 46.3 35 48 35 C48.79955001 36.51670364 49.58921388 38.03861998 50.375 39.5625 C50.81585938 40.40941406 51.25671875 41.25632812 51.7109375 42.12890625 C55.37482734 50.28938818 55.2719247 57.55513299 55.1875 66.4375 C55.1865332 68.36432617 55.1865332 68.36432617 55.18554688 70.33007812 C55.16904406 73.8891848 55.08962885 77.442136 55 81 C55.02006104 81.83031738 55.04012207 82.66063477 55.06079102 83.51611328 C55.015625 85.59765625 55.015625 85.59765625 54 89 C51.44643607 91.24854753 48.64193338 92.59411734 45.5625 94 C44.77294922 94.39316406 43.98339844 94.78632813 43.16992188 95.19140625 C37.43040886 98 37.43040886 98 35 98 C36.47712842 93.03147712 38.62816981 88.57832621 40.9765625 83.9765625 C42.26309645 80.23481108 42.79697819 76.87734689 42 73 C40.30698982 70.54795198 38.90963574 68.82887313 36.8125 66.8125 C36.08836914 66.0709668 36.08836914 66.0709668 35.34960938 65.31445312 C33.9182725 63.85621865 32.46250617 62.42689561 31 61 C30.0443117 60.0468358 29.08980015 59.09248962 28.13671875 58.13671875 C27.43160156 57.43160156 26.72648437 56.72648437 26 56 C25.82984375 56.79664063 25.6596875 57.59328125 25.484375 58.4140625 C23.38511842 67.59272692 20.84952167 73.3483444 13 79 C9.15298486 80.83607541 6.28327794 80.9979707 2.125 80.75 C-3.80527972 80.57056642 -6.71442323 83.24032952 -11 87 C-11.33 87 -11.66 87 -12 87 C-12.24234375 88.12277344 -12.4846875 89.24554688 -12.734375 90.40234375 C-14.50254936 98.37069086 -16.38211971 105.63502941 -20 113 C-20 113.66 -20 114.32 -20 115 C-17.36 116.32 -14.72 117.64 -12 119 C-13.74676919 122.49353838 -14.91405215 124.13945763 -17.625 126.75 C-18.25664062 127.36359375 -18.88828125 127.9771875 -19.5390625 128.609375 C-20.02117187 129.06828125 -20.50328125 129.5271875 -21 130 C-35.4347242 126.21947699 -46.39414668 118.26887804 -57 108 C-57.87398438 107.22269531 -58.74796875 106.44539063 -59.6484375 105.64453125 C-60.48632812 104.87496094 -61.32421875 104.10539062 -62.1875 103.3125 C-62.94417969 102.62800781 -63.70085937 101.94351563 -64.48046875 101.23828125 C-66 99 -66 99 -65.84375 95.8203125 C-65 93 -65 93 -63.3125 91.5625 C-60.3036428 90.83061582 -58.04791204 91.48405034 -55 92 C-50.77237346 92.21225532 -46.54498146 92.18510742 -42.3125 92.1875 C-41.19166016 92.19974609 -40.07082031 92.21199219 -38.91601562 92.22460938 C-31.72536887 92.23712936 -25.02058544 91.5608179 -18 90 C-16.31120766 82.2370458 -15.80707192 74.86996115 -15.8125 66.9375 C-15.81185547 66.0091333 -15.81121094 65.0807666 -15.81054688 64.12426758 C-15.59297501 57.59887211 -15.59297501 57.59887211 -18.8125 52.2109375 C-19.534375 51.60507812 -20.25625 50.99921875 -21 50.375 C-21.721875 49.76398438 -22.44375 49.15296875 -23.1875 48.5234375 C-24.0846875 47.76933594 -24.0846875 47.76933594 -25 47 C-26.58272601 45.41727399 -26.34735747 43.61965997 -26.5625 41.4375 C-26.64628906 40.61121094 -26.73007812 39.78492188 -26.81640625 38.93359375 C-26.87699219 38.29550781 -26.93757813 37.65742188 -27 37 C-27.81621826 37.56714722 -27.81621826 37.56714722 -28.64892578 38.14575195 C-31.13818114 39.8720344 -33.63153622 41.59230248 -36.125 43.3125 C-36.9809375 43.90740234 -37.836875 44.50230469 -38.71875 45.11523438 C-50.10598004 52.95490429 -50.10598004 52.95490429 -54.625 53.0625 C-58.08552446 51.51437064 -59.2304062 49.27702556 -61 46 C-61 45.01 -61 44.02 -61 43 C-60.07058594 42.55269531 -59.14117187 42.10539062 -58.18359375 41.64453125 C-56.93473358 41.03418605 -55.68604483 40.42349002 -54.4375 39.8125 C-53.82841797 39.52052734 -53.21933594 39.22855469 -52.59179688 38.92773438 C-49.35812018 37.33656013 -46.41570345 35.64671667 -43.51953125 33.49609375 C-39.97220025 30.87752936 -36.24064444 29.0905274 -32.25 27.25 C-19.97674183 21.32044593 -7.64019459 11.46029189 0 0 Z " fill="#79766E" transform="translate(317,264)"/>
  <path d="M0 0 C2.75 2.3125 2.75 2.3125 5 5 C5.73669922 5.78890625 5.73669922 5.78890625 6.48828125 6.59375 C10.97496184 11.49235908 14.67570181 16.56243916 15.3125 23.3125 C15 26 15 26 14 29 C15.14857408 32.16516549 15.14857408 32.16516549 16.8125 35.625 C22.35569144 48.20595798 22.35569144 48.20595798 22 52 C20.22279629 55.24078324 17.68662431 57.49819381 15 60 C13.65637139 61.37344285 12.31287444 62.74702146 10.97314453 64.12426758 C0.87425719 74.42065825 0.87425719 74.42065825 -4 78 C-4.66 78 -5.32 78 -6 78 C-7.65 74.7 -9.3 71.4 -11 68 C-12.03898437 68.16757813 -13.07796875 68.33515625 -14.1484375 68.5078125 C-31.87080727 71.17786941 -31.87080727 71.17786941 -38.796875 66.88671875 C-40.375 65.625 -40.375 65.625 -43 63 C-43.6496875 62.40832031 -44.299375 61.81664062 -44.96875 61.20703125 C-47.31059186 58.66253 -48.62612338 56.1740423 -50.125 53.0625 C-50.62257812 52.04285156 -51.12015625 51.02320313 -51.6328125 49.97265625 C-55.81504813 40.87928106 -56.18130013 32.59284348 -53 23 C-48.39950009 12.14086947 -42.08437658 5.28014419 -32 -0.8125 C-21.13585681 -5.11289001 -10.44316664 -5.71665294 0 0 Z " fill="#351F17" transform="translate(207,138)"/>
  <path d="M0 0 C1.258125 0.04125 2.51625 0.0825 3.8125 0.125 C3.4825 1.115 3.1525 2.105 2.8125 3.125 C4.56282844 2.98316304 6.31275534 2.83636571 8.0625 2.6875 C9.52429688 2.56568359 9.52429688 2.56568359 11.015625 2.44140625 C13.7484548 2.21427267 13.7484548 2.21427267 16.046875 1.46484375 C16.62953125 1.35269531 17.2121875 1.24054687 17.8125 1.125 C18.8025 2.115 18.8025 2.115 19.8125 3.125 C19.4375 6.0625 19.4375 6.0625 18.8125 9.125 C18.8125 10.115 18.8125 11.105 18.8125 12.125 C18.50161632 13.79599977 18.17169668 15.46371537 17.8125 17.125 C17.1525 17.125 16.4925 17.125 15.8125 17.125 C15.93625 18.0325 16.06 18.94 16.1875 19.875 C15.8125 23.125 15.8125 23.125 13 25.375 C11.948125 25.9525 10.89625 26.53 9.8125 27.125 C8.8225 27.785 7.8325 28.445 6.8125 29.125 C4.42950383 29.57441255 2.03024516 29.94106943 -0.375 30.25 C-2.28345703 30.50136719 -2.28345703 30.50136719 -4.23046875 30.7578125 C-5.20628906 30.87898438 -6.18210937 31.00015625 -7.1875 31.125 C-7.42984375 32.25035156 -7.6721875 33.37570313 -7.921875 34.53515625 C-12.53133644 55.75124376 -18.27769036 76.08691768 -27.41967773 95.82836914 C-31.73884055 105.1873087 -35.65403309 114.7117071 -39.58251953 124.23950195 C-42.5242466 131.34484139 -45.61089996 138.31347513 -49.1875 145.125 C-51.09231086 142.68634612 -52.68171162 140.35654714 -53.984375 137.55078125 C-54.30019531 136.88691406 -54.61601562 136.22304687 -54.94140625 135.5390625 C-55.43447266 134.49878906 -55.43447266 134.49878906 -55.9375 133.4375 C-59.03044008 127.05469107 -62.44955648 121.45518646 -67.1875 116.125 C-65.1734007 111.33855225 -61.6294894 107.57093371 -58.3515625 103.609375 C-52.99659587 96.97387288 -50.01811511 90.10297637 -47.5625 82 C-45.37430582 75.10525883 -42.67558612 68.64940272 -39.5625 62.125 C-34.26599082 51.00294114 -30.31385829 39.48814942 -26.47412109 27.80078125 C-23.37056838 18.50645029 -20.28125577 10.05246858 -11.5 4.75 C-10.75363281 4.28851563 -10.00726563 3.82703125 -9.23828125 3.3515625 C-8.56152344 2.94679688 -7.88476562 2.54203125 -7.1875 2.125 C-4.09861478 0.06574319 -3.47814073 -0.1140374 0 0 Z " fill="#B16D4C" transform="translate(338.1875,27.875)"/>
  <path d="M0 0 C5.24790554 0.64352555 9.12736654 1.30411126 12.94921875 5.21484375 C13.62550256 7.21269883 14.2200593 9.23886644 14.76171875 11.27734375 C17.69979532 22.13969321 25.42267761 29.29790477 33.94921875 36.21484375 C34.27921875 36.54484375 34.60921875 36.87484375 34.94921875 37.21484375 C35.60921875 32.26484375 36.26921875 27.31484375 36.94921875 22.21484375 C39.54796875 21.84359375 39.54796875 21.84359375 42.19921875 21.46484375 C47.86445999 20.53743771 53.06624877 18.97969604 58.453125 17.01953125 C60.94921875 16.21484375 60.94921875 16.21484375 63.94921875 16.21484375 C68.29618656 22.73529546 65.60573573 31.9486685 64.32421875 39.27734375 C64.14890625 40.28015381 63.97359375 41.28296387 63.79296875 42.31616211 C61.74097738 53.30784363 58.70856465 64.11877085 51.94921875 73.21484375 C48.29664583 75.64989237 46.70024097 75.65764542 42.47265625 75.0625 C37.21678928 73.29698431 33.71387547 69.12564398 29.94921875 65.21484375 C29.1809375 64.46589844 28.41265625 63.71695313 27.62109375 62.9453125 C20.83439661 55.99007155 15.5759193 48.08145223 10.21411133 40.00708008 C5.8888364 33.49544014 1.71347234 27.4869131 -4.30078125 22.40234375 C-4.9865625 21.81839844 -5.67234375 21.23445313 -6.37890625 20.6328125 C-6.930625 20.16488281 -7.48234375 19.69695312 -8.05078125 19.21484375 C-8.38078125 18.88484375 -8.71078125 18.55484375 -9.05078125 18.21484375 C-8.99767471 11.90844247 -7.7212572 6.55881217 -3.71875 1.546875 C-2.05078125 0.21484375 -2.05078125 0.21484375 0 0 Z " fill="#B06C4B" transform="translate(146.05078125,256.78515625)"/>
  <path d="M0 0 C-0.03222656 0.6290625 -0.06445312 1.258125 -0.09765625 1.90625 C-0.03913338 6.22393736 0.12759893 8.99698994 3.03515625 12.33984375 C4.64248067 13.70772523 6.2866868 15.03373889 7.96875 16.30859375 C10 18 10 18 11 21 C11.87383268 32.26846964 11.51400037 43.229466 8 54 C-0.17232724 56.72068941 -7.54578997 57.40979902 -16.125 57.25 C-17.24003906 57.24484375 -18.35507812 57.2396875 -19.50390625 57.234375 C-25.74045038 57.17560898 -31.81646437 56.81052687 -38 56 C-37.52675435 41.90054326 -36.02656984 28.57877882 -32 15 C-31.113125 15.21269531 -30.22625 15.42539062 -29.3125 15.64453125 C-20.29387024 16.61233232 -10.77902753 7.13115415 -3.7734375 1.9765625 C-1 0 -1 0 0 0 Z " fill="#A7D4E6" transform="translate(291,300)"/>
  <path d="M0 0 C1.9140625 1.6796875 1.9140625 1.6796875 3.625 3.875 C5.72324406 6.52391444 7.14208682 8.09472455 10 10 C14.46529065 9.78039554 17.24457308 9.37771346 21.25 7.375 C24.32628746 5.83685627 24.89274632 6.00408536 28 7 C28.02891546 11.45831982 28.04676981 15.91661569 28.0625 20.375 C28.07087891 21.64601563 28.07925781 22.91703125 28.08789062 24.2265625 C28.09111328 25.43828125 28.09433594 26.65 28.09765625 27.8984375 C28.10289307 29.01911621 28.10812988 30.13979492 28.11352539 31.29443359 C28 34 28 34 27 36 C18.32996943 36.60816199 10.529821 35.03022751 2.21240234 32.85668945 C0.13881577 32.31610179 -1.93945588 31.79818755 -4.01953125 31.28320312 C-35.33537148 23.38433542 -35.33537148 23.38433542 -43 13 C-43.80520999 7.1622276 -43.80520999 7.1622276 -41.82275391 4.30078125 C-39.25119547 2.46562677 -37.47043034 2.70515095 -34.3359375 2.8125 C-33.21316406 2.83570313 -32.09039062 2.85890625 -30.93359375 2.8828125 C-28.5846099 2.96016652 -26.23565079 3.03827601 -23.88671875 3.1171875 C-17.65023116 3.24518839 -12.68563936 2.92584687 -6.8515625 0.68310547 C-4.39558683 -0.22298893 -2.57757338 -0.51179255 0 0 Z " fill="#A8D5E7" transform="translate(242,548)"/>
  <path d="M0 0 C3.05265228 3.05265228 3.93632968 5.77628741 4.16015625 10.078125 C3.97128811 14.70309109 3.23546512 19.03497604 2.3125 23.5625 C2.13678467 24.43712891 1.96106934 25.31175781 1.7800293 26.21289062 C0.39232032 32.80435737 -1.5093721 38.9653176 -3.94921875 45.25 C-5.12627811 48.16591639 -5.12627811 48.16591639 -6 52 C-3.36 53.32 -0.72 54.64 2 56 C0.25323081 59.49353838 -0.91405215 61.13945763 -3.625 63.75 C-4.25664062 64.36359375 -4.88828125 64.9771875 -5.5390625 65.609375 C-6.26222656 66.29773438 -6.26222656 66.29773438 -7 67 C-21.4347242 63.21947699 -32.39414668 55.26887804 -43 45 C-44.31097656 43.83404297 -44.31097656 43.83404297 -45.6484375 42.64453125 C-46.90527344 41.49017578 -46.90527344 41.49017578 -48.1875 40.3125 C-48.94417969 39.62800781 -49.70085937 38.94351563 -50.48046875 38.23828125 C-52 36 -52 36 -51.84375 32.8203125 C-51 30 -51 30 -49.3125 28.5625 C-46.3036428 27.83061582 -44.04791204 28.48405034 -41 29 C-36.77237346 29.21225532 -32.54498146 29.18510742 -28.3125 29.1875 C-27.19166016 29.19974609 -26.07082031 29.21199219 -24.91601562 29.22460938 C-17.72536887 29.23712936 -11.02058544 28.5608179 -4 27 C-2.44395858 18.0226206 -1.16032364 9.03571174 0 0 Z " fill="#362018" transform="translate(303,327)"/>
  <path d="M0 0 C4.82474122 3.03427896 9.17405384 3.66350661 14.8125 3.6875 C15.39615019 13.60955323 15.39615019 13.60955323 11.8125 17.6875 C8.00842422 19.58620391 4.88031963 19.94417028 0.65625 19.953125 C-1.12652344 19.95699219 -1.12652344 19.95699219 -2.9453125 19.9609375 C-4.18023437 19.95320313 -5.41515625 19.94546875 -6.6875 19.9375 C-7.89148438 19.94523437 -9.09546875 19.95296875 -10.3359375 19.9609375 C-27.0134015 19.92507199 -27.0134015 19.92507199 -34.1875 17.6875 C-37.55080545 14.2544424 -37.5930408 11.54632331 -37.5625 6.8125 C-37.57023437 5.61882812 -37.57796875 4.42515625 -37.5859375 3.1953125 C-37.04653087 -1.5535812 -35.57252952 -4.92747048 -32.1875 -8.3125 C-20.12510424 -12.21428975 -9.99491502 -6.48021963 0 0 Z " fill="#C4D68D" transform="translate(345.1875,422.3125)"/>
  <path d="M0 0 C2.66619871 1.36728139 3.484762 2.51185881 5.25 4.875 C7.32127236 7.59432671 7.32127236 7.59432671 10.45703125 8.5234375 C12.53209048 8.25394929 14.42973214 7.83526027 16.4375 7.25 C17.77055966 6.91557388 19.10381872 6.58193845 20.4375 6.25 C20.63085938 6.97445313 20.82421875 7.69890625 21.0234375 8.4453125 C22.36610286 13.43045615 23.72499486 18.37594691 25.4375 23.25 C27.7475 23.58 30.0575 23.91 32.4375 24.25 C34.17729011 29.38238083 34.17729011 29.38238083 34.4375 32.25 C32.41528274 35.77015598 31.29674326 36.96358558 27.4375 38.25 C19.49238191 39.43103107 14.98491536 37.84068915 8.5390625 33.26171875 C3.14125382 29.76062118 -2.82684786 27.516869 -8.74462891 25.04101562 C-11.40480839 23.88348386 -13.98381471 22.57732328 -16.5625 21.25 C-16.31267592 14.25492586 -14.38096637 10.3163964 -9.5625 5.25 C-6.66216911 2.56002278 -4.07148556 0.3972181 0 0 Z " fill="#A8D5E6" transform="translate(333.5625,387.75)"/>
  <path d="M0 0 C3.80358493 3.26021565 6.34187038 6.06762303 6.80200195 11.23950195 C6.86852252 13.68062137 6.90985613 16.12062508 6.9375 18.5625 C6.96650391 19.40490234 6.99550781 20.24730469 7.02539062 21.11523438 C7.08208979 26.69356014 6.32972771 29.81669875 2.625 34.25 C-0.5752664 37.4502664 -4.33325785 36.65836381 -8.6875 36.6875 C-9.54279297 36.72037109 -10.39808594 36.75324219 -11.27929688 36.78710938 C-15.43312408 36.82250217 -17.81641442 36.57933127 -21.44921875 34.4375 C-24.34680595 29.64149359 -24.02657186 25.30698005 -23.875 19.8125 C-23.87757813 18.78833984 -23.88015625 17.76417969 -23.8828125 16.70898438 C-23.81178973 11.22247528 -23.61922731 6.89208563 -20.375 2.25 C-14.50158564 -2.71981215 -6.70239911 -3.47531806 0 0 Z " fill="#F4C359" transform="translate(353.375,223.75)"/>
  <path d="M0 0 C0.74330566 -0.0033284 1.48661133 -0.0066568 2.25244141 -0.01008606 C3.82258486 -0.01514419 5.39273903 -0.01749473 6.96289062 -0.01733398 C9.36606483 -0.01952311 11.76878183 -0.03769732 14.171875 -0.05664062 C15.6979151 -0.05957424 17.22395737 -0.06155925 18.75 -0.0625 C19.82822021 -0.07327827 19.82822021 -0.07327827 20.92822266 -0.08427429 C24.63580276 -0.06726934 26.20533939 0.05486167 29.375 2.16796875 C29.21631736 10.7368312 25.19413192 16.3763126 19.203125 22.32421875 C14.78843878 26.25554516 11.9701428 28.64962177 5.796875 28.58203125 C-1.29500716 27.36954817 -8.12481324 22.68432672 -12.625 17.16796875 C-15.10792162 12.9531872 -15.38008692 8.96231583 -14.625 4.16796875 C-10.65152667 -0.21655355 -5.5466606 0.008587 0 0 Z " fill="#C4D68C" transform="translate(320.625,163.83203125)"/>
  <path d="M0 0 C0.87107895 -0.00953201 1.7421579 -0.01906403 2.63963318 -0.02888489 C3.58234573 -0.02797348 4.52505829 -0.02706207 5.49633789 -0.02612305 C6.94635948 -0.03255074 6.94635948 -0.03255074 8.42567444 -0.03910828 C10.47257707 -0.04485792 12.51950013 -0.04534719 14.56640625 -0.04101562 C17.70290927 -0.03785799 20.83846738 -0.06129901 23.97485352 -0.08666992 C25.96118045 -0.08894303 27.94750992 -0.08964636 29.93383789 -0.08862305 C31.34487038 -0.10243767 31.34487038 -0.10243767 32.78440857 -0.11653137 C33.65863968 -0.11030258 34.53287079 -0.10407379 35.43359375 -0.09765625 C36.20255478 -0.09828568 36.97151581 -0.0989151 37.76377869 -0.0995636 C40.3390935 0.37807508 41.21942414 1.20138531 42.78149414 3.2746582 C43.21508789 6.3059082 43.21508789 6.3059082 43.21899414 9.7746582 C43.23833008 10.9193457 43.25766602 12.0640332 43.27758789 13.2434082 C42.78149414 16.2746582 42.78149414 16.2746582 41.3425293 17.93920898 C37.4196942 19.98476742 33.66999939 19.70289846 29.30883789 19.6730957 C28.38937881 19.67596588 27.46991974 19.67883606 26.52259827 19.68179321 C24.581791 19.68383212 22.64096311 19.67831435 20.70019531 19.66577148 C17.72617817 19.64969703 14.75351626 19.66563545 11.77954102 19.68481445 C9.8934703 19.68283235 8.00740044 19.67898936 6.12133789 19.6730957 C5.23067123 19.6791684 4.34000458 19.68524109 3.42234802 19.6914978 C2.5946138 19.68204132 1.76687958 19.67258484 0.9140625 19.6628418 C-0.17703575 19.65926163 -0.17703575 19.65926163 -1.29017639 19.65560913 C-3.80377729 19.15903497 -4.69122068 18.30520196 -6.21850586 16.2746582 C-6.58178711 12.98950195 -6.58178711 12.98950195 -6.53100586 9.2121582 C-6.52713867 7.96305664 -6.52327148 6.71395508 -6.51928711 5.42700195 C-6.06131429 0.62720891 -4.43779318 0.02661751 0 0 Z " fill="#C5D68E" transform="translate(255.218505859375,55.725341796875)"/>
  <path d="M0 0 C15.27988637 4.62417614 29.8079558 18.17724241 39 31 C38.0409375 31.928125 38.0409375 31.928125 37.0625 32.875 C32.85331938 37.07201536 28.95343601 41.56422757 25 46 C20.12482817 42.74988545 16.47233072 39.73499643 13 35 C13 34.34 13 33.68 13 33 C12.38125 32.71125 11.7625 32.4225 11.125 32.125 C9 31 9 31 7 29 C6.7265625 26.5390625 6.7265625 26.5390625 6.625 23.625 C6.35109882 20.24983065 6.19248986 18.33685725 4.5 15.375 C0.81559619 13.3485779 -2.84719653 13.17747023 -7 13 C-6.57847656 12.39671875 -6.15695312 11.7934375 -5.72265625 11.171875 C-5.17480469 10.37265625 -4.62695312 9.5734375 -4.0625 8.75 C-3.51722656 7.96109375 -2.97195313 7.1721875 -2.41015625 6.359375 C-1.10377559 4.17363007 -0.45019489 2.4846199 0 0 Z " fill="#A7D3E5" transform="translate(320,268)"/>
  <path d="M0 0 C1.12921875 -0.01224609 2.2584375 -0.02449219 3.421875 -0.03710938 C14.49225293 -0.05655383 14.49225293 -0.05655383 19.875 2.1875 C22.72970546 6.46955819 22.36493644 10.16193985 21.875 15.1875 C20.80669457 19.6143821 19.7972146 22.57269027 15.875 25.1875 C7.47542712 26.08408362 -0.02525759 26.3168684 -7.21875 21.43359375 C-10.04648178 19.58513793 -12.85678312 18.95240182 -16.125 18.1875 C-16.47855042 11.67955334 -16.20933034 6.98604104 -13.125 1.1875 C-10.56940023 -1.36809977 -3.43422994 0.00192071 0 0 Z " fill="#F3C259" transform="translate(210.125,115.8125)"/>
  <path d="M0 0 C3.87599517 0.39115548 7.30214343 2.54739357 10.75 4.25 C18.59259828 8.03469751 26.6407794 10.61635891 35 13 C33.96312867 19.9001318 30.1797571 25.46676878 25.6875 30.6875 C21.67795621 32.64564929 18.28510497 31.93842895 14 31 C11.05752955 29.84508283 8.4006495 28.36378864 5.6875 26.75 C4.99849609 26.36714844 4.30949219 25.98429688 3.59960938 25.58984375 C-0.45475924 23.25183755 -3.41627553 21.01551133 -6 17 C-6.88950573 11.10702453 -5.08406233 6.89623034 -2 2 C-1.34 1.34 -0.68 0.68 0 0 Z " fill="#C899CD" transform="translate(201,565)"/>
  <path d="M0 0 C3.97150199 1.4753422 6.97639791 3.94592058 10.08203125 6.7734375 C10.88060547 7.49080078 10.88060547 7.49080078 11.6953125 8.22265625 C14.38585473 10.9889884 15.10100839 12.89299351 15.70703125 16.7109375 C15.36631639 21.40921604 13.38285213 24.50435528 10.08203125 27.7734375 C6.79066348 30.40122306 3.85001137 32.54125024 -0.38671875 33.09765625 C-6.16003342 32.35817304 -11.06904626 26.91326692 -14.91796875 22.7734375 C-17.3553049 19.11743327 -18.14611963 17.18435452 -17.91796875 12.7734375 C-16.31032486 9.72124402 -14.25833627 7.29261961 -11.91796875 4.7734375 C-11.43714844 4.22816406 -10.95632812 3.68289063 -10.4609375 3.12109375 C-7.21830519 -0.10367282 -4.49518843 -0.91107069 0 0 Z " fill="#C4D68C" transform="translate(192.91796875,396.2265625)"/>
  <path d="M0 0 C1.65 0 3.3 0 5 0 C5.79955001 1.51670364 6.58921388 3.03861998 7.375 4.5625 C7.81585938 5.40941406 8.25671875 6.25632812 8.7109375 7.12890625 C12.37482734 15.28938818 12.2719247 22.55513299 12.1875 31.4375 C12.18685547 32.72205078 12.18621094 34.00660156 12.18554688 35.33007812 C12.16904406 38.8891848 12.08962885 42.442136 12 46 C12.02006104 46.83031738 12.04012207 47.66063477 12.06079102 48.51611328 C12.015625 50.59765625 12.015625 50.59765625 11 54 C8.44643607 56.24854753 5.64193338 57.59411734 2.5625 59 C1.37817383 59.58974609 1.37817383 59.58974609 0.16992188 60.19140625 C-5.56959114 63 -5.56959114 63 -8 63 C-6.52287158 58.03147712 -4.37183019 53.57832621 -2.0234375 48.9765625 C-0.73736984 45.23616725 -0.21004074 41.87666974 -1 38 C-2.67358313 35.56407296 -4.04675229 33.87465289 -6.125 31.875 C-6.62692871 31.35784424 -7.12885742 30.84068848 -7.64599609 30.30786133 C-9.71611428 28.18855022 -11.84404567 26.14245829 -14.03125 24.14453125 C-16.98628672 21.44299033 -17.97117187 20.12766742 -18.875 16.125 C-18.91625 15.09375 -18.9575 14.0625 -19 13 C-16.13877912 14.29840818 -14.0807105 15.6708277 -11.87109375 17.8984375 C-11.03094727 18.74148438 -11.03094727 18.74148438 -10.17382812 19.6015625 C-9.60083984 20.18679688 -9.02785156 20.77203125 -8.4375 21.375 C-7.5722168 22.24125 -7.5722168 22.24125 -6.68945312 23.125 C-3.89790513 25.945526 -1.26609222 28.72585964 1 32 C1.02909763 28.75001888 1.04683161 25.50007143 1.0625 22.25 C1.07087891 21.32960938 1.07925781 20.40921875 1.08789062 19.4609375 C1.09111328 18.57148438 1.09433594 17.68203125 1.09765625 16.765625 C1.10289307 15.94868164 1.10812988 15.13173828 1.11352539 14.29003906 C1.0026854 12.05417008 0.58620703 10.15247893 0 8 C-0.12205329 5.32459184 -0.04467313 2.68038762 0 0 Z " fill="#371F17" transform="translate(360,299)"/>
  <path d="M0 0 C3 2 3 2 3.5625 4.625 C1.65027506 16.09834962 -12.53752178 25.29367809 -21 32 C-22.02480469 32.81855469 -23.04960937 33.63710938 -24.10546875 34.48046875 C-47.55396157 53 -47.55396157 53 -54.5 53 C-58.1083896 51.55664416 -59.18919887 49.35333543 -61 46 C-61 45.01 -61 44.02 -61 43 C-60.07058594 42.55269531 -59.14117187 42.10539062 -58.18359375 41.64453125 C-56.93473358 41.03418605 -55.68604483 40.42349002 -54.4375 39.8125 C-53.82841797 39.52052734 -53.21933594 39.22855469 -52.59179688 38.92773438 C-49.35812018 37.33656013 -46.41570345 35.64671667 -43.51953125 33.49609375 C-39.97220025 30.87752936 -36.24064444 29.0905274 -32.25 27.25 C-19.97674183 21.32044593 -7.64019459 11.46029189 0 0 Z " fill="#36231B" transform="translate(317,264)"/>
  <path d="M0 0 C2.1015625 0.5390625 2.1015625 0.5390625 4.1015625 3.5390625 C5.19746555 9.99979327 3.6997503 15.17127414 0.1015625 20.5390625 C-4.49128907 26.02496854 -10.30303059 30.39435162 -17.4609375 31.6015625 C-22.29816534 31.9374811 -25.00013895 30.27616574 -28.8984375 27.5390625 C-29.69733257 23.79040103 -30.00309667 22.13309443 -28.8984375 18.5390625 C-25.42947133 14.8212019 -21.56798782 11.84837167 -17.50927734 8.80517578 C-15.40414869 7.15055359 -13.58291802 5.26214056 -11.7109375 3.3515625 C-8.00878416 0.05988246 -4.84585192 -0.16502901 0 0 Z " fill="#76736B" transform="translate(319.8984375,280.4609375)"/>
  <path d="M0 0 C0.66 0 1.32 0 2 0 C4.09509264 4.63160416 6.08701552 9.28996251 8 14 C8.35964844 14.87527344 8.71929687 15.75054687 9.08984375 16.65234375 C9.83885217 18.95605072 10.22627051 20.58644788 10 23 C8.22279629 26.24078324 5.68662431 28.49819381 3 31 C1.65637139 32.37344285 0.31287444 33.74702146 -1.02685547 35.12426758 C-11.12574281 45.42065825 -11.12574281 45.42065825 -16 49 C-16.66 49 -17.32 49 -18 49 C-18.33773437 48.30132812 -18.67546875 47.60265625 -19.0234375 46.8828125 C-19.46945313 45.97273438 -19.91546875 45.06265625 -20.375 44.125 C-21.03628906 42.76761719 -21.03628906 42.76761719 -21.7109375 41.3828125 C-22.90502699 38.90465528 -22.90502699 38.90465528 -25 37 C-24.2575 36.731875 -23.515 36.46375 -22.75 36.1875 C-20.12953519 35.05593565 -18.2565011 33.71182842 -16 32 C-15.34 32 -14.68 32 -14 32 C-13.7525 31.443125 -13.505 30.88625 -13.25 30.3125 C-12 28 -12 28 -10.0625 25.875 C-5.88130396 20.04666613 -4.4191005 13.11601886 -5 6 C-5.33 5.01 -5.66 4.02 -6 3 C-4.02 2.67 -2.04 2.34 0 2 C0 1.34 0 0.68 0 0 Z " fill="#AF6D4C" transform="translate(219,167)"/>
  <path d="M0 0 C3.9246507 0.26607801 4.99696676 0.51870111 7.6875 3.25 C9.31225404 10.61181656 7.49965527 16.92771535 3.9765625 23.38671875 C2.6875 25.25 2.6875 25.25 0.6875 26.25 C-6.88476986 26.9511361 -14.92092369 25.41814341 -21.19140625 20.89453125 C-23.64004783 18.29241356 -24.33538551 16.11726402 -24.9375 12.625 C-24.3125 9.25 -24.3125 9.25 -22.19921875 7.0546875 C-18.67035615 4.84855148 -16.62170712 4.83346638 -12.5 5 C-10.75783203 5.05414063 -10.75783203 5.05414063 -8.98046875 5.109375 C-8.10003906 5.15578125 -7.21960938 5.2021875 -6.3125 5.25 C-6.003125 4.610625 -5.69375 3.97125 -5.375 3.3125 C-3.81696163 0.28807258 -3.81696163 0.28807258 0 0 Z " fill="#F3C35A" transform="translate(244.3125,320.75)"/>
  <path d="M0 0 C1.32064453 0.00483398 1.32064453 0.00483398 2.66796875 0.00976562 C3.54839844 -0.00634766 4.42882812 -0.02246094 5.3359375 -0.0390625 C6.17769531 -0.03970703 7.01945312 -0.04035156 7.88671875 -0.04101562 C8.65951172 -0.04399658 9.43230469 -0.04697754 10.22851562 -0.05004883 C10.86853516 0.07281494 11.50855469 0.19567871 12.16796875 0.32226562 C14.94892779 4.49370419 14.49867222 7.9218923 14.48046875 12.82226562 C14.49658203 13.68980469 14.51269531 14.55734375 14.52929688 15.45117188 C14.52994141 16.28519531 14.53058594 17.11921875 14.53125 17.97851562 C14.53423096 18.73970703 14.53721191 19.50089844 14.5402832 20.28515625 C14.06260057 22.89878503 13.30216973 23.76830337 11.16796875 25.32226562 C8.24539232 25.62036842 5.58451092 25.74108679 2.66796875 25.69726562 C1.50974609 25.71466797 1.50974609 25.71466797 0.328125 25.73242188 C-5.30222233 25.70314797 -5.30222233 25.70314797 -7.5534668 24.0847168 C-9.19154068 21.82669592 -9.2055254 20.49782622 -9.1953125 17.72460938 C-9.19466797 16.84095703 -9.19402344 15.95730469 -9.19335938 15.046875 C-9.17724609 14.12712891 -9.16113281 13.20738281 -9.14453125 12.25976562 C-9.14775391 11.33615234 -9.15097656 10.41253906 -9.15429688 9.4609375 C-9.09102217 1.58611297 -7.9351892 0.06683544 0 0 Z " fill="#F2C25A" transform="translate(389.83203125,546.677734375)"/>
  <path d="M0 0 C5.20799548 1.4203624 8.87388852 4.70377976 12 9 C13.01028638 14.05143192 11.69431982 17.80346594 9.26171875 22.19921875 C6.46259861 26.1942478 3.39030744 27.73767784 -1.3125 28.625 C-7.1865716 27.62939464 -12.03582317 24.45087551 -15.765625 19.796875 C-16.37664062 18.90742188 -16.37664062 18.90742188 -17 18 C-14.73005136 15.56167482 -12.45888681 13.12448546 -10.1875 10.6875 C-9.54490234 9.99720703 -8.90230469 9.30691406 -8.24023438 8.59570312 C-7.61826172 7.92861328 -6.99628906 7.26152344 -6.35546875 6.57421875 C-5.49924927 5.65515747 -5.49924927 5.65515747 -4.62573242 4.7175293 C-3.11021909 3.11644261 -1.56708191 1.55047707 0 0 Z " fill="#C4D58B" transform="translate(408,352)"/>
  <path d="M0 0 C0.53238281 0.40951904 1.06476563 0.81903809 1.61328125 1.2409668 C6.24504303 4.79210403 10.99885388 7.99399196 16 11 C6.8598351 25.41696113 6.8598351 25.41696113 -2.4375 27.5625 C-6.10885368 26.75659309 -7.43922674 24.53979622 -9.66796875 21.62890625 C-10.92224334 19.86833905 -10.92224334 19.86833905 -13 19 C-11.68779266 16.22561876 -10.22517631 13.79209828 -8.3984375 11.328125 C-7.90859375 10.66425781 -7.41875 10.00039063 -6.9140625 9.31640625 C-6.40617187 8.63449219 -5.89828125 7.95257813 -5.375 7.25 C-4.859375 6.55261719 -4.34375 5.85523438 -3.8125 5.13671875 C-2.54440881 3.42244733 -1.2725711 1.71094844 0 0 Z " fill="#B16D4C" transform="translate(347,370)"/>
  <path d="M0 0 C-1.05255642 5.26278209 -2.33743201 10.37487802 -3.9375 15.5 C-4.41509766 17.03140625 -4.41509766 17.03140625 -4.90234375 18.59375 C-5.26457031 19.3878125 -5.62679688 20.181875 -6 21 C-9 22 -9 22 -11.8984375 20.69921875 C-13.06504207 20.04222194 -14.22348287 19.3705954 -15.375 18.6875 C-15.98553223 18.33228271 -16.59606445 17.97706543 -17.22509766 17.61108398 C-23.88127947 13.63636323 -30.10138475 9.02656084 -36 4 C-36 3.67 -36 3.34 -36 3 C-35.28980713 2.98018066 -34.57961426 2.96036133 -33.84790039 2.93994141 C-30.5857696 2.84384804 -27.32420672 2.7345145 -24.0625 2.625 C-22.38704102 2.57859375 -22.38704102 2.57859375 -20.67773438 2.53125 C-13.7546621 2.28762282 -6.74356297 0 0 0 Z " fill="#BD534A" transform="translate(299,354)"/>
  <path d="M0 0 C6.93 0 13.86 0 21 0 C21 4.62 21 9.24 21 14 C12.02173913 18.86956522 12.02173913 18.86956522 8 18 C4.45910783 15.63940522 2.59485103 13.45980137 0 10 C0 6.7 0 3.4 0 0 Z " fill="#B16D4C" transform="translate(244,541)"/>
  <path d="M0 0 C2.89361507 1.35472334 5.32805051 2.94151391 7.890625 4.83984375 C13.73751844 8.77158128 20.03646737 10.59476328 26.75 12.5625 C28.03620541 12.94935824 29.32225525 13.33673402 30.6081543 13.72460938 C43.85145159 17.68011206 57.23136803 21.49282934 71 23 C70.505 24.485 70.505 24.485 70 26 C61.32996943 26.60816199 53.529821 25.03022751 45.21240234 22.85668945 C43.13881577 22.31610179 41.06054412 21.79818755 38.98046875 21.28320312 C8.68045702 13.64056022 8.68045702 13.64056022 0 3 C0 2.01 0 1.02 0 0 Z " fill="#9FCBDD" transform="translate(199,558)"/>
  <path d="M0 0 C5.10703991 0.88488315 9.94752683 2.26002683 13.6875 6 C14 9 14 9 13.6875 12 C10.28318053 14.26954631 8.52225798 14.36549949 4.5 14.625 C3.41332031 14.69976562 2.32664062 14.77453125 1.20703125 14.8515625 C-0.04013672 14.92503906 -0.04013672 14.92503906 -1.3125 15 C-0.6525 13.68 0.0075 12.36 0.6875 11 C-4.4818489 11.40556131 -4.4818489 11.40556131 -9.3125 13 C-9.02404667 8.74531334 -8.69313974 5.77713948 -6.8125 1.9375 C-3.98815177 -0.25136988 -3.41303241 -0.27327517 0 0 Z " fill="#C99ACC" transform="translate(341.3125,17)"/>
  <path d="M0 0 C0.65355469 0.56267578 0.65355469 0.56267578 1.3203125 1.13671875 C1.91585937 1.64847656 2.51140625 2.16023438 3.125 2.6875 C3.764375 3.24050781 4.40375 3.79351562 5.0625 4.36328125 C6.70728318 5.75272511 8.41077831 7.07219152 10.125 8.375 C13.58556238 11.53464391 15.72389524 14.94128221 18 19 C15.93816367 19.08150744 13.87538651 19.1394194 11.8125 19.1875 C10.08966797 19.23970703 10.08966797 19.23970703 8.33203125 19.29296875 C4.66710766 18.97073045 2.90335285 18.21232393 0 16 C-2.07324138 12.89013793 -2.27392186 12.10891613 -2.25 8.5625 C-2.25515625 7.80066406 -2.2603125 7.03882813 -2.265625 6.25390625 C-1.9747292 3.78556982 -1.22975656 2.142314 0 0 Z " fill="#CA9BCD" transform="translate(137,275)"/>
  <path d="M0 0 C5.2378459 0.90311648 9.54167781 2.91903902 14.3125 5.1875 C15.12912109 5.56197266 15.94574219 5.93644531 16.78710938 6.32226562 C21.76348015 8.67365038 26.08338523 11.33449019 30.39526367 14.7590332 C33.56242414 17.20824615 36.18321467 17.26896279 40.125 17.5625 C41.76855469 17.68818359 41.76855469 17.68818359 43.4453125 17.81640625 C44.70988281 17.90728516 44.70988281 17.90728516 46 18 C41.55779505 20.96146997 37.69120516 20.09060028 32.5 19.8125 C28.84601661 18.96425386 26.90834198 17.50576171 23.93994141 15.31225586 C20.80760852 13.19341754 17.42390303 11.80804102 13.9375 10.375 C12.57098126 9.80098456 11.20508501 9.22548472 9.83984375 8.6484375 C9.1938623 8.37612305 8.54788086 8.10380859 7.88232422 7.82324219 C5.20236294 6.65115017 2.5999811 5.33852381 0 4 C0 2.68 0 1.36 0 0 Z " fill="#9FCCDC" transform="translate(317,405)"/>
  <path d="M0 0 C4.516442 0.75274033 7.34585259 2.17634064 11 5 C12.18681726 8.56045177 12.09689832 11.43808337 12.0625 15.1875 C12.05347656 16.45980469 12.04445312 17.73210937 12.03515625 19.04296875 C12.02355469 20.01878906 12.01195312 20.99460937 12 22 C10.31002677 20.35697047 8.64783606 18.68528688 7 17 C6.29875 16.319375 5.5975 15.63875 4.875 14.9375 C1.9540791 10.36139059 1.10917502 5.26858136 0 0 Z " fill="#CA9BCD" transform="translate(159,263)"/>
  <path d="M0 0 C0.598125 0.763125 1.19625 1.52625 1.8125 2.3125 C3.46959332 4.3483575 5.10297674 6.1978279 7 8 C5.50164772 12.66154042 2.11536409 13.86610751 -2 16 C-2.2396943 10.36718401 -1.38529821 5.45461169 0 0 Z " fill="#A3CBDB" transform="translate(307,335)"/>
  <path d="M0 0 C5.61 0.66 11.22 1.32 17 2 C17 2.66 17 3.32 17 4 C5.47835991 4.3690205 5.47835991 4.3690205 0 2 C0 1.34 0 0.68 0 0 Z " fill="#AAD4E5" transform="translate(252,580)"/>
  <path d="M0 0 C0.66 0 1.32 0 2 0 C2 0.66 2 1.32 2 2 C2.66 2 3.32 2 4 2 C5.38232443 3.62626404 6.71937515 5.2925002 8 7 C7.67 7.66 7.34 8.32 7 9 C5.35 7.68 3.7 6.36 2 5 C1.67 5.99 1.34 6.98 1 8 C0.67 5.36 0.34 2.72 0 0 Z " fill="#95C3D5" transform="translate(272,167)"/>
  <path d="M0 0 C-1.65 0.66 -3.3 1.32 -5 2 C-4.34 2.66 -3.68 3.32 -3 4 C-5.97 3.505 -5.97 3.505 -9 3 C-9.33 2.01 -9.66 1.02 -10 0 C-2.25 -1.125 -2.25 -1.125 0 0 Z " fill="#64615B" transform="translate(311,317)"/>
  <path d="M0 0 C0.66 0.33 1.32 0.66 2 1 C1.375 2.875 1.375 2.875 0 5 C-3.125 6.25 -3.125 6.25 -6 7 C-4.02 4.69 -2.04 2.38 0 0 Z " fill="#8CB5C5" transform="translate(284,288)"/>
  <path d="M0 0 C0.66 0.33 1.32 0.66 2 1 C1.7834375 1.8353125 1.7834375 1.8353125 1.5625 2.6875 C0.97230872 5.11384195 0.476571 7.54906345 0 10 C-0.33 10 -0.66 10 -1 10 C-1 8.35 -1 6.7 -1 5 C-1.66 4.67 -2.32 4.34 -3 4 C-2.01 2.68 -1.02 1.36 0 0 Z " fill="#442E25" transform="translate(163,146)"/>
</svg>
