<?xml version="1.0" encoding="UTF-8"?>
<svg xmlns="http://www.w3.org/2000/svg" version="1.1" width="578" height="684" style="background-color:transparent;">
  <path d="M0 0 C43.23 0 86.46 0 131 0 C132.56711596 4.70134788 133.53948688 8.84480308 134.1484375 13.6875 C134.34902183 15.1948266 134.54962476 16.70215072 134.75024414 18.20947266 C134.85209015 18.9915509 134.95393616 19.77362915 135.05886841 20.57940674 C136.50256984 31.63370834 137.97533698 42.67079087 140.0625 53.625 C143.27476876 70.51323251 145.72067954 87.50678087 147.85131836 104.56225586 C149.06780517 114.0240952 150.79213616 123.38010348 152.60302734 132.74389648 C152.96234379 134.78598953 153.19945543 136.84865634 153.421875 138.91015625 C154.04804457 142.25677875 154.60058726 143.25835447 157.125 145.4375 C159.59692164 147.70052685 161.89312077 149.94421735 164.0625 152.5 C167.5611193 156.55934609 171.21013287 160.46651873 174.875 164.375 C179.54570489 169.35814502 184.16837092 174.37504207 188.71875 179.46875 C191.96820661 183.07431144 195.26912273 186.63178906 198.57666016 190.18408203 C199.54429512 191.22698849 200.50401089 192.27729002 201.45629883 193.33422852 C202.53289121 194.49595393 203.65160664 195.61942854 204.79956055 196.71069336 C210.54046327 202.48502201 211.93420457 208.48419658 213.5625 216.3125 C214.00200971 218.26904294 214.44152109 220.2255855 214.88116455 222.18209839 C215.32403687 224.17496283 215.75489711 226.17002353 216.18115234 228.16650391 C217.15295838 232.716086 218.15800391 237.25783709 219.16577148 241.79956055 C219.64349556 243.95532127 220.11820855 246.1117512 220.59008789 248.26879883 C222.92150625 258.85748287 225.50545746 269.38028101 228.09170532 279.90881348 C230.78872595 290.89805151 233.35395367 301.90404983 235.76171875 312.9609375 C237.55297299 321.12984421 239.49185568 329.25608731 241.48068237 337.37854004 C244.22031606 348.57019398 246.9332228 359.76723472 249.5 371 C249.75523437 372.08474609 250.01046875 373.16949219 250.2734375 374.28710938 C250.50289063 375.30611328 250.73234375 376.32511719 250.96875 377.375 C251.26942383 378.68597656 251.26942383 378.68597656 251.57617188 380.0234375 C252.74932344 388.2625296 251.69502735 396.55678716 250.95798683 404.79522705 C249.48048872 421.39266787 248.23027096 438.00631135 247.01953125 454.625 C246.88700266 456.44141495 246.88700266 456.44141495 246.75179672 458.29452515 C246.19521143 465.92782867 245.64126145 473.56132158 245.08825684 481.19488525 C240.79271207 540.46826893 236.39011367 599.73346544 232 659 C142.57 659 53.14 659 -39 659 C-36.75041793 646.62729861 -36.75041793 646.62729861 -35.65893555 642.3269043 C-35.41495529 641.35766525 -35.17097504 640.38842621 -34.91960144 639.38981628 C-34.66125015 638.3781691 -34.40289886 637.36652191 -34.13671875 636.32421875 C-33.72592827 634.69453911 -33.72592827 634.69453911 -33.30683899 633.03193665 C-32.43714635 629.58291592 -31.56278615 626.13510509 -30.6875 622.6875 C-26.77344996 607.25089274 -22.98045695 591.80541401 -19.50863647 576.26303101 C-18.4048852 571.35220867 -17.23947626 566.45619824 -16.0625 561.5625 C-15.69137085 560.01502075 -15.69137085 560.01502075 -15.31274414 558.4362793 C-13.60572114 551.37171426 -11.7972009 544.338236 -9.9375 537.3125 C-7.7495033 529.04211222 -5.75789083 520.74649853 -3.88989258 512.3984375 C-0.05115066 495.24952312 4.13261931 478.19365561 8.64013672 461.20825195 C9.92482237 456.33216774 11.17801846 451.45158238 12.265625 446.52734375 C12.43352539 445.7705835 12.60142578 445.01382324 12.77441406 444.23413086 C13.14119244 440.60167532 12.63933035 437.8834383 10.49609375 434.921875 C9.81675781 434.20515625 9.13742188 433.4884375 8.4375 432.75 C7.23480469 431.47382812 7.23480469 431.47382812 6.0078125 430.171875 C5.5427832 429.68525391 5.07775391 429.19863281 4.59863281 428.69726562 C2.72133427 426.70414108 0.88902703 424.67334237 -0.9453125 422.640625 C-2.35877784 421.09320433 -3.77284348 419.54633177 -5.1875 418 C-5.86433838 417.24557617 -6.54117676 416.49115234 -7.23852539 415.71386719 C-10.91416914 411.7440458 -13.53510581 409.13759022 -19 408 C-20.44632813 407.59587891 -20.44632813 407.59587891 -21.921875 407.18359375 C-23.81767285 406.68345923 -25.71350658 406.1834607 -27.609375 405.68359375 C-30 405 -30 405 -32 404 C-32.061875 404.9075 -32.12375 405.815 -32.1875 406.75 C-33.22604268 410.90417072 -34.38625366 411.77024162 -38 414 C-44.11074097 417.22857743 -50.17214564 417.76103243 -57 417 C-60.92487303 415.6099408 -61.70234554 414.61129548 -63.52734375 410.86328125 C-65.07753421 407.09108618 -65.89212435 403.26100762 -66.5625 399.25 C-66.68906982 398.55624268 -66.81563965 397.86248535 -66.94604492 397.14770508 C-67.51980311 393.97535391 -68.02232064 390.82122823 -68.421875 387.62109375 C-68.93770477 383.74478284 -68.93770477 383.74478284 -70 380 C-72.96707046 378.14083176 -72.96707046 378.14083176 -76 377 C-76.875 373.8125 -76.875 373.8125 -77 371 C-74.05393465 368.54722931 -71.53918788 367.43259359 -67.875 366.375 C-62.11219504 364.40006282 -58.4778924 361.27461487 -54.19140625 357.0234375 C-52.17641076 355.16288908 -50.50558567 354.06159211 -48 353 C-51.6727405 348.40907437 -54.13817198 346.70061371 -59.9375 345.5 C-65.77914794 344.19625367 -69.41655247 342.9218436 -73 338 C-74.64896884 334.89051591 -76.18431416 331.75512158 -77.68432617 328.57250977 C-82.71374199 318.10015623 -89.92332091 309.06927062 -96.89453125 299.83203125 C-97.55573975 298.95514648 -98.21694824 298.07826172 -98.89819336 297.17480469 C-100.17531459 295.48711825 -101.45828833 293.80383747 -102.74829102 292.12597656 C-113.76526568 277.65903159 -118.51506294 263.55900386 -121.3828125 245.8046875 C-122.442911 238.16868516 -122.442911 238.16868516 -125.05078125 231.00390625 C-126.46217886 228.02428906 -126.12474141 225.24327674 -126 222 C-122.04 221.01 -118.08 220.02 -114 219 C-114.06003016 215.2691257 -114.14708005 211.54222953 -114.25 207.8125 C-114.27126953 206.22985352 -114.27126953 206.22985352 -114.29296875 204.61523438 C-114.48199524 198.62309464 -114.76261344 195.48710363 -119 191 C-120.11681745 188.48418861 -120.89820961 185.88435185 -121.6875 183.25 C-122.748877 178.77786388 -122.748877 178.77786388 -125 175 C-125.39049682 171.80386839 -125.41833778 168.59158412 -125.5 165.375 C-125.55414063 164.48425781 -125.60828125 163.59351563 -125.6640625 162.67578125 C-125.74202062 158.8948122 -125.7616625 156.11445185 -123.58422852 152.9284668 C-121.81320373 151.12619853 -119.99105943 149.55333114 -118 148 C-117.16339844 147.26910156 -116.32679687 146.53820312 -115.46484375 145.78515625 C-106.11914377 139.41505781 -94.9726672 139.37716131 -84 141 C-75.85216595 144.14365251 -70.9347585 151.42646041 -67 159 C-67 159.66 -67 160.32 -67 161 C-59.41 160.67 -51.82 160.34 -44 160 C-41.55193015 152.70192078 -41.55193015 152.70192078 -39.421875 145.34765625 C-39.15181641 144.33767578 -38.88175781 143.32769531 -38.60351562 142.28710938 C-38.32185547 141.22298828 -38.04019531 140.15886719 -37.75 139.0625 C-37.13028097 136.74086603 -36.51048721 134.419252 -35.890625 132.09765625 C-35.57673828 130.9183252 -35.26285156 129.73899414 -34.93945312 128.52392578 C-33.47030016 123.01307498 -31.98473737 117.50666826 -30.5 112 C-29.916579 109.83335694 -29.33324589 107.66669021 -28.75 105.5 C-27.58333333 101.16666667 -26.41666667 96.83333333 -25.25 92.5 C-24.96116943 91.42717773 -24.67233887 90.35435547 -24.37475586 89.24902344 C-23.79228304 87.0855994 -23.20976362 84.92218791 -22.62719727 82.75878906 C-21.15531286 77.29261283 -19.68427657 71.82621082 -18.21484375 66.359375 C-12.25894888 44.20599303 -6.18564308 22.09158242 0 0 Z " fill="#E1E0EA" transform="translate(215,9)"/>
  <path d="M0 0 C0.33 0 0.66 0 1 0 C1.18273274 11.0315376 0.62691641 21.87963704 -0.25 32.87109375 C-0.38555675 34.62719895 -0.52052222 36.38334987 -0.654953 38.13954163 C-0.94515202 41.91927528 -1.23855363 45.69874059 -1.53451538 49.47802734 C-2.26056706 58.75605937 -2.96823416 68.03550208 -3.67598534 77.31494522 C-3.84345819 79.51056406 -4.0111149 81.70616888 -4.17894936 83.9017601 C-6.45836369 113.7385063 -8.56775739 143.58738725 -10.67797852 173.43649292 C-10.79914158 175.14982268 -10.79914158 175.14982268 -10.92275238 176.89776516 C-11.06963222 178.97541507 -11.21638738 181.0530738 -11.36295319 183.13074589 C-13.48043752 213.09526283 -15.73926077 243.04520514 -18 273 C-107.43 273 -196.86 273 -289 273 C-285.39177746 268.79040704 -281.80330227 264.64282403 -278.0625 260.5625 C-274.58437226 256.75213319 -271.15094882 252.91177826 -267.76953125 249.015625 C-265.74885044 246.71392236 -263.68687382 244.45235621 -261.625 242.1875 C-258.49577173 238.72469918 -255.49499651 235.19320997 -252.5625 231.5625 C-247.92708695 225.829657 -243.00900108 220.40637486 -238 215 C-238.49628906 214.25363281 -238.99257812 213.50726562 -239.50390625 212.73828125 C-241.56757124 208.96118162 -241.07786802 206.00140046 -240 202 C-237.90145102 196.13704357 -235.10154877 192.54890349 -230 189 C-229.34 189 -228.68 189 -228 189 C-227.26868552 184.63089689 -226.55350071 180.25937269 -225.84375 175.88671875 C-225.51088083 173.85267984 -225.17724633 171.81876815 -224.84326172 169.78491211 C-224.61299362 168.37791834 -224.38416982 166.97068749 -224.15673828 165.56323242 C-223.82701701 163.52458995 -223.49216011 161.48684937 -223.15625 159.44921875 C-222.95837891 158.23580811 -222.76050781 157.02239746 -222.55664062 155.7722168 C-222 153 -222 153 -221 152 C-202.90828862 150.56590093 -185.11005268 154.11097413 -171 166 C-170.09345323 160.67403774 -169.60553227 155.40652829 -170 150 C-170.33 149.67 -170.66 149.34 -171 149 C-171.7529987 144.33140808 -171.94033723 141.54670079 -169.44921875 137.44921875 C-167.52039199 135.06903947 -165.51527371 132.80119346 -163.41992188 130.56689453 C-161.91724959 128.9086843 -160.53153547 127.18630987 -159.140625 125.43359375 C-158.1161677 124.20440696 -157.09013985 122.97652733 -156.0625 121.75 C-155.6291333 121.18385986 -155.1957666 120.61771973 -154.74926758 120.03442383 C-148.73056844 113.14859846 -139.34600091 110.95378682 -131 108 C-128.54580823 107.11495326 -126.09215541 106.22849582 -123.63891602 105.34082031 C-113.70577838 101.7536219 -103.75695058 98.21043502 -93.80761719 94.66845703 C-90.2066127 93.38622633 -86.60693904 92.10031565 -83.00801849 90.81224823 C-81.65145221 90.32760665 -80.29436975 89.84440723 -78.93674469 89.36273956 C-77.0467765 88.69220247 -75.15860458 88.01660899 -73.27050781 87.34082031 C-72.20117004 86.96000305 -71.13183228 86.57918579 -70.03009033 86.18682861 C-65.00167901 84.21729577 -60.93615088 82.59547738 -57.7734375 78.11328125 C-57.22300781 77.34822266 -56.67257812 76.58316406 -56.10546875 75.79492188 C-55.53441406 74.97572266 -54.96335937 74.15652344 -54.375 73.3125 C-53.1335343 71.57890995 -51.89133541 69.84584476 -50.6484375 68.11328125 C-49.72562988 66.81511475 -49.72562988 66.81511475 -48.78417969 65.49072266 C-46.2474371 61.9494189 -43.62873984 58.47323304 -41 55 C-36.69117201 49.27761812 -32.42931458 43.5222017 -28.1875 37.75 C-21.41050462 28.53006816 -14.55987772 19.36627127 -7.671875 10.22900391 C-6.52915245 8.70548509 -5.39406293 7.176219 -4.265625 5.64208984 C-3.72421875 4.90812988 -3.1828125 4.17416992 -2.625 3.41796875 C-2.14289063 2.75949951 -1.66078125 2.10103027 -1.1640625 1.42260742 C-0.77992188 0.95314697 -0.39578125 0.48368652 0 0 Z " fill="#C3C2CA" transform="translate(465,395)"/>
  <path d="M0 0 C3.90685614 2.57686256 4.83719478 4.23606783 5.8125 8.8125 C5.91359848 10.53983978 5.9691914 12.26997849 6 14 C6.02707031 15.25039062 6.05414063 16.50078125 6.08203125 17.7890625 C6.18399616 25.23959406 5.99551896 32.60471628 5 40 C5.98226562 39.89171875 5.98226562 39.89171875 6.984375 39.78125 C25.74647887 37.87323944 25.74647887 37.87323944 30 40 C30.31954351 55.33808845 30.31954351 55.33808845 27.5546875 58.8203125 C25.54058255 61.64410788 25.11221335 64.17351122 24.4375 67.5625 C23.66612904 71.40192269 23.18756338 73.71865493 21 77 C13.92740054 78.82912055 7.95232694 75.47943955 2 72 C1.87705566 72.689729 1.75411133 73.37945801 1.62744141 74.09008789 C0.50059696 79.31610307 -1.28798829 84.35430134 -2.96337891 89.42553711 C-3.61174094 91.39717975 -4.24542698 93.37314415 -4.87890625 95.34960938 C-13.5802322 122.00415886 -13.5802322 122.00415886 -23 127 C-27.58253688 128.96978945 -32.23657884 130.52821225 -37 132 C-38.15242188 132.3609375 -39.30484375 132.721875 -40.4921875 133.09375 C-50.58421111 136.11449176 -61.39512142 139.32331947 -72 139 C-72.185625 140.175625 -72.185625 140.175625 -72.375 141.375 C-73 144 -73 144 -75 146 C-74.28563403 154.88492672 -66.05268927 162.21251115 -60.328125 168.43359375 C-36.52300857 194.67513988 -36.52300857 194.67513988 -35.83984375 206.85546875 C-35.89269531 207.56316406 -35.94554687 208.27085937 -36 209 C-35.443125 209.04125 -34.88625 209.0825 -34.3125 209.125 C-29.31757128 211.01497303 -26.56696807 216.56614607 -24 221 C-23.4225 221.66 -22.845 222.32 -22.25 223 C-21 225 -21 225 -20.99609375 227.26953125 C-22.49807247 231.3546796 -25.38325385 233.15433827 -28.8125 235.6875 C-29.44220703 236.17283203 -30.07191406 236.65816406 -30.72070312 237.15820312 C-38.3996444 243 -38.3996444 243 -43 243 C-42.61816791 262.08527599 -41.3581112 279.63793352 -36 298 C-35.31119169 300.66169137 -34.65497399 303.32972144 -34 306 C-23.79759104 305.97068273 -15.75620873 304.27516923 -6.36328125 300.375 C-3.86891197 299.35523463 -1.62470238 298.53158529 1 298 C0.61715131 303.3598816 -1.3753971 306.24921846 -5 310 C-5.4962085 310.52327881 -5.99241699 311.04655762 -6.50366211 311.58569336 C-14.80885809 320.12510092 -23.76696535 324.94125978 -35.83984375 325.3984375 C-37.87239568 325.40629024 -39.90506665 325.39831664 -41.9375 325.375 C-42.94490234 325.38660156 -43.95230469 325.39820313 -44.99023438 325.41015625 C-52.58320015 325.38085863 -60.12360946 324.43819527 -67 321 C-67.061875 321.9075 -67.12375 322.815 -67.1875 323.75 C-68.22604268 327.90417072 -69.38625366 328.77024162 -73 331 C-79.11074097 334.22857743 -85.17214564 334.76103243 -92 334 C-95.92487303 332.6099408 -96.70234554 331.61129548 -98.52734375 327.86328125 C-100.07753421 324.09108618 -100.89212435 320.26100762 -101.5625 316.25 C-101.68906982 315.55624268 -101.81563965 314.86248535 -101.94604492 314.14770508 C-102.51980311 310.97535391 -103.02232064 307.82122823 -103.421875 304.62109375 C-103.93770477 300.74478284 -103.93770477 300.74478284 -105 297 C-107.96707046 295.14083176 -107.96707046 295.14083176 -111 294 C-111.875 290.8125 -111.875 290.8125 -112 288 C-109.05393465 285.54722931 -106.53918788 284.43259359 -102.875 283.375 C-97.11219504 281.40006282 -93.4778924 278.27461487 -89.19140625 274.0234375 C-87.17641076 272.16288908 -85.50558567 271.06159211 -83 270 C-86.6727405 265.40907437 -89.13817198 263.70061371 -94.9375 262.5 C-100.77914794 261.19625367 -104.41655247 259.9218436 -108 255 C-109.64896884 251.89051591 -111.18431416 248.75512158 -112.68432617 245.57250977 C-117.71374199 235.10015623 -124.92332091 226.06927062 -131.89453125 216.83203125 C-132.55573975 215.95514648 -133.21694824 215.07826172 -133.89819336 214.17480469 C-135.17531459 212.48711825 -136.45828833 210.80383747 -137.74829102 209.12597656 C-148.76526568 194.65903159 -153.51506294 180.55900386 -156.3828125 162.8046875 C-157.442911 155.16868516 -157.442911 155.16868516 -160.05078125 148.00390625 C-161.46217886 145.02428906 -161.12474141 142.24327674 -161 139 C-157.04 138.01 -153.08 137.02 -149 136 C-149.06003016 132.2691257 -149.14708005 128.54222953 -149.25 124.8125 C-149.26417969 123.75740234 -149.27835938 122.70230469 -149.29296875 121.61523438 C-149.48199524 115.62309464 -149.76261344 112.48710363 -154 108 C-155.11681745 105.48418861 -155.89820961 102.88435185 -156.6875 100.25 C-157.748877 95.77786388 -157.748877 95.77786388 -160 92 C-160.39049682 88.80386839 -160.41833778 85.59158412 -160.5 82.375 C-160.55414063 81.48425781 -160.60828125 80.59351563 -160.6640625 79.67578125 C-160.74202062 75.8948122 -160.7616625 73.11445185 -158.58422852 69.9284668 C-156.81320373 68.12619853 -154.99105943 66.55333114 -153 65 C-152.16339844 64.26910156 -151.32679688 63.53820312 -150.46484375 62.78515625 C-141.11914377 56.41505781 -129.9726672 56.37716131 -119 58 C-110.85216595 61.14365251 -105.9347585 68.42646041 -102 76 C-102 76.66 -102 77.32 -102 78 C-87.02127939 79.12307468 -87.02127939 79.12307468 -73.59692383 73.80859375 C-71.51818468 71.87225289 -69.55594918 69.86133754 -67.64453125 67.75976562 C-65.16368244 65.10508062 -62.48366602 62.67863418 -59.81542969 60.21459961 C-57.62539222 58.18786297 -55.45831591 56.13920925 -53.296875 54.08203125 C-49.17350765 50.16110071 -45.03065051 46.26168146 -40.875 42.375 C-40.28412598 41.81965576 -39.69325195 41.26431152 -39.08447266 40.69213867 C-38.51776855 40.16209229 -37.95106445 39.6320459 -37.3671875 39.0859375 C-36.81385742 38.56781494 -36.26052734 38.04969238 -35.69042969 37.51586914 C-34.55645037 36.49898908 -33.38883197 35.51851119 -32.19238281 34.57592773 C-27.37905812 30.76851777 -24.77601569 26.74485579 -22 21.3125 C-21.14833315 19.71481076 -20.29416378 18.11845302 -19.4375 16.5234375 C-19.02628906 15.75225586 -18.61507812 14.98107422 -18.19140625 14.18652344 C-9.60880909 -1.56465282 -9.60880909 -1.56465282 0 0 Z " fill="#F4C357" transform="translate(250,92)"/>
  <path d="M0 0 C9.14369041 12.13001354 17.8118606 24.5595633 26.25 37.1875 C26.66716278 37.80945251 27.08432556 38.43140503 27.51412964 39.07220459 C32.11522133 45.93996815 36.59454729 52.86445753 40.85546875 59.94921875 C41.21308289 60.54349167 41.57069702 61.13776459 41.93914795 61.75004578 C52.02285173 78.69785934 53.21962894 90.18378953 49.6875 109.875 C49.45721903 111.20940416 49.22781483 112.54395992 48.99926758 113.87866211 C47.86037096 120.47086195 46.60829288 127.02548662 45.1875 133.5625 C43.82978167 140.02892119 43.44526096 146.40713982 44 153 C44.33 153.33 44.66 153.66 45 154 C45.52618714 159.70240021 44.83492674 164.60990271 43 170 C39.94941684 168.53767917 37.11650731 166.85634932 34.25 165.0625 C21.20367301 157.26883664 7.91320181 156.84803653 -7 157 C-7.14099121 157.87736816 -7.28198242 158.75473633 -7.42724609 159.65869141 C-7.95630373 162.93572898 -8.48984302 166.21197287 -9.02636719 169.48779297 C-9.25698953 170.90156606 -9.48585906 172.31562631 -9.71289062 173.72998047 C-10.04088309 175.77130202 -10.37531528 177.81148322 -10.7109375 179.8515625 C-10.90993652 181.07697754 -11.10893555 182.30239258 -11.31396484 183.56494141 C-13.06893953 192.35230576 -13.06893953 192.35230576 -16.875 195 C-18.421875 195.99 -18.421875 195.99 -20 197 C-23.88464421 201.96371204 -26.18229997 206.3110755 -25.75 212.6875 C-25.18129246 216.11510211 -25.18129246 216.11510211 -23 219 C-23.68964844 219.73863281 -24.37929687 220.47726562 -25.08984375 221.23828125 C-29.64958126 226.15096745 -34.1286576 231.07085594 -38.3125 236.3125 C-43.16554079 242.34601017 -48.46266962 247.92409575 -53.76953125 253.5546875 C-56.70262661 256.66958283 -59.5476202 259.84756268 -62.34375 263.0859375 C-64.47992508 265.5546304 -66.64190493 267.99901503 -68.8125 270.4375 C-69.56144531 271.28183594 -70.31039062 272.12617187 -71.08203125 272.99609375 C-73 275 -73 275 -75 276 C-74.68869141 274.68128906 -74.68869141 274.68128906 -74.37109375 273.3359375 C-72.40761089 265.00813758 -70.45837498 256.6771366 -68.51977539 248.34350586 C-63.73022188 227.76998854 -58.87399601 207.2272309 -53.53295898 186.78857422 C-51.13729607 177.5960526 -48.89047337 168.37684827 -46.73046875 159.12646484 C-45.86527753 155.42337701 -44.99546216 151.72138269 -44.125 148.01953125 C-43.95833832 147.31070801 -43.79167664 146.60188477 -43.6199646 145.87158203 C-41.90410019 138.57494798 -40.18728715 131.27853782 -38.46740723 123.98284912 C-38.03372637 122.14307501 -37.60034658 120.30322994 -37.16699219 118.46337891 C-34.06753121 105.33103757 -30.82006201 92.24759804 -27.35913086 79.20532227 C-26.07464555 74.33022651 -24.82176424 69.45059856 -23.734375 64.52734375 C-23.56647461 63.7705835 -23.39857422 63.01382324 -23.22558594 62.23413086 C-22.85880756 58.60167532 -23.36066965 55.8834383 -25.50390625 52.921875 C-26.18324219 52.20515625 -26.86257812 51.4884375 -27.5625 50.75 C-28.35785156 49.89921875 -29.15320313 49.0484375 -29.97265625 48.171875 C-30.98151624 47.1143404 -31.99066437 46.05708065 -33 45 C-35.10375643 42.77720225 -37.20478819 40.55186752 -39.30444336 38.32519531 C-40.75888982 36.78486972 -42.21669859 35.24771151 -43.67797852 33.71386719 C-44.35143311 33.00391602 -45.0248877 32.29396484 -45.71875 31.5625 C-46.32654297 30.92441406 -46.93433594 30.28632813 -47.56054688 29.62890625 C-49 28 -49 28 -50 26 C-48.76765625 25.97421875 -47.5353125 25.9484375 -46.265625 25.921875 C-30.59432382 25.44929377 -19.1228857 23.18591082 -7.73828125 11.72265625 C-4.256074 7.96537338 -1.70525119 4.88438784 0 0 Z " fill="#A7D5E6" transform="translate(251,391)"/>
  <path d="M0 0 C3.90685614 2.57686256 4.83719478 4.23606783 5.8125 8.8125 C5.91359848 10.53983978 5.9691914 12.26997849 6 14 C6.02707031 15.25039062 6.05414063 16.50078125 6.08203125 17.7890625 C6.18399616 25.23959406 5.99551896 32.60471628 5 40 C5.98226562 39.89171875 5.98226562 39.89171875 6.984375 39.78125 C25.74647887 37.87323944 25.74647887 37.87323944 30 40 C30.31954351 55.33808845 30.31954351 55.33808845 27.5546875 58.8203125 C25.54058255 61.64410788 25.11221335 64.17351122 24.4375 67.5625 C23.66612904 71.40192269 23.18756338 73.71865493 21 77 C13.92740054 78.82912055 7.95232694 75.47943955 2 72 C1.87705566 72.689729 1.75411133 73.37945801 1.62744141 74.09008789 C0.50059696 79.31610307 -1.28798829 84.35430134 -2.96337891 89.42553711 C-3.61174094 91.39717975 -4.24542698 93.37314415 -4.87890625 95.34960938 C-13.5802322 122.00415886 -13.5802322 122.00415886 -23 127 C-27.58253688 128.96978945 -32.23657884 130.52821225 -37 132 C-38.15242188 132.3609375 -39.30484375 132.721875 -40.4921875 133.09375 C-50.58421111 136.11449176 -61.39512142 139.32331947 -72 139 C-72.33 140.32 -72.66 141.64 -73 143 C-73 142.01 -73 141.02 -73 140 C-75.97 140.33 -78.94 140.66 -82 141 C-90.65703664 130.09213384 -93.23996869 116.67821536 -93 103 C-92.67 103.66 -92.34 104.32 -92 105 C-89.69 105 -87.38 105 -85 105 C-90.72281203 101.95428954 -90.72281203 101.95428954 -97 101.125 C-99.17871814 101.82394929 -99.17871814 101.82394929 -100 104 C-102.15234375 104.30859375 -102.15234375 104.30859375 -104.9375 104.4375 C-114.2592339 105.16292676 -121.54331351 106.98988324 -128 114 C-131.08031905 117.60380797 -134.04375999 121.29421687 -137 125 C-138.23700969 126.53141799 -139.48567449 128.05355499 -140.75 129.5625 C-141.26046875 130.18253906 -141.7709375 130.80257812 -142.296875 131.44140625 C-144.35949005 133.32898287 -146.37267445 134.10188361 -149 135 C-149.01401855 134.03960815 -149.01401855 134.03960815 -149.02832031 133.05981445 C-149.08218847 130.14327625 -149.16580199 127.22831375 -149.25 124.3125 C-149.26417969 123.30509766 -149.27835938 122.29769531 -149.29296875 121.25976562 C-149.48716788 115.37553206 -149.87726053 112.42644035 -154 108 C-155.11579824 105.48368981 -155.89819225 102.88440978 -156.6875 100.25 C-157.748877 95.77786388 -157.748877 95.77786388 -160 92 C-160.39049682 88.80386839 -160.41833778 85.59158412 -160.5 82.375 C-160.55414063 81.48425781 -160.60828125 80.59351563 -160.6640625 79.67578125 C-160.74202062 75.8948122 -160.7616625 73.11445185 -158.58422852 69.9284668 C-156.81320373 68.12619853 -154.99105943 66.55333114 -153 65 C-152.16339844 64.26910156 -151.32679688 63.53820312 -150.46484375 62.78515625 C-141.11914377 56.41505781 -129.9726672 56.37716131 -119 58 C-110.85216595 61.14365251 -105.9347585 68.42646041 -102 76 C-102 76.66 -102 77.32 -102 78 C-87.02127939 79.12307468 -87.02127939 79.12307468 -73.59692383 73.80859375 C-71.51818468 71.87225289 -69.55594918 69.86133754 -67.64453125 67.75976562 C-65.16368244 65.10508062 -62.48366602 62.67863418 -59.81542969 60.21459961 C-57.62539222 58.18786297 -55.45831591 56.13920925 -53.296875 54.08203125 C-49.17350765 50.16110071 -45.03065051 46.26168146 -40.875 42.375 C-40.28412598 41.81965576 -39.69325195 41.26431152 -39.08447266 40.69213867 C-38.51776855 40.16209229 -37.95106445 39.6320459 -37.3671875 39.0859375 C-36.81385742 38.56781494 -36.26052734 38.04969238 -35.69042969 37.51586914 C-34.55645037 36.49898908 -33.38883197 35.51851119 -32.19238281 34.57592773 C-27.37905812 30.76851777 -24.77601569 26.74485579 -22 21.3125 C-21.14833315 19.71481076 -20.29416378 18.11845302 -19.4375 16.5234375 C-19.02628906 15.75225586 -18.61507812 14.98107422 -18.19140625 14.18652344 C-9.60880909 -1.56465282 -9.60880909 -1.56465282 0 0 Z " fill="#F1AC95" transform="translate(250,92)"/>
  <path d="M0 0 C7.09548456 6.70718606 9.76417376 18.97395529 13.0625 27.875 C17.06012348 38.58711884 21.27112345 49.18034674 25.78979492 59.6862793 C26.37724487 61.06360229 26.37724487 61.06360229 26.9765625 62.46875 C27.32025879 63.26345703 27.66395508 64.05816406 28.01806641 64.87695312 C28.91594617 67.29790301 29.43557681 69.64660998 29.875 72.1875 C30.473125 72.22875 31.07125 72.27 31.6875 72.3125 C33.875 73.1875 33.875 73.1875 35.6875 75.875 C37.05908442 79.70099864 36.91157832 81.3003313 35.875 85.1875 C30.10347774 93.47222342 21.66854907 101.16112102 11.875 104.1875 C8.80071832 104.65763981 5.79389336 104.74231725 2.6875 104.75 C1.89408203 104.78673828 1.10066406 104.82347656 0.28320312 104.86132812 C-2.00708051 104.87863505 -3.91630147 104.79740263 -6.125 104.1875 C-9.16514147 100.84191261 -10.52861524 97.88056644 -11.125 93.4375 C-11.72216257 89.90166901 -12.55780448 86.90627431 -14 83.625 C-17.06106383 76.45566628 -18.46991232 68.7762531 -20.125 61.1875 C-20.785 61.1875 -21.445 61.1875 -22.125 61.1875 C-23.55652105 63.11838886 -24.87936496 65.05037075 -26.1875 67.0625 C-33.66230791 78.18252358 -43.22483934 88.91902185 -53.75390625 97.2734375 C-55.94081823 99.0388195 -57.55987107 100.75685115 -59.3125 102.9375 C-63.3870678 107.71642416 -68.15635592 111.38512929 -73.125 115.1875 C-74.36056641 116.22777344 -74.36056641 116.22777344 -75.62109375 117.2890625 C-78.07834116 119.15212372 -80.18978301 120.23239472 -83.0625 121.3125 C-83.87589844 121.62445313 -84.68929687 121.93640625 -85.52734375 122.2578125 C-86.38457031 122.56460938 -87.24179688 122.87140625 -88.125 123.1875 C-89.05699219 123.55359375 -89.98898438 123.9196875 -90.94921875 124.296875 C-94.68714461 125.34514941 -98.15740075 125.40930967 -102 125.3125 C-102.68835938 125.30347656 -103.37671875 125.29445313 -104.0859375 125.28515625 C-105.76577838 125.26182513 -107.44543746 125.22596326 -109.125 125.1875 C-112.25765793 117.99987877 -114.51414489 110.86050807 -116.125 103.1875 C-116.33253906 102.22199219 -116.54007813 101.25648438 -116.75390625 100.26171875 C-118.98739941 87.71979563 -118.30346435 74.87494242 -118.125 62.1875 C-117.12158569 61.722229 -117.12158569 61.722229 -116.09790039 61.24755859 C-111.22125048 58.91310996 -107.26732168 56.83915468 -103.5625 52.8125 C-99.78667811 49.26229839 -99.78667811 49.26229839 -96.87890625 48.93359375 C-94.625 49.25 -94.625 49.25 -92.65625 49.78515625 C-88.4852153 50.44814479 -85.16157714 50.63934046 -81.125 49.1875 C-77.08792463 46.08870861 -73.69054621 42.41945532 -70.25 38.6875 C-63.27929299 31.28341921 -56.15215196 24.46069727 -48.125 18.1875 C-47.09013174 17.3449941 -46.05603751 16.5015344 -45.0234375 15.65625 C-39.42079967 11.28515176 -33.68330676 7.62418721 -27.4375 4.25 C-26.74897949 3.87230469 -26.06045898 3.49460937 -25.35107422 3.10546875 C-17.91384137 -0.77698288 -7.72854349 -4.48255522 0 0 Z " fill="#A7D5E7" transform="translate(325.125,272.8125)"/>
  <path d="M0 0 C42.9 0 85.8 0 130 0 C135 32 135 32 137 45 C137.53673951 48.36263241 138.07635026 51.72461414 138.62109375 55.0859375 C144.27012461 90.13308253 144.27012461 90.13308253 146.00097656 104.47192383 C146.93077974 111.98248917 148.27031287 119.40119603 149.73120117 126.82568359 C150.59379444 131.29092192 151.21787898 135.42454152 151 140 C150.071875 139.195625 149.14375 138.39125 148.1875 137.5625 C145.15454508 134.95415877 142.0583466 132.43971724 138.9375 129.9375 C133.81209706 125.76827649 129.00170168 121.32649088 124.19311523 116.79858398 C120.73025347 113.55525602 117.20758789 110.46607031 113.5 107.5 C108.4956568 103.49652544 103.85300698 99.18663292 99.19140625 94.796875 C95.72903789 91.55421929 92.20694897 88.46555917 88.5 85.5 C83.56239153 81.54991322 78.95144526 77.32296639 74.38476562 72.95507812 C71.08880216 69.83237916 67.68983919 66.94689428 64.12573242 64.1328125 C57.04783312 58.35769668 50.67211953 51.94262084 44.23828125 45.46875 C42.95399471 44.1832685 41.66933514 42.8981596 40.38432312 41.61340332 C37.71639593 38.94392508 35.05182316 36.27116081 32.38989258 33.59570312 C28.97076943 30.15942736 25.54493495 26.72993654 22.11684895 23.30260468 C19.47527511 20.66075997 16.83630652 18.01632624 14.19823265 15.37098694 C12.9344823 14.1040493 11.67012085 12.83772092 10.40514565 11.57200623 C8.65077757 9.8154845 6.89973193 8.05572081 5.1496582 6.29492188 C4.62459686 5.77031372 4.09953552 5.24570557 3.55856323 4.7052002 C0 1.1144903 0 1.1144903 0 0 Z " fill="#C3C2CB" transform="translate(217,10)"/>
  <path d="M0 0 C3.35970571 3.35970571 5.62248388 6.89338126 8 11 C8.5775 11.66 9.155 12.32 9.75 13 C11 15 11 15 11.00390625 17.26953125 C9.50192753 21.3546796 6.61674615 23.15433827 3.1875 25.6875 C2.55779297 26.17283203 1.92808594 26.65816406 1.27929688 27.15820312 C-6.3996444 33 -6.3996444 33 -11 33 C-10.61816791 52.08527599 -9.3581112 69.63793352 -4 88 C-3.31119169 90.66169137 -2.65497399 93.32972144 -2 96 C8.20240896 95.97068273 16.24379127 94.27516923 25.63671875 90.375 C28.13108803 89.35523463 30.37529762 88.53158529 33 88 C32.61715131 93.3598816 30.6246029 96.24921846 27 100 C26.5037915 100.52327881 26.00758301 101.04655762 25.49633789 101.58569336 C17.19114191 110.12510092 8.23303465 114.94125978 -3.83984375 115.3984375 C-5.87239568 115.40629024 -7.90506665 115.39831664 -9.9375 115.375 C-10.94490234 115.38660156 -11.95230469 115.39820313 -12.99023438 115.41015625 C-20.58320015 115.38085863 -28.12360946 114.43819527 -35 111 C-35.0928125 112.36125 -35.0928125 112.36125 -35.1875 113.75 C-36.22604268 117.90417072 -37.38625366 118.77024162 -41 121 C-47.11074097 124.22857743 -53.17214564 124.76103243 -60 124 C-63.92487303 122.6099408 -64.70234554 121.61129548 -66.52734375 117.86328125 C-68.07753421 114.09108618 -68.89212435 110.26100762 -69.5625 106.25 C-69.68906982 105.55624268 -69.81563965 104.86248535 -69.94604492 104.14770508 C-70.51980311 100.97535391 -71.02232064 97.82122823 -71.421875 94.62109375 C-71.93770477 90.74478284 -71.93770477 90.74478284 -73 87 C-75.96707046 85.14083176 -75.96707046 85.14083176 -79 84 C-79.875 80.8125 -79.875 80.8125 -80 78 C-77.05393465 75.54722931 -74.53918788 74.43259359 -70.875 73.375 C-65.11219504 71.40006282 -61.4778924 68.27461487 -57.19140625 64.0234375 C-55.17641076 62.16288908 -53.50558567 61.06159211 -51 60 C-51.44472656 59.62488281 -51.88945312 59.24976563 -52.34765625 58.86328125 C-53.19650391 58.09564453 -53.19650391 58.09564453 -54.0625 57.3125 C-54.63097656 56.81363281 -55.19945312 56.31476563 -55.78515625 55.80078125 C-57 54 -57 54 -56.84375 51.6171875 C-49.88691164 30.03810555 -28.00302914 11.69975994 -8.6875 1.19921875 C-5.40753498 -0.26437029 -3.54535226 -0.67889724 0 0 Z " fill="#79766F" transform="translate(218,302)"/>
  <path d="M0 0 C5.06054538 4.19450058 9.61863079 8.59993252 14.0625 13.4375 C14.64837891 14.06720703 15.23425781 14.69691406 15.83789062 15.34570312 C17.00074896 16.60148688 18.1554113 17.8649157 19.30126953 19.13623047 C20.44283102 20.38869963 21.61140049 21.61702637 22.80419922 22.82080078 C26.99356707 27.22054382 26.99356707 27.22054382 27.0234375 30.83984375 C26.68570313 31.88269531 26.34796875 32.92554688 26 34 C25.62914248 35.47826971 25.26805873 36.95900843 24.9140625 38.44140625 C24.6032373 39.67322632 24.6032373 39.67322632 24.28613281 40.92993164 C21.53980486 51.86554994 19.6767734 62.763966 18.30957031 73.95141602 C17.99807921 76.01271085 17.53827824 77.98712268 17 80 C15.68 80 14.36 80 13 80 C12.10269516 84.62291456 11.83575524 89.04313941 11.8125 93.75 C11.79832031 95.06484375 11.78414063 96.3796875 11.76953125 97.734375 C11.6473716 101.08442008 11.6473716 101.08442008 14 103 C14.2838264 109.17660306 12.60330983 115.66844388 11.5625 121.75 C11.44044189 122.4706665 11.31838379 123.19133301 11.19262695 123.93383789 C10.45278767 128.0891325 9.62431898 132.08286976 8 136 C6.02678947 137.3726682 4.02456848 138.70427617 2 140 C-1.88464421 144.96371204 -4.18229997 149.3110755 -3.75 155.6875 C-3.18129246 159.11510211 -3.18129246 159.11510211 -1 162 C-1.68964844 162.73863281 -2.37929687 163.47726562 -3.08984375 164.23828125 C-7.64958126 169.15096745 -12.1286576 174.07085594 -16.3125 179.3125 C-21.16554079 185.34601017 -26.46266962 190.92409575 -31.76953125 196.5546875 C-34.70262661 199.66958283 -37.5476202 202.84756268 -40.34375 206.0859375 C-42.47992508 208.5546304 -44.64190493 210.99901503 -46.8125 213.4375 C-47.56144531 214.28183594 -48.31039062 215.12617187 -49.08203125 215.99609375 C-51 218 -51 218 -53 219 C-52.79246094 218.12085938 -52.58492187 217.24171875 -52.37109375 216.3359375 C-50.40761089 208.00813758 -48.45837498 199.6771366 -46.51977539 191.34350586 C-41.73022188 170.76998854 -36.87399601 150.2272309 -31.53295898 129.78857422 C-29.13729607 120.5960526 -26.89047337 111.37684827 -24.73046875 102.12646484 C-23.86527753 98.42337701 -22.99546216 94.72138269 -22.125 91.01953125 C-21.95833832 90.31070801 -21.79167664 89.60188477 -21.6199646 88.87158203 C-19.90410019 81.57494798 -18.18728715 74.27853782 -16.46740723 66.98284912 C-16.03372637 65.14307501 -15.60034658 63.30322994 -15.16699219 61.46337891 C-12.08885082 48.42136825 -8.86500727 35.42648667 -5.44702148 22.46899414 C-3.48660742 15.01023574 -1.69529545 7.52340071 0 0 Z " fill="#E2E1EA" transform="translate(229,448)"/>
  <path d="M0 0 C1.09055613 4.55548761 1.15624597 9.08988708 1.125 13.75 C1.12306641 14.44867188 1.12113281 15.14734375 1.11914062 15.8671875 C1.07415481 21.28547879 0.72331133 26.62683014 0 32 C0.98226562 31.89171875 0.98226562 31.89171875 1.984375 31.78125 C20.74647887 29.87323944 20.74647887 29.87323944 25 32 C25.31954351 47.33808845 25.31954351 47.33808845 22.5546875 50.8203125 C20.54058255 53.64410788 20.11221335 56.17351122 19.4375 59.5625 C18.66612904 63.40192269 18.18756338 65.71865493 16 69 C8.92740054 70.82912055 2.95232694 67.47943955 -3 64 C-3.12294434 64.689729 -3.24588867 65.37945801 -3.37255859 66.09008789 C-4.49940304 71.31610307 -6.28798829 76.35430134 -7.96337891 81.42553711 C-8.61174094 83.39717975 -9.24542698 85.37314415 -9.87890625 87.34960938 C-18.5802322 114.00415886 -18.5802322 114.00415886 -28 119 C-32.58253688 120.96978945 -37.23657884 122.52821225 -42 124 C-43.15242188 124.3609375 -44.30484375 124.721875 -45.4921875 125.09375 C-55.58421111 128.11449176 -66.39512142 131.32331947 -77 131 C-77.33 132.32 -77.66 133.64 -78 135 C-78 134.01 -78 133.02 -78 132 C-80.97 132.33 -83.94 132.66 -87 133 C-95.65703664 122.09213384 -98.23996869 108.67821536 -98 95 C-97.67 95.66 -97.34 96.32 -97 97 C-96.05125 96.979375 -95.1025 96.95875 -94.125 96.9375 C-91 97 -91 97 -89 98 C-84.68758863 98.22305576 -81.65044448 98.19232412 -77.47265625 96.95703125 C-72.97384588 95.77112391 -68.83175038 96.0650782 -64.22045898 96.33691406 C-54.81926499 96.98502307 -54.81926499 96.98502307 -45.9609375 94.484375 C-44.07401412 92.40074532 -42.59616786 90.30926957 -41.18066406 87.88476562 C-39.71621602 85.54697843 -38.06057436 83.41195265 -36.3671875 81.234375 C-24.19582204 65.65425391 -24.19582204 65.65425391 -16 47.8125 C-13.90699495 41.79141074 -11.64495189 37.42376371 -7 33 C-7.84304687 33.02320313 -8.68609375 33.04640625 -9.5546875 33.0703125 C-11.19824219 33.09738281 -11.19824219 33.09738281 -12.875 33.125 C-13.96554688 33.14820313 -15.05609375 33.17140625 -16.1796875 33.1953125 C-19 33 -19 33 -21 31 C-21 30.01 -21 29.02 -21 28 C-20.43152344 27.731875 -19.86304688 27.46375 -19.27734375 27.1875 C-12.80559649 23.90300723 -7.04050664 19.82798446 -4.125 12.9296875 C-3.48187291 10.84087543 -3.48187291 10.84087543 -3 8 C-3.66 8 -4.32 8 -5 8 C-5.99 9.2375 -5.99 9.2375 -7 10.5 C-7.99 11.7375 -7.99 11.7375 -9 13 C-9.66 13 -10.32 13 -11 13 C-10.94011859 10.87420987 -10.85137256 8.74921587 -10.75 6.625 C-10.70359375 5.44164063 -10.6571875 4.25828125 -10.609375 3.0390625 C-10 0 -10 0 -8.0859375 -1.43359375 C-4.88563212 -2.30259053 -2.88888221 -1.44444111 0 0 Z " fill="#F1AC95" transform="translate(255,100)"/>
  <path d="M0 0 C1.11568359 0.26490234 1.11568359 0.26490234 2.25390625 0.53515625 C4.70709894 1.04286048 6.47214274 0.77979038 8.9375 0.4375 C13.46614624 0.38217622 15.43934029 2.28572939 18.625 5.375 C28.94408551 16.7483574 39.40756429 31.52058862 38.99609375 47.51953125 C37.35388141 55.73059297 27.72180085 61.23862186 21.5 66 C20.26443359 67.04027344 20.26443359 67.04027344 19.00390625 68.1015625 C16.54665884 69.96462372 14.43521699 71.04489472 11.5625 72.125 C10.74910156 72.43695313 9.93570313 72.74890625 9.09765625 73.0703125 C8.24042969 73.37710938 7.38320312 73.68390625 6.5 74 C5.56800781 74.36609375 4.63601562 74.7321875 3.67578125 75.109375 C-0.06214461 76.15764941 -3.53240075 76.22180967 -7.375 76.125 C-8.06335938 76.11597656 -8.75171875 76.10695313 -9.4609375 76.09765625 C-11.14077838 76.07432513 -12.82043746 76.03846326 -14.5 76 C-17.63265793 68.81237877 -19.88914489 61.67300807 -21.5 54 C-21.70753906 53.03449219 -21.91507813 52.06898438 -22.12890625 51.07421875 C-24.36239941 38.53229563 -23.67846435 25.68744242 -23.5 13 C-22.49658569 12.534729 -22.49658569 12.534729 -21.47290039 12.06005859 C-16.59625048 9.72560996 -12.64232168 7.65165468 -8.9375 3.625 C-5.85075358 0.72812374 -4.273324 -0.54805195 0 0 Z " fill="#A7D4E6" transform="translate(230.5,322)"/>
  <path d="M0 0 C7.41660798 0.03811207 14.49449947 0.94188289 21.8125 2.1875 C21.544375 3.38375 21.27625 4.58 21 5.8125 C20.82082031 6.64910156 20.64164062 7.48570312 20.45703125 8.34765625 C20.02241146 10.26261741 19.53927159 12.16712379 19.01171875 14.05859375 C14.78280666 30.43310169 14.06741465 48.3349852 22.8125 63.1875 C23.70428476 64.77018041 24.59481942 66.35356559 25.484375 67.9375 C27.33240029 71.19402193 29.21267161 74.4277128 31.12890625 77.64453125 C32.97612545 80.76276665 34.8185699 83.88301935 36.62109375 87.02734375 C37.03029053 87.73624756 37.4394873 88.44515137 37.86108398 89.17553711 C39.3523175 92.32905402 39.33637852 94.78228963 38.8125 98.1875 C37.75 101.0625 37.75 101.0625 35.8125 103.1875 C31.58389494 104.62522572 28.61546272 104.37699579 24.5625 102.75 C12.72617873 96.8418194 0.97585696 86.97584749 -7.26171875 76.56640625 C-9.44741926 73.86642327 -11.82063425 71.93994205 -14.5625 69.8125 C-24.23985036 61.96424669 -24.23985036 61.96424669 -26.1875 58.1875 C-26.37765734 52.19754386 -24.55891268 47.14421645 -21.1875 42.1875 C-19.2847717 40.17771281 -17.48411667 38.78514638 -15.1875 37.1875 C-14.5275 37.1875 -13.8675 37.1875 -13.1875 37.1875 C-12.45618552 32.81839689 -11.74100071 28.44687269 -11.03125 24.07421875 C-10.69838083 22.04017984 -10.36474633 20.00626815 -10.03076172 17.97241211 C-9.80049362 16.56541834 -9.57166982 15.15818749 -9.34423828 13.75073242 C-9.01451701 11.71208995 -8.67966011 9.67434937 -8.34375 7.63671875 C-8.14587891 6.42330811 -7.94800781 5.20989746 -7.74414062 3.9597168 C-6.75437308 -0.96958605 -4.67080771 0.02592013 0 0 Z " fill="#F3C258" transform="translate(250.1875,546.8125)"/>
  <path d="M0 0 C1.74031275 2.61046913 2.65221308 4.54226893 3.65625 7.45703125 C3.95660156 8.32263672 4.25695312 9.18824219 4.56640625 10.08007812 C5.02853516 11.43262695 5.02853516 11.43262695 5.5 12.8125 C5.80808594 13.70259766 6.11617188 14.59269531 6.43359375 15.50976562 C7.98379874 19.9973762 9.5021525 24.49462808 11 29 C15.48422272 28.88153302 19.96823642 28.75727003 24.45214844 28.62768555 C25.97684386 28.58443293 27.50158469 28.54275115 29.02636719 28.50268555 C31.22084222 28.44474797 33.41509068 28.38112205 35.609375 28.31640625 C36.62834869 28.29133751 36.62834869 28.29133751 37.66790771 28.26576233 C40.91630461 28.16458518 43.87983824 27.92065842 47 27 C51.38718005 26.63154543 55.21101406 26.47400937 59 29 C59.125 35.75 59.125 35.75 58 38 C58.68964844 37.4946875 59.37929688 36.989375 60.08984375 36.46875 C69.5892985 29.90122573 69.5892985 29.90122573 75.98828125 30.4296875 C79.56561532 31.44384434 81.44987375 33.32236743 84 36 C85.47896861 38.95793723 85.4355582 40.70220224 85 44 C81.30976625 50.86625461 74.92639867 53.2877495 68 56 C66.9275 56.46792969 65.855 56.93585938 64.75 57.41796875 C58.33030331 60.12060049 52.02864552 62.55329183 45 61 C41.58237722 58.97856414 41.07833949 58.23110151 39.75 54.3125 C39.5025 53.219375 39.255 52.12625 39 51 C33.71486797 54.46534298 28.43929102 57.92872408 23.33203125 61.65234375 C22.72439941 62.09465332 22.11676758 62.53696289 21.49072266 62.99267578 C20.31805055 63.85098412 19.14949809 64.71495939 17.98583984 65.58544922 C11.59581224 70.25920141 5.97501077 72.91516517 -2 72 C-5.4421488 69.55426269 -6.76111456 66.97297744 -8 63 C-8.23383335 60.05693746 -8.18928904 57.13737775 -8.125 54.1875 C-8.11597656 53.39923828 -8.10695313 52.61097656 -8.09765625 51.79882812 C-8.07422504 49.86575334 -8.03835838 47.9328362 -8 46 C-7.34 46 -6.68 46 -6 46 C-9.31197524 36.87690336 -12.8019504 27.89544963 -16.81469727 19.0546875 C-19 14.19928159 -19 14.19928159 -19 12 C-18.04738281 11.55269531 -17.09476562 11.10539062 -16.11328125 10.64453125 C-14.84609015 10.0344022 -13.57917772 9.42369415 -12.3125 8.8125 C-11.68666016 8.52052734 -11.06082031 8.22855469 -10.41601562 7.92773438 C-6.12366654 5.83774241 -3.20286905 3.54581487 0 0 Z " fill="#F4C357" transform="translate(354,365)"/>
  <path d="M0 0 C3.35970571 3.35970571 5.62248388 6.89338126 8 11 C8.5775 11.66 9.155 12.32 9.75 13 C11 15 11 15 11.00390625 17.26953125 C9.50192753 21.3546796 6.61674615 23.15433827 3.1875 25.6875 C2.24293945 26.41549805 2.24293945 26.41549805 1.27929688 27.15820312 C-6.3996444 33 -6.3996444 33 -11 33 C-10.61816791 52.08527599 -9.3581112 69.63793352 -4 88 C-3.31119169 90.66169137 -2.65497399 93.32972144 -2 96 C8.20240896 95.97068273 16.24379127 94.27516923 25.63671875 90.375 C28.13108803 89.35523463 30.37529762 88.53158529 33 88 C32.61715131 93.3598816 30.6246029 96.24921846 27 100 C26.5037915 100.52327881 26.00758301 101.04655762 25.49633789 101.58569336 C17.19114191 110.12510092 8.23303465 114.94125978 -3.83984375 115.3984375 C-5.87239568 115.40629024 -7.90506665 115.39831664 -9.9375 115.375 C-10.94490234 115.38660156 -11.95230469 115.39820313 -12.99023438 115.41015625 C-20.58320015 115.38085863 -28.12360946 114.43819527 -35 111 C-35.59423828 108.91455078 -35.59423828 108.91455078 -36.0703125 106.1953125 C-36.24433594 105.21949219 -36.41835937 104.24367188 -36.59765625 103.23828125 C-36.77167969 102.21089844 -36.94570312 101.18351562 -37.125 100.125 C-37.30675781 99.10535156 -37.48851562 98.08570313 -37.67578125 97.03515625 C-39 89.4781485 -39 89.4781485 -39 86 C-34.93503739 87.31069374 -31.00850509 88.80729713 -27.0625 90.4375 C-19.82872941 93.26084233 -12.63270779 94.70148955 -5 96 C-5.45246094 95.01257813 -5.90492188 94.02515625 -6.37109375 93.0078125 C-8.06585007 89.04508809 -9.11499161 85.07055155 -10.0625 80.875 C-10.22298828 80.2046875 -10.38347656 79.534375 -10.54882812 78.84375 C-13.58562617 65.72087972 -14.18501645 53.288177 -13.83398438 39.84960938 C-13.81529297 38.60630859 -13.79660156 37.36300781 -13.77734375 36.08203125 C-13.74890381 34.96030518 -13.72046387 33.8385791 -13.69116211 32.68286133 C-13.79307861 31.79751709 -13.89499512 30.91217285 -14 30 C-14.99 29.34 -15.98 28.68 -17 28 C-26.71648635 36.663867 -35.27823034 45.67687089 -43.3359375 55.93359375 C-45 58 -45 58 -47 60 C-50.57490748 59.90338088 -52.03333435 58.97391225 -54.875 56.75 C-57 54 -57 54 -56.79296875 51.65234375 C-50.35440278 30.11645066 -27.73630758 11.55476155 -8.6875 1.19921875 C-5.40753498 -0.26437029 -3.54535226 -0.67889724 0 0 Z " fill="#342018" transform="translate(218,302)"/>
  <path d="M0 0 C5.9872512 3.93289298 10.25241746 10.35664769 13.52734375 16.66015625 C13.52734375 17.32015625 13.52734375 17.98015625 13.52734375 18.66015625 C9.00628992 22.32005697 7.64735661 22.66015625 1.52734375 22.66015625 C1.52734375 27.61015625 1.52734375 32.56015625 1.52734375 37.66015625 C-0.45265625 37.66015625 -2.43265625 37.66015625 -4.47265625 37.66015625 C-4.6428125 37.11746094 -4.81296875 36.57476562 -4.98828125 36.015625 C-6.11261033 32.69646202 -6.98606382 30.17814174 -9.41015625 27.59765625 C-11.42019654 26.47984337 -11.42019654 26.47984337 -13.59765625 26.84765625 C-15.66437054 27.60676461 -15.66437054 27.60676461 -17.47265625 29.66015625 C-17.75937348 31.46444748 -17.97813586 33.27981627 -18.16015625 35.09765625 C-19.30318256 42.80146771 -22.97237176 49.15987176 -28.47265625 54.66015625 C-30.78515625 55.16015625 -30.78515625 55.16015625 -33.47265625 54.66015625 C-37.66245661 50.39167419 -39.56935334 46.53435251 -41.22265625 40.84765625 C-42.25241552 36.40808569 -42.25241552 36.40808569 -44.47265625 32.66015625 C-44.86315307 29.46402464 -44.89099403 26.25174037 -44.97265625 23.03515625 C-45.02679688 22.14441406 -45.0809375 21.25367188 -45.13671875 20.3359375 C-45.21467687 16.55496845 -45.23431875 13.7746081 -43.05688477 10.58862305 C-41.28585998 8.78635478 -39.46371568 7.21348739 -37.47265625 5.66015625 C-36.63605469 4.92925781 -35.79945312 4.19835937 -34.9375 3.4453125 C-25.30025956 -3.12350208 -10.90909232 -4.20901987 0 0 Z " fill="#79766E" transform="translate(134.47265625,151.33984375)"/>
  <path d="M0 0 C1.984375 1.13574219 1.984375 1.13574219 4 3 C4.390625 5.63769531 4.390625 5.63769531 4.25 8.828125 C4.19924316 10.60050537 4.19924316 10.60050537 4.14746094 12.40869141 C4.07446777 14.31013916 4.07446777 14.31013916 4 16.25 C3.68127845 32.49067872 4.75728546 48.9900016 11.265625 64.109375 C12 66 12 66 12 69 C3.62305627 68.61396573 -4.08123429 66.7109288 -12 64 C-13.0209375 63.67 -14.041875 63.34 -15.09375 63 C-20.98102757 60.5415764 -23.63301142 57.59003936 -26.19750977 51.8972168 C-28.72236922 45.71167667 -30.86731173 39.73218381 -31 33 C-29.41015625 30.3828125 -29.41015625 30.3828125 -27.0625 28.125 C-23.83276984 24.86536493 -20.85131241 21.64602934 -18.0625 18 C-12.80770707 11.33410035 -6.93372062 4.945842 0 0 Z " fill="#A6D4E5" transform="translate(201,329)"/>
  <path d="M0 0 C0.66 0 1.32 0 2 0 C2.66 0.99 3.32 1.98 4 3 C6.88595946 3.58481121 6.88595946 3.58481121 10.125 3.6875 C11.22070312 3.75324219 12.31640625 3.81898438 13.4453125 3.88671875 C14.70988281 3.94279297 14.70988281 3.94279297 16 4 C14.91316832 6.44537128 13.80189101 8.23099508 12.046875 10.27734375 C9.6260162 13.49745555 8.49258347 16.78740878 7.25 20.5625 C4.53960308 28.22015616 0.88880042 34.48159945 -4 41 C-4.77472656 42.04671875 -5.54945313 43.0934375 -6.34765625 44.171875 C-18.87750347 60.87750347 -18.87750347 60.87750347 -26 68 C-28.07262076 68.08767112 -30.14820294 68.10695873 -32.22265625 68.09765625 C-34.11274414 68.09282227 -34.11274414 68.09282227 -36.04101562 68.08789062 C-37.38151109 68.07953403 -38.72200588 68.07106907 -40.0625 68.0625 C-41.40689942 68.0574866 -42.7513006 68.05292342 -44.09570312 68.04882812 C-47.39717941 68.03699488 -50.69856803 68.02050971 -54 68 C-50.97601652 64.91224183 -47.89061835 62.06382141 -44.5625 59.3125 C-33.41041827 49.30210023 -25.03333449 36.29080343 -16.71069336 23.93432617 C-12.73055002 18.02523546 -8.59505554 12.25401394 -4.3371582 6.54223633 C-1.9708144 3.39671455 -1.9708144 3.39671455 0 0 Z " fill="#E2E0E9" transform="translate(232,129)"/>
  <path d="M0 0 C7.41660798 0.03811207 14.49449947 0.94188289 21.8125 2.1875 C21.544375 3.38375 21.27625 4.58 21 5.8125 C20.81953125 6.64523437 20.6390625 7.47796875 20.453125 8.3359375 C20.01507427 10.28579744 19.54470969 12.22860316 19.046875 14.1640625 C16.4637872 24.77498198 16.09442747 35.30603417 15.8125 46.1875 C8.09569392 46.97971964 3.7084927 46.00656245 -2.68359375 41.65625 C-6.61308124 39.35127762 -10.71356654 38.73960243 -15.1875 38.1875 C-14.1975 37.6925 -14.1975 37.6925 -13.1875 37.1875 C-12.5757709 34.45534703 -12.5757709 34.45534703 -12.1875 31.1875 C-11.91196289 29.49500122 -11.91196289 29.49500122 -11.63085938 27.76831055 C-11.43298828 26.54926025 -11.23511719 25.33020996 -11.03125 24.07421875 C-10.69838083 22.04017984 -10.36474633 20.00626815 -10.03076172 17.97241211 C-9.80049362 16.56541834 -9.57166982 15.15818749 -9.34423828 13.75073242 C-9.01451701 11.71208995 -8.67966011 9.67434937 -8.34375 7.63671875 C-8.14587891 6.42330811 -7.94800781 5.20989746 -7.74414062 3.9597168 C-6.75437308 -0.96958605 -4.67080771 0.02592013 0 0 Z " fill="#F0AB94" transform="translate(250.1875,546.8125)"/>
  <path d="M0 0 C1.0200078 2.47274617 1.65096682 4.92025453 2.27734375 7.51953125 C3.1887288 10.64779884 4.83228075 12.60803393 7 15 C7 15.66 7 16.32 7 17 C6.0409375 17.433125 6.0409375 17.433125 5.0625 17.875 C2.84793921 18.82823451 2.84793921 18.82823451 2 21 C-0.15234375 21.30859375 -0.15234375 21.30859375 -2.9375 21.4375 C-12.2592339 22.16292676 -19.54331351 23.98988324 -26 31 C-29.08031905 34.60380797 -32.04375999 38.29421687 -35 42 C-36.23700969 43.53141799 -37.48567449 45.05355499 -38.75 46.5625 C-39.51570313 47.49255859 -39.51570313 47.49255859 -40.296875 48.44140625 C-42 50 -42 50 -47 52 C-47 45.07 -47 38.14 -47 31 C-45.02 30.34 -43.04 29.68 -41 29 C-35.45723561 23.09759059 -33.20657215 16.57857087 -32.58203125 8.62890625 C-31.8506367 5.32535905 -30.63150353 4.07005102 -28 2 C-25.5 1.9375 -25.5 1.9375 -23 3 C-19.48895275 6.41351816 -18.44994534 9.16308764 -18 14 C-16.02 14 -14.04 14 -12 14 C-12 9.05 -12 4.1 -12 -1 C-3.91304348 -2.34782609 -3.91304348 -2.34782609 0 0 Z " fill="#EBA790" transform="translate(148,175)"/>
  <path d="M0 0 C2.32200893 1.78020684 2.88852973 3.18409958 3.28125 6.05859375 C3.52938879 12.18968957 2.36619063 16.2005632 -1.6640625 20.96875 C-6.89642416 26.55549472 -13.06380095 31.9789108 -21 32.6875 C-27.68972052 32.20775909 -33.07868987 27.23766526 -37.5 22.5625 C-40.20627743 19.11539802 -41.1569344 16.47263038 -41 12 C-39.45762441 7.53522855 -37.97184545 4.64789697 -34 2 C-31.984375 1.953125 -31.984375 1.953125 -29.75 2.25 C-28.55310547 2.40275391 -28.55310547 2.40275391 -27.33203125 2.55859375 C-25 3 -25 3 -21.4375 4.3125 C-17.16697993 5.16660401 -15.52289738 4.20816483 -11.89453125 2.04296875 C-8.10060545 -0.04564607 -4.28638785 -0.45599871 0 0 Z " fill="#C899CD" transform="translate(363,461)"/>
  <path d="M0 0 C1.74031275 2.61046913 2.65221308 4.54226893 3.65625 7.45703125 C3.95660156 8.32263672 4.25695312 9.18824219 4.56640625 10.08007812 C5.02853516 11.43262695 5.02853516 11.43262695 5.5 12.8125 C5.80808594 13.70259766 6.11617188 14.59269531 6.43359375 15.50976562 C7.98391837 19.99772251 9.49841957 24.49525871 11 29 C19.91 29 28.82 29 38 29 C38 29.33 38 29.66 38 30 C29.42 30 20.84 30 12 30 C12 34.29 12 38.58 12 43 C8.36 49.06666667 8.36 49.06666667 5 50 C0.63927438 49.68285632 -3.02459037 48.80700438 -7 47 C-7 48.65 -7 50.3 -7 52 C-7.33 52 -7.66 52 -8 52 C-8 50.02 -8 48.04 -8 46 C-7.34 46 -6.68 46 -6 46 C-9.31197524 36.87690336 -12.8019504 27.89544963 -16.81469727 19.0546875 C-19 14.19928159 -19 14.19928159 -19 12 C-18.04738281 11.55269531 -17.09476562 11.10539062 -16.11328125 10.64453125 C-14.84609015 10.0344022 -13.57917772 9.42369415 -12.3125 8.8125 C-11.68666016 8.52052734 -11.06082031 8.22855469 -10.41601562 7.92773438 C-6.12366654 5.83774241 -3.20286905 3.54581487 0 0 Z " fill="#F1AC95" transform="translate(354,365)"/>
  <path d="M0 0 C6.4763696 2.82559755 12.38519337 5.76757477 16 12 C17.00165655 16.53477239 16.37929409 19.31727064 14.125 23.375 C10.43167972 27.93733681 10.43167972 27.93733681 6.125 28.5625 C0.42782201 28.48006495 -3.37978804 25.65698214 -8.06640625 22.671875 C-11.44123893 20.74853494 -14.31239411 20.14339317 -18.08984375 19.51953125 C-21.33378157 18.63723323 -22.99087385 16.57419287 -25 14 C-26.44985718 9.65042845 -26.63172192 5.54096577 -26 1 C-20.16798393 -6.90144113 -7.8074148 -2.65551561 0 0 Z " fill="#C4D68C" transform="translate(359,184)"/>
  <path d="M0 0 C3.53489789 -0.57014482 5.57663744 -0.81026333 9 0 C20.63844497 8.46432361 31.37142366 24.80568774 34 39 C34.68467639 43.55196943 35.05912681 47.28218336 32.57421875 51.3125 C29.70793856 54.65137885 26.65319038 57.53183212 23 60 C22.34 60 21.68 60 21 60 C20.85304687 58.9584375 20.70609375 57.916875 20.5546875 56.84375 C17.8281601 38.90062316 11.05243844 21.79280784 1.7578125 6.19140625 C0 3 0 3 0 0 Z " fill="#35221A" transform="translate(235,323)"/>
  <path d="M0 0 C3.06465807 1.73025487 5.40191031 3.80382062 7 7 C7.48361651 9.97078713 7.49354852 12.08167611 6.046875 14.7734375 C1.81129971 20.34784406 -3.63021487 22.50570914 -10 25 C-11.60875 25.70189453 -11.60875 25.70189453 -13.25 26.41796875 C-19.66969669 29.12060049 -25.97135448 31.55329183 -33 30 C-35.53639378 28.55634329 -36.76481008 27.78848928 -37.609375 24.95703125 C-37.73958333 22.97135417 -37.86979167 20.98567708 -38 19 C-36.80503906 18.22076172 -36.80503906 18.22076172 -35.5859375 17.42578125 C-28.85289804 13.07391329 -28.85289804 13.07391329 -22.5625 8.125 C-20.02507 6.02078976 -18.04965584 5.14362094 -15 4 C-14.0925 3.29875 -13.185 2.5975 -12.25 1.875 C-8.04732074 -0.54962265 -4.7494722 -1.00926284 0 0 Z " fill="#C4D58B" transform="translate(432,396)"/>
  <path d="M0 0 C3.26431186 2.13052415 6.23912285 4.47824569 8 8 C9.41669112 8.63219482 10.85904864 9.2076319 12.3125 9.75 C16.77419798 11.67535056 18.94470154 13.44259907 21 18 C21.63312378 22.43186643 21.34065329 24.39817919 19.125 28.3125 C15.49413205 32.90448005 15.49413205 32.90448005 12.8984375 33.40625 C6.99626264 33.62552585 3.58369296 32.8448668 -0.9140625 28.98046875 C-1.60242188 28.32691406 -2.29078125 27.67335938 -3 27 C-4.31097656 25.78763672 -4.31097656 25.78763672 -5.6484375 24.55078125 C-10.9609348 19.45900375 -14.50183651 15.98530793 -15.4375 8.5 C-14.8832632 4.06610559 -13.41304526 2.7629414 -10 0 C-6.68863744 -1.65568128 -3.42725997 -1.02324668 0 0 Z " fill="#F3C259" transform="translate(353,517)"/>
  <path d="M0 0 C1.13824219 0.00451172 2.27648437 0.00902344 3.44921875 0.01367188 C6.21616928 0.02529772 8.98309218 0.04322587 11.75 0.0625 C11.75 5.0125 11.75 9.9625 11.75 15.0625 C9.77 15.0625 7.79 15.0625 5.75 15.0625 C5.57984375 14.51980469 5.4096875 13.97710937 5.234375 13.41796875 C4.11004592 10.09880577 3.23659243 7.58048549 0.8125 5 C-1.19754029 3.88218712 -1.19754029 3.88218712 -3.375 4.25 C-5.44171429 5.00910836 -5.44171429 5.00910836 -7.25 7.0625 C-7.53671723 8.86679123 -7.75547961 10.68216002 -7.9375 12.5 C-9.08052631 20.20381146 -12.74971551 26.56221551 -18.25 32.0625 C-20.5625 32.5625 -20.5625 32.5625 -23.25 32.0625 C-27.34542102 27.85778203 -29.3972661 23.99725908 -31.125 18.4375 C-31.46144531 17.45523438 -31.46144531 17.45523438 -31.8046875 16.453125 C-33.78051883 10.35274578 -33.78051883 10.35274578 -32.25 7.0625 C-29.78795485 3.66025638 -26.84167233 1.36694384 -22.68188477 0.57128906 C-15.11255022 0.09405403 -7.5837813 -0.05819903 0 0 Z " fill="#51392D" transform="translate(124.25,173.9375)"/>
  <path d="M0 0 C4.58830888 0.11470772 6.5367865 1.34071882 9.625 4.5 C13.92509769 8.56855397 17.46460457 8.66928004 23.21484375 8.84375 C26.79525106 9.04461437 29.13682833 9.83327549 32 12 C33.125 14.375 33.125 14.375 33 17 C30.80820428 20.83564252 28.20521449 22.94798546 24.04296875 24.4921875 C16.26678954 26.42508099 8.87100176 25.03216008 2 21 C-1.68726465 17.13286879 -2.7125585 13.39000933 -3.1171875 8.19140625 C-2.94494522 4.97047562 -1.71750238 2.67930371 0 0 Z " fill="#C0554B" transform="translate(239,229)"/>
  <path d="M0 0 C1.33895632 1.66215268 2.67130142 3.32963607 4 5 C4.8971875 5.99 4.8971875 5.99 5.8125 7 C7 9 7 9 7 11.26953125 C5.50313037 15.356687 2.61650516 17.15451629 -0.8125 19.6875 C-1.75706055 20.41549805 -1.75706055 20.41549805 -2.72070312 21.15820312 C-10.3996444 27 -10.3996444 27 -15 27 C-14.61816791 46.08527599 -13.3581112 63.63793352 -8 82 C-7.31119169 84.66169137 -6.65497399 87.32972144 -6 90 C-3.69 90 -1.38 90 1 90 C1 90.33 1 90.66 1 91 C-2.3 91 -5.6 91 -9 91 C-16.24736653 72.19843028 -18.58226867 53.59719603 -17.94067383 33.49560547 C-17.90997803 32.31756348 -17.87928223 31.13952148 -17.84765625 29.92578125 C-17.80648682 28.87817627 -17.76531738 27.83057129 -17.72290039 26.7512207 C-18.0397079 23.60575481 -18.89395192 22.30268156 -21 20 C-15.38186958 13.25552942 -9.68213106 7.38564004 -2 3 C-1.34 3 -0.68 3 0 3 C0 2.01 0 1.02 0 0 Z " fill="#3C261C" transform="translate(222,308)"/>
  <path d="M0 0 C1.03769531 -0.02578125 2.07539063 -0.0515625 3.14453125 -0.078125 C6.61332145 0.29591656 8.40860993 1.17431946 11.1875 3.25 C13.69302308 7.00828462 13.55945709 8.78651494 13.1875 13.25 C11.42949417 18.91468544 9.19612756 22.03691817 4.1875 25.25 C1.23981358 26.23834192 -0.58636135 26.30120855 -3.8125 26.25 C-8.69385662 23.69838177 -11.12528454 19.35651914 -12.8125 14.25 C-13.3682372 11.11625968 -13.5415957 8.36244215 -12.8125 5.25 C-8.78915667 1.01490175 -5.6891526 0.08417982 0 0 Z " fill="#C99ACE" transform="translate(348.8125,263.75)"/>
  <path d="M0 0 C3.31217963 1.34940652 5.4792773 2.4792773 8 5 C8.4375 7.25 8.4375 7.25 8 10 C6.85302354 11.47468402 5.69241314 12.94344217 4.4296875 14.3203125 C2.8534717 16.17215073 1.67198243 18.09424719 0.4375 20.1875 C-2.84128186 25.51935087 -2.84128186 25.51935087 -6 27 C-8.5625 26.9375 -8.5625 26.9375 -11 26 C-15.25651308 21.43945028 -15.3364046 16.69948003 -15.2890625 10.734375 C-14.88896865 6.94970345 -13.51679356 4.80442711 -11 2 C-7.28382058 -0.47745294 -4.307247 -0.54553034 0 0 Z " fill="#C698CB" transform="translate(316,27)"/>
  <path d="M0 0 C1.12909548 4.67359774 1.15161542 9.34309687 1.125 14.125 C1.13080078 15.17880859 1.13080078 15.17880859 1.13671875 16.25390625 C1.12055004 24.80715641 1.12055004 24.80715641 -1.9375 28.0625 C-2.618125 28.701875 -3.29875 29.34125 -4 30 C-4.66 30.99 -5.32 31.98 -6 33 C-8.96875 33.36328125 -8.96875 33.36328125 -12.5 33.3125 C-14.24796875 33.30669922 -14.24796875 33.30669922 -16.03125 33.30078125 C-19 33 -19 33 -21 31 C-21 30.01 -21 29.02 -21 28 C-20.43152344 27.731875 -19.86304688 27.46375 -19.27734375 27.1875 C-12.80559649 23.90300723 -7.04050664 19.82798446 -4.125 12.9296875 C-3.48187291 10.84087543 -3.48187291 10.84087543 -3 8 C-3.66 8 -4.32 8 -5 8 C-5.66 8.825 -6.32 9.65 -7 10.5 C-7.66 11.325 -8.32 12.15 -9 13 C-9.66 13 -10.32 13 -11 13 C-10.94011859 10.87420987 -10.85137256 8.74921587 -10.75 6.625 C-10.68039063 4.84996094 -10.68039063 4.84996094 -10.609375 3.0390625 C-10 0 -10 0 -8.0859375 -1.43359375 C-4.88563212 -2.30259053 -2.88888221 -1.44444111 0 0 Z " fill="#C6D48D" transform="translate(255,100)"/>
  <path d="M0 0 C4.40569683 0.93670671 6.75411443 3.85903911 9.22265625 7.44921875 C9.82335937 8.54621094 10.4240625 9.64320313 11.04296875 10.7734375 C11.96722656 12.40732422 11.96722656 12.40732422 12.91015625 14.07421875 C14.37679873 18.02322194 14.08435819 20.39896406 13.16796875 24.4609375 C9.06812713 25.44489949 6.97114514 25.89951408 3.19921875 23.83984375 C0.01591189 21.34160422 -1.96020559 19.00145893 -4.20703125 15.6484375 C-4.89539063 14.65199219 -5.58375 13.65554688 -6.29296875 12.62890625 C-8.08881208 8.93238609 -8.27299011 6.52265857 -7.83203125 2.4609375 C-5.29034688 -0.08074687 -3.47673964 0.14794637 0 0 Z " fill="#C99ACE" transform="translate(250.83203125,267.5390625)"/>
  <path d="M0 0 C0.33 0 0.66 0 1 0 C1.5 2.5 1.5 2.5 1 6 C-3.75696395 12.13855588 -9.87420653 16.07921146 -16.5625 19.8125 C-23.02927263 23.54185945 -29.18263583 27.41697589 -35.125 31.9375 C-49.91324079 43.0807242 -49.91324079 43.0807242 -60 42 C-60.66 41.67 -61.32 41.34 -62 41 C-62 40.34 -62 39.68 -62 39 C-60.9790625 38.84917969 -60.9790625 38.84917969 -59.9375 38.6953125 C-49.81643358 36.73031822 -42.39236011 31.66323534 -34 26 C-32.67779332 25.12132652 -31.35488782 24.24370362 -30.03125 23.3671875 C-27.51562489 21.69717727 -25.0040599 20.0213325 -22.49609375 18.33984375 C-19.25670296 16.17044166 -16.01429406 14.00687142 -12.75 11.875 C-11.89921875 11.31554687 -11.0484375 10.75609375 -10.171875 10.1796875 C-8 9 -8 9 -5 9 C-4.731875 8.443125 -4.46375 7.88625 -4.1875 7.3125 C-2.89596023 4.79739624 -1.52231135 2.3827482 0 0 Z " fill="#EFBC5E" transform="translate(412,395)"/>
  <path d="M0 0 C3.3125 1.5625 3.3125 1.5625 6 4 C7.125 7.375 7.125 7.375 7 11 C4.06329114 16.46835443 4.06329114 16.46835443 1 18 C-2.93429172 18.52457223 -4.54458957 18.30690703 -7.875 16.0625 C-10.37789484 12.45538685 -10.682981 10.39124591 -10.41796875 6.09375 C-10 4 -10 4 -8.375 1.4375 C-5.23662393 -0.46204341 -3.62199908 -0.57951985 0 0 Z " fill="#C0554B" transform="translate(297,414)"/>
  <path d="M0 0 C0.33 0.66 0.66 1.32 1 2 C3.52733235 2.65555119 3.52733235 2.65555119 6 3 C6.495 5.475 6.495 5.475 7 8 C4.72754846 10.08353039 3.48295024 10.96708784 0.36328125 11.1796875 C-23.384 8.808 -23.384 8.808 -29 6 C-29 5.34 -29 4.68 -29 4 C-25.61006115 1.74004077 -24.26100068 1.71854245 -20.2734375 1.62109375 C-19.1596875 1.58693359 -18.0459375 1.55277344 -16.8984375 1.51757812 C-15.73570312 1.49115234 -14.57296875 1.46472656 -13.375 1.4375 C-11.07020131 1.37784937 -8.76549981 1.31426816 -6.4609375 1.24609375 C-5.43790527 1.22216553 -4.41487305 1.1982373 -3.36083984 1.17358398 C-1.04391098 1.26169502 -1.04391098 1.26169502 0 0 Z " fill="#F6D5C0" transform="translate(172,168)"/>
  <path d="M0 0 C0.24929611 4.23803394 0.31340617 7.97620652 -0.9375 12.0625 C-3.30601704 14.28747055 -4.03576709 14.38861129 -7.1875 14.5625 C-11.84447506 14.28811194 -16.44896563 13.16150764 -20 10 C-20.71875 7.35546875 -20.71875 7.35546875 -21 5 C-18.2518872 4.15996552 -15.50180419 3.32777849 -12.75 2.5 C-11.97269531 2.26152344 -11.19539063 2.02304688 -10.39453125 1.77734375 C-9.64042969 1.55175781 -8.88632812 1.32617188 -8.109375 1.09375 C-7.07248535 0.77954102 -7.07248535 0.77954102 -6.01464844 0.45898438 C-4 0 -4 0 0 0 Z " fill="#F4C45A" transform="translate(274,155)"/>
  <path d="M0 0 C0.66 0.33 1.32 0.66 2 1 C2.01458252 1.75917725 2.02916504 2.51835449 2.04418945 3.30053711 C2.44410986 21.97809174 3.759711 39.04170624 9 57 C9.68880831 59.66169137 10.34502601 62.32972144 11 65 C13.31 65 15.62 65 18 65 C18 65.33 18 65.66 18 66 C14.7 66 11.4 66 8 66 C-0.00599159 45.23035789 -2.76427889 23.19827867 -1 1 C-0.67 0.67 -0.34 0.34 0 0 Z " fill="#41322D" transform="translate(205,333)"/>
  <path d="M0 0 C3.79856107 1.34532371 5.02130845 2.56173803 7 6.0625 C7.42368148 9.57300369 7.61380713 11.90709835 5.9375 15.0625 C2.64944971 16.75955822 0.46100275 16.09472889 -3 15.0625 C-5.51902311 12.22052521 -6.78905258 10.16997395 -7.5 6.4375 C-6.56522013 1.99729561 -4.54030029 0.09458959 0 0 Z " fill="#F2C35E" transform="translate(199,240.9375)"/>
  <path d="M0 0 C4.45320244 0.5459613 7.76262028 1.65025804 11.6875 3.8125 C12.61949219 4.31394531 13.55148437 4.81539062 14.51171875 5.33203125 C17 7 17 7 20 11 C13.07 11 6.14 11 -1 11 C-2.0036454 5.98177299 -1.79132273 4.53099278 0 0 Z " fill="#7CA8BB" transform="translate(272,550)"/>
  <path d="M0 0 C2 0 2 0 4 1 C5.25 4.0625 5.25 4.0625 6 7 C7.65 6.34 9.3 5.68 11 5 C11.66 6.65 12.32 8.3 13 10 C14.98 10 16.96 10 19 10 C19 10.33 19 10.66 19 11 C18.21496094 11.00257813 17.42992188 11.00515625 16.62109375 11.0078125 C10.05532478 11.24949725 6.00080882 11.77281296 1.3046875 16.52734375 C0.65886719 17.25630859 0.65886719 17.25630859 0 18 C-0.66 18.66 -1.32 19.32 -2 20 C-2.05379226 17.04142591 -2.09357093 14.08382279 -2.125 11.125 C-2.14175781 10.28324219 -2.15851563 9.44148437 -2.17578125 8.57421875 C-2.18222656 7.76855469 -2.18867187 6.96289062 -2.1953125 6.1328125 C-2.21102295 5.01737061 -2.21102295 5.01737061 -2.22705078 3.87939453 C-2 2 -2 2 0 0 Z " fill="#76726A" transform="translate(92,164)"/>
  <path d="M0 0 C6.6 0.66 13.2 1.32 20 2 C18 6 18 6 15 8 C11.64453125 8.1953125 11.64453125 8.1953125 7.8125 8.125 C6.54019531 8.10695312 5.26789063 8.08890625 3.95703125 8.0703125 C2.49330078 8.03550781 2.49330078 8.03550781 1 8 C0.67 5.36 0.34 2.72 0 0 Z " fill="#F6D5C1" transform="translate(149,177)"/>
  <path d="M0 0 C0.33 0 0.66 0 1 0 C1.04487549 0.5576001 1.08975098 1.1152002 1.13598633 1.68969727 C2.09489339 13.31480344 3.37859363 24.62309635 6 36 C4 35 4 35 3 32 C3 34.31 3 36.62 3 39 C-0.3613192 33.9580212 -0.12298723 28.77901167 -0.09765625 22.8515625 C-0.09553383 21.86547501 -0.09553383 21.86547501 -0.09336853 20.85946655 C-0.08781762 18.78126269 -0.07527465 16.70317073 -0.0625 14.625 C-0.05747864 13.20703282 -0.05291685 11.78906393 -0.04882812 10.37109375 C-0.03786437 6.91402678 -0.02063421 3.45702433 0 0 Z " fill="#E7AC60" transform="translate(149,196)"/>
  <path d="M0 0 C2 0.125 2 0.125 4 1 C5.72101535 3.58152302 6 4.84918025 6 8 C3.6875 9.75 3.6875 9.75 1 11 C0.01 10.67 -0.98 10.34 -2 10 C-2.1953125 3.9453125 -2.1953125 3.9453125 -2 2 C-1.34 1.34 -0.68 0.68 0 0 Z " fill="#513C30" transform="translate(92,164)"/>
  <path d="M0 0 C0.66 0 1.32 0 2 0 C2 3.96 2 7.92 2 12 C2.99 11.67 3.98 11.34 5 11 C3.55049545 14.7910119 1.84827434 18.3874638 0 22 C0.66 22.33 1.32 22.66 2 23 C0.625 24.5 0.625 24.5 -1 26 C-1.66 26 -2.32 26 -3 26 C-3.33 26.66 -3.66 27.32 -4 28 C-3.566875 26.081875 -3.566875 26.081875 -3.125 24.125 C-2.94453125 23.30257813 -2.7640625 22.48015625 -2.578125 21.6328125 C-2.20143195 19.91733199 -1.81641796 18.20365088 -1.421875 16.4921875 C-0.18799812 10.86923428 0.18569406 5.75651589 0 0 Z " fill="#92C0D2" transform="translate(309,303)"/>
  <path d="M0 0 C0.33 0 0.66 0 1 0 C0.88557539 1.60495567 0.75805306 3.20898119 0.625 4.8125 C0.55539063 5.70582031 0.48578125 6.59914063 0.4140625 7.51953125 C0 10 0 10 -2 13 C-2 11.35 -2 9.7 -2 8 C-2.77085937 8.77085937 -3.54171875 9.54171875 -4.3359375 10.3359375 C-7.890625 13.890625 -11.4453125 17.4453125 -15 21 C-14.40808395 17.53306313 -13.18045537 15.75409181 -10.8125 13.1875 C-10.18730469 12.49785156 -9.56210938 11.80820312 -8.91796875 11.09765625 C-8.28503906 10.40542969 -7.65210938 9.71320313 -7 9 C-5.86903218 7.71355545 -4.74352769 6.42227545 -3.625 5.125 C-2.90183594 4.29355469 -2.90183594 4.29355469 -2.1640625 3.4453125 C-0.9045572 1.98639963 -0.9045572 1.98639963 0 0 Z " fill="#6A6760" transform="translate(167,367)"/>
  <path d="M0 0 C-0.31839844 0.93714844 -0.63679687 1.87429687 -0.96484375 2.83984375 C-2.3515046 7.69621104 -2.41760977 12.54081666 -2.5625 17.5625 C-2.92861965 28.67851579 -2.92861965 28.67851579 -4 34 C-4.33 34 -4.66 34 -5 34 C-4.67 23.11 -4.34 12.22 -4 1 C-6.97 1 -9.94 1 -13 1 C-13 0.67 -13 0.34 -13 0 C-11.20909747 -0.19466332 -9.41723495 -0.38051213 -7.625 -0.5625 C-6.12839844 -0.71912109 -6.12839844 -0.71912109 -4.6015625 -0.87890625 C-2 -1 -2 -1 0 0 Z " fill="#E7AB60" transform="translate(174,239)"/>
  <path d="M0 0 C8.91 0 17.82 0 27 0 C27 0.33 27 0.66 27 1 C26.34926514 1.02505615 25.69853027 1.0501123 25.02807617 1.07592773 C22.08101954 1.19193702 19.1342787 1.31464115 16.1875 1.4375 C14.65125977 1.49647461 14.65125977 1.49647461 13.08398438 1.55664062 C12.10107422 1.59853516 11.11816406 1.64042969 10.10546875 1.68359375 C9.19949951 1.72025146 8.29353027 1.75690918 7.36010742 1.79467773 C4.84951218 1.9208205 4.84951218 1.9208205 2 3 C1.34 2.01 0.68 1.02 0 0 Z " fill="#8DBACC" transform="translate(244,323)"/>
  <path d="M0 0 C0.33 0 0.66 0 1 0 C1.33 3.3 1.66 6.6 2 10 C1.34 10 0.68 10 0 10 C-0.33 10.66 -0.66 11.32 -1 12 C-1.2226746 10.56465159 -1.42761906 9.12654475 -1.625 7.6875 C-1.74101562 6.88699219 -1.85703125 6.08648437 -1.9765625 5.26171875 C-2 3 -2 3 0 0 Z " fill="#433732" transform="translate(207,362)"/>
  <path d="M0 0 C1.5 1.375 1.5 1.375 3 3 C3 3.66 3 4.32 3 5 C4.98 5 6.96 5 9 5 C9 5.33 9 5.66 9 6 C5.7 6 2.4 6 -1 6 C-0.34 4.68 0.32 3.36 1 2 C0.01 1.67 -0.98 1.34 -2 1 C-1.34 0.67 -0.68 0.34 0 0 Z " fill="#645F57" transform="translate(102,169)"/>
  <path d="M0 0 C0.33 0 0.66 0 1 0 C0.88557539 1.60495567 0.75805306 3.20898119 0.625 4.8125 C0.55539063 5.70582031 0.48578125 6.59914063 0.4140625 7.51953125 C0 10 0 10 -2 13 C-2.05447047 11.58376784 -2.09300508 10.16691809 -2.125 8.75 C-2.14820313 7.96109375 -2.17140625 7.1721875 -2.1953125 6.359375 C-1.9828378 3.79268059 -1.28654105 2.2083933 0 0 Z " fill="#615E59" transform="translate(167,367)"/>
</svg>
