<?xml version="1.0" encoding="UTF-8"?>
<svg version="1.1" xmlns="http://www.w3.org/2000/svg" width="225" height="225">
<path d="M0 0 C74.25 0 148.5 0 225 0 C225 74.25 225 148.5 225 225 C150.75 225 76.5 225 0 225 C0 150.75 0 76.5 0 0 Z " fill="#FAFAFA" transform="translate(0,0)"/>
<path d="M0 0 C0.88816406 0.2784375 1.77632813 0.556875 2.69140625 0.84375 C21.37217621 7.00866981 34.69864723 19.01663826 44 36 C51.16062482 50.60685861 52.90615471 69.43676159 48.4375 85.125 C44.21436343 96.33255474 38.50664048 105.58030985 30 114 C29.33613281 114.69738281 28.67226562 115.39476562 27.98828125 116.11328125 C15.76786061 128.10093197 -2.22497539 134.30718346 -19.0625 134.4375 C-38.91504701 134.19017996 -57.19264365 126.91614801 -71.8046875 113.3515625 C-85.63081806 98.54136571 -91.6751683 80.18018842 -91.27734375 60.1640625 C-90.46101434 42.59470408 -80.53974274 26.84752524 -68.22265625 14.91015625 C-49.96953218 -0.77662349 -23.05801481 -8.24261854 0 0 Z " fill="#E7E403" transform="translate(132,25)"/>
<path d="M0 0 C0.88816406 0.2784375 1.77632813 0.556875 2.69140625 0.84375 C21.37217621 7.00866981 34.69864723 19.01663826 44 36 C51.16062482 50.60685861 52.90615471 69.43676159 48.4375 85.125 C44.21436343 96.33255474 38.50664048 105.58030985 30 114 C29.33613281 114.69738281 28.67226562 115.39476562 27.98828125 116.11328125 C15.76786061 128.10093197 -2.22497539 134.30718346 -19.0625 134.4375 C-38.91504701 134.19017996 -57.19264365 126.91614801 -71.8046875 113.3515625 C-85.63081806 98.54136571 -91.6751683 80.18018842 -91.27734375 60.1640625 C-90.46101434 42.59470408 -80.53974274 26.84752524 -68.22265625 14.91015625 C-49.96953218 -0.77662349 -23.05801481 -8.24261854 0 0 Z M-60 34 C-70.25416795 46.76809299 -72.43326578 60.03562423 -71 76 C-69.05325787 84.69486619 -64.93041478 91.45910135 -59 98 C-58.42765625 98.68707031 -57.8553125 99.37414062 -57.265625 100.08203125 C-49.6226519 108.623217 -37.31161715 114.69832686 -25.8359375 115.3359375 C-9.84609814 115.66018828 4.88197028 112.04317254 16.8125 100.75 C26.74426578 90.12655768 31.65247095 77.78616379 31.47265625 63.29663086 C31.03702893 52.76699768 27.36995336 44.30024225 21 36 C20.57203125 35.39671875 20.1440625 34.7934375 19.703125 34.171875 C11.73338343 23.76433013 -1.24194087 17.7412147 -14 16 C-32.39234608 14.75791949 -47.31928481 20.56156193 -60 34 Z " fill="#9E2924" transform="translate(132,25)"/>
<path d="M0 0 C0.71365723 0.29922363 1.42731445 0.59844727 2.16259766 0.90673828 C11.60512172 4.54497806 21.65011038 5.81389463 31.625 7.125 C34.11760107 7.45785498 36.60981381 7.79363556 39.1015625 8.1328125 C40.18775879 8.27605957 41.27395508 8.41930664 42.39306641 8.56689453 C45 9 45 9 47 10 C47 12.64 47 15.28 47 18 C64.16 18 81.32 18 99 18 C99 15.36 99 12.72 99 10 C105.14189315 7.97577043 111.21222058 7.31149466 117.625 6.625 C126.51189532 5.60385799 134.60461508 4.17508595 143 1 C143.99 0.67 144.98 0.34 146 0 C147.7353094 3.47061879 146.74855954 7.28919202 146 11 C144.4375 14.0625 144.4375 14.0625 143 16 C151.53651444 15.29416478 151.53651444 15.29416478 160 14 C160.43641149 16.98214518 160.48617869 19.16269225 158.9453125 21.81640625 C153.06537728 29.17427113 145.08976987 31.56746613 136.1875 33.6875 C135.31254883 33.90172607 134.43759766 34.11595215 133.53613281 34.33666992 C127.38848415 35.7938017 121.33279374 36.84022768 115 37 C115 39.64 115 42.28 115 45 C102.63289088 49.82107644 89.43877305 49.18656742 76.34545898 49.18530273 C73.83364705 49.18748166 71.32228127 49.2056909 68.81054688 49.22460938 C60.49454045 49.25400965 52.2850356 48.99581266 44.01171875 48.11328125 C43.26324173 48.03554977 42.51476471 47.9578183 41.74360657 47.87773132 C38.13496077 47.44799345 35.11433046 46.93270043 32 45 C32 42.36 32 39.72 32 37 C30.87078125 36.96132812 30.87078125 36.96132812 29.71875 36.921875 C14.75149783 36.1226528 -2.20067245 33.24929953 -13 22 C-14 20 -14 20 -14 14 C-8.39 14.66 -2.78 15.32 3 16 C1.02 12.535 1.02 12.535 -1 9 C-1.49295775 2.98591549 -1.49295775 2.98591549 0 0 Z " fill="#7BBA9A" transform="translate(39,154)"/>
<path d="M0 0 C0.99 0.66 1.98 1.32 3 2 C2.74297526 6.3694206 2.39976667 8.51822991 -0.4375 11.9375 C-3 14 -3 14 -5 14 C-3.35 15.98 -1.7 17.96 0 20 C-0.99 20.66 -1.98 21.32 -3 22 C-4.32 21.34 -5.64 20.68 -7 20 C-8.62094818 21.62094818 -8.20950959 23.39127885 -8.25 25.625 C-8.15766182 32.10713992 -6.45056351 36.68801804 -2 41.4375 C0.72261542 44.32474293 0.72261542 44.32474293 4 44 C4 42.68 4 41.36 4 40 C3.34 39.67 2.68 39.34 2 39 C2.99 36.03 3.98 33.06 5 30 C5.66 30 6.32 30 7 30 C7.103125 29.4225 7.20625 28.845 7.3125 28.25 C8.14680381 25.51955117 8.93625184 23.99258443 11 22 C13.875 21.4375 13.875 21.4375 17 22 C19.875 24.25 19.875 24.25 22 27 C22 28.32 22 29.64 22 31 C22.99 31 23.98 31 25 31 C25.1546875 32.051875 25.1546875 32.051875 25.3125 33.125 C25.90936028 36.1184414 25.90936028 36.1184414 27.5625 39.0625 C29 42 29 42 29 46 C28.34 46 27.68 46 27 46 C27.515625 46.680625 28.03125 47.36125 28.5625 48.0625 C30.39207088 51.80118832 29.86178872 54.00443413 29 58 C28.01 58 27.02 58 26 58 C25.9175 58.78375 25.835 59.5675 25.75 60.375 C25 63 25 63 23 64.125 C22.34 64.41375 21.68 64.7025 21 65 C20.505 66.485 20.505 66.485 20 68 C19.34 68 18.68 68 18 68 C18 66.02 18 64.04 18 62 C15.03920255 63.48039873 13.30993464 64.4391659 11.6875 67.375 C10.94414265 70.2132735 10.57388456 72.08821114 11 75 C12.32405988 77.00615134 13.65668346 79.00669158 15 81 C14.505 82.485 14.505 82.485 14 84 C5.78836224 88.04531208 -3.05526679 88.14324306 -12 88 C-10.827871 84.93240112 -9.5318641 82.14144204 -7.875 79.3125 C-5.49090079 74.58001841 -5.25225549 70.20872029 -6 65 C-6.67750312 62.96181129 -6.67750312 62.96181129 -7.5625 61.125 C-9 58 -9 58 -8.8125 55.6875 C-8 54 -8 54 -6 52 C-5.01 52 -4.02 52 -3 52 C-3.62648438 51.11957031 -4.25296875 50.23914063 -4.8984375 49.33203125 C-5.72422302 48.15904046 -6.54972912 46.98585293 -7.375 45.8125 C-7.7875 45.23435547 -8.2 44.65621094 -8.625 44.06054688 C-10.89716155 40.81721949 -12.71431953 37.75107873 -14 34 C-14.73334429 37.97754128 -14.73334429 37.97754128 -15 42 C-16.65 41.34 -18.3 40.68 -20 40 C-20 37.16032769 -19.59732819 34.76264289 -19 32 C-22.16666667 33.83333333 -22.16666667 33.83333333 -24 37 C-24.66 35.02 -25.32 33.04 -26 31 C-25.01 30.34 -24.02 29.68 -23 29 C-23.33 28.67 -23.66 28.34 -24 28 C-23.875 24.6875 -23.875 24.6875 -23 21 C-20.6875 18.9375 -20.6875 18.9375 -18 17 C-17.34 15.948125 -16.68 14.89625 -16 13.8125 C-14 11 -14 11 -11.25 10.125 C-10.5075 10.08375 -9.765 10.0425 -9 10 C-9.061875 8.906875 -9.12375 7.81375 -9.1875 6.6875 C-9 3 -9 3 -7.875 1.0625 C-5.14015561 -0.48724515 -3.0875593 -0.32162076 0 0 Z " fill="#1E1917" transform="translate(117,49)"/>
<path d="M0 0 C0.71381836 0.2993042 1.42763672 0.5986084 2.16308594 0.90698242 C11.63842801 4.55768005 21.74305269 5.84523202 31.75 7.1875 C33.03132813 7.36474609 34.31265625 7.54199219 35.6328125 7.72460938 C38.7544564 8.1555826 41.87678362 8.58060215 45 9 C45 10.32 45 11.64 45 13 C41.7 13.66 38.4 14.32 35 15 C35.99 15.33 36.98 15.66 38 16 C38 16.66 38 17.32 38 18 C38.804375 18.144375 39.60875 18.28875 40.4375 18.4375 C43 19 43 19 44 20 C44.09962237 21.82985622 44.13080452 23.66352878 44.1328125 25.49609375 C44.13410156 26.61177734 44.13539062 27.72746094 44.13671875 28.87695312 C44.13285156 30.05193359 44.12898438 31.22691406 44.125 32.4375 C44.13080078 34.19416992 44.13080078 34.19416992 44.13671875 35.98632812 C44.13542969 37.10330078 44.13414063 38.22027344 44.1328125 39.37109375 C44.13168457 40.40161865 44.13055664 41.43214355 44.12939453 42.49389648 C44 45 44 45 43 47 C35.57142857 47.28571429 35.57142857 47.28571429 32 45 C32 42.36 32 39.72 32 37 C30.87078125 36.96132812 30.87078125 36.96132812 29.71875 36.921875 C14.75149783 36.1226528 -2.20067245 33.24929953 -13 22 C-14 20 -14 20 -14 14 C-8.39 14.66 -2.78 15.32 3 16 C1.02 12.535 1.02 12.535 -1 9 C-1.49295775 2.98591549 -1.49295775 2.98591549 0 0 Z " fill="#05763B" transform="translate(39,154)"/>
<path d="M0 0 C2 2 2 2 2.08203125 3.98828125 C1.53768717 8.68226281 0.89310547 12.10059697 -2 16 C6.53651444 15.29416478 6.53651444 15.29416478 15 14 C15.43641149 16.98214518 15.48617869 19.16269225 13.9453125 21.81640625 C8.06537728 29.17427113 0.08976987 31.56746613 -8.8125 33.6875 C-9.68745117 33.90172607 -10.56240234 34.11595215 -11.46386719 34.33666992 C-17.61151585 35.7938017 -23.66720626 36.84022768 -30 37 C-30 39.64 -30 42.28 -30 45 C-34.23553859 47.82369239 -36.12706254 47 -42 47 C-42 37.1 -42 27.2 -42 17 C-39.36 16.34 -36.72 15.68 -34 15 C-37.3 14.34 -40.6 13.68 -44 13 C-44 11.68 -44 10.36 -44 9 C-43.18958252 8.89977539 -42.37916504 8.79955078 -41.54418945 8.69628906 C-38.46952403 8.3103423 -35.39643235 7.91385943 -32.32397461 7.51074219 C-30.36737658 7.25711351 -28.4092831 7.01510626 -26.45117188 6.7734375 C-17.4667315 5.58465659 -8.19187863 4.09593932 0 0 Z " fill="#04783C" transform="translate(184,154)"/>
<path d="M0 0 C9.93027821 8.3140827 16.88467148 20.06966998 18.12109375 33.09765625 C18.58639911 48.89534072 13.8743999 61.65843092 3.0625 73.375 C-7.7298864 83.65638326 -22.02449806 87.83132446 -36.64868164 87.66015625 C-51.27521296 87.08699434 -63.02966287 80.25965834 -72.98828125 69.83203125 C-80.95797623 60.51340689 -84.83605119 50.53378282 -84.6875 38.3125 C-84.67992676 37.43480957 -84.67235352 36.55711914 -84.66455078 35.65283203 C-84.4922728 28.86105552 -83.45380703 23.24687417 -80.25 17.1875 C-79.81429687 16.33027344 -79.37859375 15.47304687 -78.9296875 14.58984375 C-72.25615963 2.50091212 -61.95155445 -5.17289551 -49.13671875 -9.98046875 C-31.58969488 -14.93082118 -14.33409458 -10.91102722 0 0 Z M-70.24609375 7.7734375 C-78.69398445 17.95042864 -82.30772354 28.99480274 -81.25 42.1875 C-80.00023411 54.84385932 -73.67139248 65.99877032 -63.96875 74.08984375 C-53.60698244 81.84477421 -42.1033196 85.11386538 -29.25 84.1875 C-13.78624799 81.50842959 -1.73149803 74.80923776 7.75 62.1875 C14.55129841 51.02596326 15.55623398 37.71337094 13.13671875 24.953125 C8.94032936 12.16060756 -0.598266 2.22565198 -12.25 -4.1875 C-31.96752707 -13.02908952 -55.68420655 -7.80439532 -70.24609375 7.7734375 Z " fill="#F7F3EA" transform="translate(145.25,52.8125)"/>
<path d="M0 0 C9.9 0 19.8 0 30 0 C28.80106195 4.7957522 27.51319935 5.54078355 23.6875 8.5 C20.89996011 10.67346234 18.24166192 12.75283614 15.76953125 15.28125 C14 17 14 17 12 17 C12 13.04 12 9.08 12 5 C10.68 5 9.36 5 8 5 C8.33 11.93 8.66 18.86 9 26 C12.96734015 22.28059769 12.96734015 22.28059769 16.92602539 18.55200195 C20.74217093 15.00211313 24.70284041 11.95053379 29 9 C29.33 10.32 29.66 11.64 30 13 C28.68 13.33 27.36 13.66 26 14 C26 14.99 26 15.98 26 17 C27.32 17 28.64 17 30 17 C30.99 17 31.98 17 33 17 C33.495 21.95 33.495 21.95 34 27 C32.9275 26.071875 31.855 25.14375 30.75 24.1875 C26.4062174 19.86453251 26.4062174 19.86453251 21 18 C22.49827011 21.81377846 24.76487393 23.57365545 28 26 C28.66 26.66 29.32 27.32 30 28 C27.42105432 29.28947284 25.5447811 29.1294785 22.66015625 29.1328125 C21.59732422 29.13410156 20.53449219 29.13539063 19.43945312 29.13671875 C18.32505859 29.13285156 17.21066406 29.12898438 16.0625 29.125 C14.95197266 29.12886719 13.84144531 29.13273437 12.69726562 29.13671875 C11.10108398 29.13478516 11.10108398 29.13478516 9.47265625 29.1328125 C8.49562744 29.13168457 7.51859863 29.13055664 6.51196289 29.12939453 C4 29 4 29 1 28 C0.67 18.76 0.34 9.52 0 0 Z " fill="#A8D6BE" transform="translate(93,173)"/>
<path d="M0 0 C1.65 0 3.3 0 5 0 C5.02465881 3.96930989 5.04284023 7.93859034 5.05493164 11.90795898 C5.05997057 13.25920386 5.06680177 14.61044326 5.07543945 15.96166992 C5.08752419 17.90020434 5.09269828 19.838778 5.09765625 21.77734375 C5.10551147 23.52905884 5.10551147 23.52905884 5.11352539 25.31616211 C5 28 5 28 4 29 C2.00041636 29.04080783 -0.00045254 29.04254356 -2 29 C-2 28.34 -2 27.68 -2 27 C-3.78612311 25.19306244 -3.78612311 25.19306244 -6 23.375 C-6.7425 22.74335938 -7.485 22.11171875 -8.25 21.4609375 C-8.8275 20.97882813 -9.405 20.49671875 -10 20 C-9.67 19.01 -9.34 18.02 -9 17 C-3.67302761 18.45281065 -0.63597198 22.08111378 3 26 C3 23.03 3 20.06 3 17 C1.02 17.66 -0.96 18.32 -3 19 C-3.99 17.68 -4.98 16.36 -6 15 C-4.36587557 13.29159719 -3.13093906 12.06546953 -1 11 C-4.12808842 11 -5.37434701 12.97559421 -7.625 15.0625 C-8.51316406 15.8771875 -9.40132812 16.691875 -10.31640625 17.53125 C-11.20199219 18.3459375 -12.08757812 19.160625 -13 20 C-14.51543991 21.36019972 -16.03565193 22.7151187 -17.5625 24.0625 C-18.20316406 24.63097656 -18.84382813 25.19945312 -19.50390625 25.78515625 C-21 27 -21 27 -22 27 C-22 19.74 -22 12.48 -22 5 C-20.68 5 -19.36 5 -18 5 C-18 8.96 -18 12.92 -18 17 C-16.24775086 15.58611621 -14.49829345 14.16877217 -12.75 12.75 C-11.77546875 11.96109375 -10.8009375 11.1721875 -9.796875 10.359375 C-7.01702749 8.09277734 -7.01702749 8.09277734 -4.765625 5.703125 C-3 4 -3 4 -1 4 C-0.67 2.68 -0.34 1.36 0 0 Z " fill="#A7CAB2" transform="translate(123,173)"/>
<path d="M0 0 C0.0580772 4.08327357 0.09362249 8.16644083 0.125 12.25 C0.14175781 13.40886719 0.15851563 14.56773437 0.17578125 15.76171875 C0.18222656 16.87675781 0.18867188 17.99179688 0.1953125 19.140625 C0.20578613 20.16704102 0.21625977 21.19345703 0.22705078 22.25097656 C-0.00163889 25.01984288 -0.5756701 26.64418792 -2 29 C-4.64 29 -7.28 29 -10 29 C-10 19.1 -10 9.2 -10 -1 C-5.07577115 -1.98484577 -4.18645898 -2.03342293 0 0 Z " fill="#238A53" transform="translate(152,172)"/>
<path d="M0 0 C0.721875 0.00257813 1.44375 0.00515625 2.1875 0.0078125 C2.909375 0.00523437 3.63125 0.00265625 4.375 0 C6.1875 0.1328125 6.1875 0.1328125 7.1875 1.1328125 C7.27508003 3.13246232 7.29446576 5.1351736 7.28515625 7.13671875 C7.28193359 8.35166016 7.27871094 9.56660156 7.27539062 10.81835938 C7.26701172 12.09775391 7.25863281 13.37714844 7.25 14.6953125 C7.24548828 15.97857422 7.24097656 17.26183594 7.23632812 18.58398438 C7.22449545 21.76697272 7.20801068 24.94987012 7.1875 28.1328125 C3.8875 28.1328125 0.5875 28.1328125 -2.8125 28.1328125 C-2.84136338 23.65365922 -2.85925187 19.17452959 -2.875 14.6953125 C-2.88337891 13.41591797 -2.89175781 12.13652344 -2.90039062 10.81835938 C-2.90361328 9.60341797 -2.90683594 8.38847656 -2.91015625 7.13671875 C-2.91539307 6.01080322 -2.92062988 4.8848877 -2.92602539 3.72485352 C-2.77178095 0.20310464 -2.77178095 0.20310464 0 0 Z " fill="#7BC09C" transform="translate(86.8125,172.8671875)"/>
<path d="M0 0 C0.33 0.66 0.66 1.32 1 2 C2.65821773 2.37309899 4.32577014 2.70700977 6 3 C7.74073204 4.74073204 7.13022093 7.13091635 7.1328125 9.49609375 C7.13410156 10.61177734 7.13539062 11.72746094 7.13671875 12.87695312 C7.13285156 14.05193359 7.12898438 15.22691406 7.125 16.4375 C7.12886719 17.60861328 7.13273437 18.77972656 7.13671875 19.98632812 C7.13542969 21.10330078 7.13414063 22.22027344 7.1328125 23.37109375 C7.13168457 24.40161865 7.13055664 25.43214355 7.12939453 26.49389648 C7 29 7 29 6 31 C3.69 31 1.38 31 -1 31 C-2.09911549 27.70265354 -2.1139456 25.27041255 -2.09765625 21.80078125 C-2.09443359 20.59228516 -2.09121094 19.38378906 -2.08789062 18.13867188 C-2.07951172 16.87603516 -2.07113281 15.61339844 -2.0625 14.3125 C-2.05573242 12.40114258 -2.05573242 12.40114258 -2.04882812 10.45117188 C-2.03702873 7.30073436 -2.02056597 4.15039051 -2 1 C-1.34 0.67 -0.68 0.34 0 0 Z " fill="#239257" transform="translate(76,170)"/>
<path d="M0 0 C0.66 0.66 1.32 1.32 2 2 C4.02213278 2.61056087 6.06827978 3.14363995 8.125 3.625 C9.22070312 3.88539063 10.31640625 4.14578125 11.4453125 4.4140625 C12.28835937 4.60742188 13.13140625 4.80078125 14 5 C14 5.33 14 5.66 14 6 C11.03 6.66 8.06 7.32 5 8 C4.67 17.57 4.34 27.14 4 37 C4.99 37.33 5.98 37.66 7 38 C2.71 38 -1.58 38 -6 38 C-6 37.67 -6 37.34 -6 37 C-3.36 37 -0.72 37 2 37 C2 27.76 2 18.52 2 9 C-0.97 9 -3.94 9 -7 9 C-7 18.24 -7 27.48 -7 37 C-7.99 37 -8.98 37 -10 37 C-10 27.76 -10 18.52 -10 9 C-6.78548731 7.39274365 -3.56387464 7.94251815 0 8 C0 5.36 0 2.72 0 0 Z " fill="#559673" transform="translate(138,164)"/>
<path d="M0 0 C0.66 0 1.32 0 2 0 C2 0.66 2 1.32 2 2 C4.31 2.33 6.62 2.66 9 3 C9 4.32 9 5.64 9 7 C9.66 6.67 10.32 6.34 11 6 C13.01193027 12.25933862 13.01193027 15.74066138 11 22 C8.03 22.66 5.06 23.32 2 24 C1.67 22.68 1.34 21.36 1 20 C3.31 19.34 5.62 18.68 8 18 C7.05125 18.04125 6.1025 18.0825 5.125 18.125 C2 18 2 18 0 16 C-0.21676408 12.60402937 -0.08073852 10.24221555 1 7 C0.67 7 0.34 7 0 7 C0 4.69 0 2.38 0 0 Z " fill="#9F2B24" transform="translate(48,82)"/>
<path d="M0 0 C0.66 1.32 1.32 2.64 2 4 C0.68 4.33 -0.64 4.66 -2 5 C-2 5.99 -2 6.98 -2 8 C-0.68 8 0.64 8 2 8 C2.99 8 3.98 8 5 8 C5.33 11.3 5.66 14.6 6 18 C4.9275 17.071875 3.855 16.14375 2.75 15.1875 C-1.5937826 10.86453251 -1.5937826 10.86453251 -7 9 C-5.50172989 12.81377846 -3.23512607 14.57365545 0 17 C0.66 17.66 1.32 18.32 2 19 C-0.296537 20.1482685 -1.58313167 20.11561175 -4.1328125 20.09765625 C-4.93847656 20.09443359 -5.74414062 20.09121094 -6.57421875 20.08789062 C-7.41597656 20.07951172 -8.25773437 20.07113281 -9.125 20.0625 C-9.97449219 20.05798828 -10.82398437 20.05347656 -11.69921875 20.04882812 C-13.79950909 20.03702874 -15.8997633 20.01909306 -18 20 C-17.55417954 15.30237326 -15.92023513 13.56684578 -12.375 10.5625 C-11.4778125 9.79164063 -10.580625 9.02078125 -9.65625 8.2265625 C-8.7796875 7.49179688 -7.903125 6.75703125 -7 6 C-5.62434672 4.81325685 -4.24923988 3.62587957 -2.875 2.4375 C-1.92625 1.633125 -0.9775 0.82875 0 0 Z " fill="#FCFCFA" transform="translate(121,182)"/>
<path d="M0 0 C1.32 0 2.64 0 4 0 C4 3.96 4 7.92 4 12 C5.77249524 10.5645497 7.54293576 9.12656197 9.3125 7.6875 C10.29863281 6.88699219 11.28476563 6.08648437 12.30078125 5.26171875 C14.91106057 3.16946534 14.91106057 3.16946534 16.65625 1.21875 C18 0 18 0 21.1875 -0.1875 C22.115625 -0.125625 23.04375 -0.06375 24 0 C20.3338232 4.49106658 16.58038665 8.40493219 12.1640625 12.15625 C8.97862587 14.87019601 5.8894123 17.69001667 2.78515625 20.49609375 C1 22 1 22 0 22 C0 14.74 0 7.48 0 0 Z " fill="#D21E15" transform="translate(101,178)"/>
<path d="M0 0 C0.33 0 0.66 0 1 0 C1 2.64 1 5.28 1 8 C15.52 8 30.04 8 45 8 C45 8.33 45 8.66 45 9 C30.15 9.33 15.3 9.66 0 10 C0 18.58 0 27.16 0 36 C11.55 36.66 23.1 37.32 35 38 C35 38.33 35 38.66 35 39 C30.77084853 39.02953635 26.54172428 39.04697584 22.3125 39.0625 C20.54422852 39.07506836 20.54422852 39.07506836 18.74023438 39.08789062 C10.77850456 39.10970358 2.92770775 38.73348042 -5 38 C-4.01 37.505 -4.01 37.505 -3 37 C-3 28.09 -3 19.18 -3 10 C-5.475 9.01 -5.475 9.01 -8 8 C-8 7.34 -8 6.68 -8 6 C-9.32 5.67 -10.64 5.34 -12 5 C-9.31912713 3.39147628 -7.47959733 2.92943693 -4.3125 2.5 C-3.219375 2.335 -2.12625 2.17 -1 2 C-0.67 1.34 -0.34 0.68 0 0 Z " fill="#516F5C" transform="translate(85,164)"/>
<path d="M0 0 C0.99 0.103125 1.98 0.20625 3 0.3125 C5 3.3125 5 3.3125 4.625 5.5 C4.41875 6.098125 4.2125 6.69625 4 7.3125 C3.34 6.9825 2.68 6.6525 2 6.3125 C2 5.3225 2 4.3325 2 3.3125 C0.68 3.6425 -0.64 3.9725 -2 4.3125 C-2.33 5.6325 -2.66 6.9525 -3 8.3125 C0.3 9.3025 3.6 10.2925 7 11.3125 C6 15.3125 6 15.3125 3.5 16.9375 C2.2625 17.618125 2.2625 17.618125 1 18.3125 C0.67 18.9725 0.34 19.6325 0 20.3125 C2.97 19.9825 5.94 19.6525 9 19.3125 C9 21.9525 9 24.5925 9 27.3125 C8.071875 27.291875 7.14375 27.27125 6.1875 27.25 C2.97713989 27.15480396 2.97713989 27.15480396 0 28.3125 C0 27.3225 0 26.3325 0 25.3125 C0.66 24.9825 1.32 24.6525 2 24.3125 C1.01 23.9825 0.02 23.6525 -1 23.3125 C-1 20.6725 -1 18.0325 -1 15.3125 C-0.34 15.3125 0.32 15.3125 1 15.3125 C1 14.3225 1 13.3325 1 12.3125 C-0.32 12.3125 -1.64 12.3125 -3 12.3125 C-4.58969234 8.83504801 -5.41465662 6.14807374 -5 2.3125 C-3 0.3125 -3 0.3125 0 0 Z " fill="#F6E909" transform="translate(167,64.6875)"/>
<path d="M0 0 C1.98 0.495 1.98 0.495 4 1 C4 9.91 4 18.82 4 28 C2.35 28.33 0.7 28.66 -1 29 C-1.02465881 25.03069011 -1.04284023 21.06140966 -1.05493164 17.09204102 C-1.05997057 15.74079614 -1.06680177 14.38955674 -1.07543945 13.03833008 C-1.08752419 11.09979566 -1.09269828 9.161222 -1.09765625 7.22265625 C-1.10289307 6.05484619 -1.10812988 4.88703613 -1.11352539 3.68383789 C-1 1 -1 1 0 0 Z " fill="#349E67" transform="translate(143,172)"/>
<path d="M0 0 C1.32 0.66 2.64 1.32 4 2 C6.32495277 2.38749213 8.65851268 2.72982839 11 3 C11 5.31 11 7.62 11 10 C10.34 9.67 9.68 9.34 9 9 C9.33 8.01 9.66 7.02 10 6 C9.34 6 8.68 6 8 6 C7.67 6.66 7.34 7.32 7 8 C7 7.34 7 6.68 7 6 C5.68 6 4.36 6 3 6 C3.99 7.485 3.99 7.485 5 9 C5 9.99 5 10.98 5 12 C6.32 12.33 7.64 12.66 9 13 C9 14.65 9 16.3 9 18 C8.01 18 7.02 18 6 18 C6.66 17.01 7.32 16.02 8 15 C7.34 15 6.68 15 6 15 C5.34 16.32 4.68 17.64 4 19 C2.68 18.67 1.36 18.34 0 18 C0 16.35 0 14.7 0 13 C-0.99 12.67 -1.98 12.34 -3 12 C-2.01 8.04 -1.02 4.08 0 0 Z " fill="#A02C22" transform="translate(164,92)"/>
<path d="M0 0 C6.27 0 12.54 0 19 0 C17.78531177 4.85875292 16.31004088 5.72318644 12.4375 8.75 C10.91962891 9.94882813 10.91962891 9.94882813 9.37109375 11.171875 C8.58863281 11.77515625 7.80617188 12.3784375 7 13 C6.34 12.67 5.68 12.34 5 12 C5.25 10.125 5.25 10.125 6 8 C8.0625 6.75 8.0625 6.75 10 6 C10 5.01 10 4.02 10 3 C8.68 3 7.36 3 6 3 C5.67 3.66 5.34 4.32 5 5 C4.34 5 3.68 5 3 5 C3 7.97 3 10.94 3 14 C2.67 14 2.34 14 2 14 C2 10.7 2 7.4 2 4 C0.35 4 -1.3 4 -3 4 C-2.34 3.67 -1.68 3.34 -1 3 C-0.67 2.01 -0.34 1.02 0 0 Z " fill="#DFF0E9" transform="translate(104,173)"/>
<path d="M0 0 C1.32 0 2.64 0 4 0 C4 9.24 4 18.48 4 28 C2.68 27.67 1.36 27.34 0 27 C0 18.09 0 9.18 0 0 Z " fill="#5CB188" transform="translate(136,173)"/>
<path d="M0 0 C0.99 0.33 1.98 0.66 3 1 C3 9.91 3 18.82 3 28 C1.68 27.67 0.36 27.34 -1 27 C-1.02886537 22.68751391 -1.04675255 18.37505238 -1.0625 14.0625 C-1.07087891 12.83080078 -1.07925781 11.59910156 -1.08789062 10.33007812 C-1.09111328 9.16025391 -1.09433594 7.99042969 -1.09765625 6.78515625 C-1.10289307 5.70113525 -1.10812988 4.61711426 -1.11352539 3.50024414 C-1 1 -1 1 0 0 Z " fill="#5DB188" transform="translate(85,173)"/>
<path d="M0 0 C6.32597793 -0.35807422 6.32597793 -0.35807422 9 1.0625 C10.59967215 4.16186478 9.73342508 6.69958714 9 10 C8 11 8 11 6.15234375 11.09765625 C4.1015625 11.06510417 2.05078125 11.03255208 0 11 C0 7.37 0 3.74 0 0 Z " fill="#9C9A99" transform="translate(145,208)"/>
<path d="M0 0 C1.65 0.33 3.3 0.66 5 1 C4.67 2.32 4.34 3.64 4 5 C2.68 5.33 1.36 5.66 0 6 C0.061875 6.928125 0.12375 7.85625 0.1875 8.8125 C0 12 0 12 -1.375 13.875 C-3 15 -3 15 -5 15 C-5 11.04 -5 7.08 -5 3 C-6.32 3 -7.64 3 -9 3 C-9 10.59 -9 18.18 -9 26 C-9.33 26 -9.66 26 -10 26 C-10 18.08 -10 10.16 -10 2 C-4 2 -4 2 -1 3 C-0.67 2.01 -0.34 1.02 0 0 Z " fill="#C5C3B9" transform="translate(110,175)"/>
<path d="M0 0 C1.16796875 1.68359375 1.16796875 1.68359375 2 4 C0.98828125 6.47265625 0.98828125 6.47265625 -0.6875 9.0625 C-1.49767578 10.34833984 -1.49767578 10.34833984 -2.32421875 11.66015625 C-4 14 -4 14 -5.64453125 15.62109375 C-7.26756216 17.07013492 -7.26756216 17.07013492 -8 20 C-8.99 20.33 -9.98 20.66 -11 21 C-10.5020163 17.26512223 -10.12508244 15.18762365 -8 12 C-10.31 11.34 -12.62 10.68 -15 10 C-15 9.34 -15 8.68 -15 8 C-12.36 8.33 -9.72 8.66 -7 9 C-4.41222792 5.94419026 -4.41222792 5.94419026 -4 2 C-2.68 1.34 -1.36 0.68 0 0 Z " fill="#A23323" transform="translate(70,56)"/>
<path d="M0 0 C0 0.66 0 1.32 0 2 C-1.65532623 3.01866229 -3.32260138 4.01810813 -5 5 C-5.33 5.66 -5.66 6.32 -6 7 C-3.0280615 5.87548273 -0.66559313 4.77706209 2 3 C2.33 3.66 2.66 4.32 3 5 C2.01 5.66 1.02 6.32 0 7 C-1.19232613 9.05003955 -1.19232613 9.05003955 -2 11 C-2.66 11 -3.32 11 -4 11 C-3.67 14.3 -3.34 17.6 -3 21 C-5.5864584 18.4135416 -6.62271883 15.7061452 -8.125 12.375 C-8.66382813 11.18648437 -9.20265625 9.99796875 -9.7578125 8.7734375 C-10.37269531 7.40058594 -10.37269531 7.40058594 -11 6 C-10.34 5.67 -9.68 5.34 -9 5 C-8.67 4.01 -8.34 3.02 -8 2 C-3.63934426 -1.21311475 -3.63934426 -1.21311475 0 0 Z " fill="#AD471E" transform="translate(165,56)"/>
<path d="M0 0 C0.66 0 1.32 0 2 0 C2 0.66 2 1.32 2 2 C4.31 2.33 6.62 2.66 9 3 C9.08912219 6.83225427 8.87867729 10.26562152 8 14 C6.02 14.33 4.04 14.66 2 15 C1.855625 13.865625 1.71125 12.73125 1.5625 11.5625 C1.38828522 8.19222799 1.38828522 8.19222799 0 7 C-0.04092937 4.66702567 -0.04241723 2.33294775 0 0 Z " fill="#A12D23" transform="translate(48,82)"/>
<path d="M0 0 C0.33 0 0.66 0 1 0 C1.66 3.3 2.32 6.6 3 10 C4.32 10 5.64 10 7 10 C7 10.99 7 11.98 7 13 C6.34 13 5.68 13 5 13 C5 15.64 5 18.28 5 21 C6.32 21.33 7.64 21.66 9 22 C7.68 22 6.36 22 5 22 C5 24.64 5 27.28 5 30 C4.01 29.67 3.02 29.34 2 29 C1.93941406 28.0821875 1.87882813 27.164375 1.81640625 26.21875 C1.30853036 18.37304005 1.30853036 18.37304005 0.4375 10.5625 C-0.00390805 6.96817734 -0.07526959 3.61294035 0 0 Z " fill="#9D2322" transform="translate(161,67)"/>
<path d="M0 0 C0.99 0 1.98 0 3 0 C3 9.24 3 18.48 3 28 C2.01 28 1.02 28 0 28 C0 18.76 0 9.52 0 0 Z " fill="#91CBAD" transform="translate(128,173)"/>
<path d="M0 0 C3.37503669 1.1858237 5.64722731 2.27573689 8 5 C6.3125 7.5 6.3125 7.5 4 10 C0.23692901 10.64247553 -0.75846834 10.1610211 -4 8 C-3.10664203 10.35785318 -3.10664203 10.35785318 0.0625 11.125 C1.5165625 11.558125 1.5165625 11.558125 3 12 C2.67 12.99 2.34 13.98 2 15 C-0.97 14.01 -3.94 13.02 -7 12 C-6.01 10.02 -5.02 8.04 -4 6 C-1.33333333 6 1.33333333 6 4 6 C2.35 4.35 0.7 2.7 -1 1 C-0.67 0.67 -0.34 0.34 0 0 Z " fill="#F5E70B" transform="translate(59,56)"/>
<path d="M0 0 C1.32 0.33 2.64 0.66 4 1 C4 9.58 4 18.16 4 27 C3.01 27.33 2.02 27.66 1 28 C0.67 18.76 0.34 9.52 0 0 Z " fill="#95CDAF" transform="translate(93,173)"/>
<path d="M0 0 C1.485 0.99 1.485 0.99 3 2 C3.35644531 4.49023438 3.35644531 4.49023438 3.328125 7.59375 C3.32039063 9.26244141 3.32039063 9.26244141 3.3125 10.96484375 C3.291875 12.13144531 3.27125 13.29804688 3.25 14.5 C3.24484375 15.66660156 3.2396875 16.83320313 3.234375 18.03515625 C3.15412854 26.69174292 3.15412854 26.69174292 2 29 C1.34 29 0.68 29 0 29 C0 19.43 0 9.86 0 0 Z " fill="#3FA36F" transform="translate(80,172)"/>
<path d="M0 0 C1.98 0.99 1.98 0.99 4 2 C3.67 2.66 3.34 3.32 3 4 C2.91456105 6.10528933 2.89285275 8.21331157 2.90234375 10.3203125 C2.90556641 11.57714844 2.90878906 12.83398438 2.91210938 14.12890625 C2.92048828 15.44761719 2.92886719 16.76632813 2.9375 18.125 C2.94251511 19.46484211 2.94707799 20.804686 2.95117188 22.14453125 C2.96298914 25.42973206 2.97946383 28.71484397 3 32 C2.01 32 1.02 32 0 32 C0 21.44 0 10.88 0 0 Z " fill="#18864D" transform="translate(72,168)"/>
<path d="M0 0 C2.4375 0.8125 2.4375 0.8125 4.4375 2.8125 C4.25 5.3125 4.25 5.3125 3.4375 7.8125 C0.4375 9.8125 0.4375 9.8125 -2.1875 9.5 C-4.5625 8.8125 -4.5625 8.8125 -5.5625 7.8125 C-5.8607732 4.97890458 -5.91852594 3.37464622 -4.375 0.9375 C-2.5625 -0.1875 -2.5625 -0.1875 0 0 Z " fill="#28236F" transform="translate(160.5625,20.1875)"/>
<path d="M0 0 C5.625 -0.25 5.625 -0.25 9 2 C9.1875 5.125 9.1875 5.125 9 8 C6.04335481 9.4783226 3.25770263 9.06032783 0 9 C0 6.03 0 3.06 0 0 Z " fill="#F5E70C" transform="translate(110,29)"/>
<path d="M0 0 C2.375 0.75 2.375 0.75 3.375 1.75 C3.625 4.6875 3.625 4.6875 3.375 7.75 C0.375 9.75 0.375 9.75 -2.3125 9.375 C-3.075625 9.16875 -3.83875 8.9625 -4.625 8.75 C-5.95341008 3.31559513 -5.95341008 3.31559513 -4.5 0.8125 C-2.625 -0.25 -2.625 -0.25 0 0 Z " fill="#F3E10C" transform="translate(55.625,71.25)"/>
<path d="M0 0 C1.65 1.32 3.3 2.64 5 4 C4.25 8.75 4.25 8.75 2 11 C-1.34448359 10.66555164 -3.52337009 9.21127671 -6 7 C-6 6.34 -6 5.68 -6 5 C-4.04072937 3.2856382 -2.04119788 1.61594832 0 0 Z " fill="#EFD815" transform="translate(155,46)"/>
<path d="M0 0 C0.66 0.33 1.32 0.66 2 1 C1.67 1.66 1.34 2.32 1 3 C2.98 3 4.96 3 7 3 C7 4.32 7 5.64 7 7 C5 9 5 9 2.375 9.125 C1.59125 9.08375 0.8075 9.0425 0 9 C-0.33 9.99 -0.66 10.98 -1 12 C-1.61875 11.21625 -2.2375 10.4325 -2.875 9.625 C-4.89858661 7.03162353 -4.89858661 7.03162353 -7 5 C-5.33333333 5 -3.66666667 5 -2 5 C-1.855625 4.360625 -1.71125 3.72125 -1.5625 3.0625 C-1 1 -1 1 0 0 Z " fill="#C4791F" transform="translate(81,36)"/>
<path d="M0 0 C3.5 0.125 3.5 0.125 4.5 1.125 C4.75 4.0625 4.75 4.0625 4.5 7.125 C1.5 9.125 1.5 9.125 -1.125 8.8125 C-3.5 8.125 -3.5 8.125 -4.5 7.125 C-4.625 4.125 -4.625 4.125 -4.5 1.125 C-3.5 0.125 -3.5 0.125 0 0 Z " fill="#353278" transform="translate(93.5,8.875)"/>
<path d="M0 0 C3.0625 0.1875 3.0625 0.1875 5.0625 2.1875 C5.3125 4.6875 5.3125 4.6875 5.0625 7.1875 C4.4025 7.8475 3.7425 8.5075 3.0625 9.1875 C-0.5625 8.8125 -0.5625 8.8125 -3.9375 8.1875 C-3.97991723 5.85455225 -3.97842937 3.52047433 -3.9375 1.1875 C-2.9375 0.1875 -2.9375 0.1875 0 0 Z " fill="#25216E" transform="translate(117.9375,6.8125)"/>
<path d="M0 0 C0 6.93 0 13.86 0 21 C0.99 21.33 1.98 21.66 3 22 C2.01 22 1.02 22 0 22 C0 24.64 0 27.28 0 30 C-0.99 30.33 -1.98 30.66 -3 31 C-2.98952637 30.16227051 -2.97905273 29.32454102 -2.96826172 28.46142578 C-2.93419981 25.35661836 -2.90911089 22.25190608 -2.89013672 19.14697266 C-2.87511893 17.1408864 -2.84971019 15.13488676 -2.82421875 13.12890625 C-2.81777344 11.87207031 -2.81132812 10.61523438 -2.8046875 9.3203125 C-2.79421387 8.15773926 -2.78374023 6.99516602 -2.77294922 5.79736328 C-2.70738003 2.86089721 -2.70738003 2.86089721 -5 1 C-1.125 0 -1.125 0 0 0 Z " fill="#164F2E" transform="translate(154,169)"/>
<path d="M0 0 C2.5 0.25 2.5 0.25 4.5 2.25 C4.75 4.75 4.75 4.75 4.5 7.25 C2.5 9.25 2.5 9.25 0 9.5 C-2.5 9.25 -2.5 9.25 -4.5 7.25 C-4.75 4.75 -4.75 4.75 -4.5 2.25 C-2.5 0.25 -2.5 0.25 0 0 Z " fill="#F4E40F" transform="translate(67.5,47.75)"/>
<path d="M0 0 C1.98362069 2.91708924 1.9876191 4.12380904 1.625 7.75 C1.41875 8.8225 1.2125 9.895 1 11 C0.01 11 -0.98 11 -2 11 C-2.86625 11.020625 -3.7325 11.04125 -4.625 11.0625 C-7 11 -7 11 -8 10 C-8.04080783 8.00041636 -8.04254356 5.99954746 -8 4 C-3.25 2.875 -3.25 2.875 -1 4 C-0.67 2.68 -0.34 1.36 0 0 Z " fill="#8B8A8A" transform="translate(59,208)"/>
<path d="M0 0 C0.66 1.32 1.32 2.64 2 4 C0.68 4.33 -0.64 4.66 -2 5 C-2 5.99 -2 6.98 -2 8 C-0.68 8 0.64 8 2 8 C2.99 8 3.98 8 5 8 C5.33 11.3 5.66 14.6 6 18 C4.96875 17.113125 3.9375 16.22625 2.875 15.3125 C-0.39205431 12.51121718 -3.6873127 9.74710654 -7 7 C-4.66666667 4.66666667 -2.33333333 2.33333333 0 0 Z " fill="#AFD5C0" transform="translate(121,182)"/>
<path d="M0 0 C0.99 0.33 1.98 0.66 3 1 C3.02898097 5.10415189 3.0467922 9.20827753 3.0625 13.3125 C3.07087891 14.47974609 3.07925781 15.64699219 3.08789062 16.84960938 C3.09111328 17.96787109 3.09433594 19.08613281 3.09765625 20.23828125 C3.10289307 21.26993408 3.10812988 22.30158691 3.11352539 23.36450195 C3 26 3 26 2 29 C1.34 29 0.68 29 0 29 C0 19.43 0 9.86 0 0 Z " fill="#088947" transform="translate(149,171)"/>
<path d="M0 0 C3.29714793 0.32971479 4.6226839 0.6226839 7 3 C6.63318342 5.93453261 6.13562754 6.86437246 4 9 C0.70285207 8.67028521 -0.6226839 8.3773161 -3 6 C-2.63318342 3.06546739 -2.13562754 2.13562754 0 0 Z " fill="#8884AA" transform="translate(204,64)"/>
<path d="M0 0 C0.33 0.99 0.66 1.98 1 3 C3.97 3.495 3.97 3.495 7 4 C3.69711664 6.20192224 2.72537273 6.23959968 -1.10546875 6.1953125 C-2.08837891 6.18886719 -3.07128906 6.18242188 -4.08398438 6.17578125 C-5.10814453 6.15902344 -6.13230469 6.14226563 -7.1875 6.125 C-8.22326172 6.11597656 -9.25902344 6.10695313 -10.32617188 6.09765625 C-12.88434685 6.0740786 -15.44205748 6.0411703 -18 6 C-18 5.01 -18 4.02 -18 3 C-15.03 3 -12.06 3 -9 3 C-9 2.67 -9 2.34 -9 2 C-6.03 1.34 -3.06 0.68 0 0 Z " fill="#9A1921" transform="translate(119,36)"/>
<path d="M0 0 C2.31 0 4.62 0 7 0 C6.01 0.495 6.01 0.495 5 1 C5.33 1.99 5.66 2.98 6 4 C5.72230092 6.3406065 5.39460023 8.67624308 5 11 C4.34 11 3.68 11 3 11 C3 8.69 3 6.38 3 4 C2.01 4 1.02 4 0 4 C0 6.31 0 8.62 0 11 C-0.33 11 -0.66 11 -1 11 C-1 8.69 -1 6.38 -1 4 C-1.66 4 -2.32 4 -3 4 C-3 6.31 -3 8.62 -3 11 C-3.66 11 -4.32 11 -5 11 C-5 8.36 -5 5.72 -5 3 C-3.68 3 -2.36 3 -1 3 C-0.67 2.01 -0.34 1.02 0 0 Z " fill="#515050" transform="translate(162,208)"/>
<path d="M0 0 C0.66 0 1.32 0 2 0 C2 0.99 2 1.98 2 3 C3.65 3 5.3 3 7 3 C7 3.66 7 4.32 7 5 C6.01 5.495 6.01 5.495 5 6 C5 7.65 5 9.3 5 11 C4.236875 10.814375 3.47375 10.62875 2.6875 10.4375 C-0.08967375 9.77180827 -0.08967375 9.77180827 -3 11 C-3 9.35 -3 7.7 -3 6 C-3.66 5.67 -4.32 5.34 -5 5 C-5 4.34 -5 3.68 -5 3 C-3.35 3 -1.7 3 0 3 C0 2.01 0 1.02 0 0 Z " fill="#EADDDB" transform="translate(111,145)"/>
<path d="M0 0 C1.32 0 2.64 0 4 0 C4 9.24 4 18.48 4 28 C3.01 27.67 2.02 27.34 1 27 C1.00523682 26.25314941 1.01047363 25.50629883 1.01586914 24.73681641 C1.03660401 21.36621943 1.04964899 17.99563586 1.0625 14.625 C1.07087891 13.449375 1.07925781 12.27375 1.08789062 11.0625 C1.09111328 9.94101563 1.09433594 8.81953125 1.09765625 7.6640625 C1.10289307 6.62717285 1.10812988 5.5902832 1.11352539 4.52197266 C1.17140815 2.0040332 1.17140815 2.0040332 0 0 Z " fill="#2D9B62" transform="translate(76,172)"/>
<path d="M0 0 C0.598125 0.474375 1.19625 0.94875 1.8125 1.4375 C4.00382924 3.16465744 4.00382924 3.16465744 7 4 C6.67 4.99 6.34 5.98 6 7 C6.33 7.99 6.66 8.98 7 10 C5.68 10 4.36 10 3 10 C1.2488427 11.4166747 1.2488427 11.4166747 0 13 C0 11.35 0 9.7 0 8 C-1.32 7.34 -2.64 6.68 -4 6 C-2.68 5.67 -1.36 5.34 0 5 C0 3.35 0 1.7 0 0 Z " fill="#EFE6E5" transform="translate(129,141)"/>
<path d="M0 0 C0.33 0.99 0.66 1.98 1 3 C0.67 3.66 0.34 4.32 0 5 C1.32 5.33 2.64 5.66 4 6 C4 6.66 4 7.32 4 8 C2.35 8 0.7 8 -1 8 C-1 8.99 -1 9.98 -1 11 C-1.66 11 -2.32 11 -3 11 C-3.33 10.34 -3.66 9.68 -4 9 C-6.01669827 7.86649466 -6.01669827 7.86649466 -8 7 C-7.67 6.38125 -7.34 5.7625 -7 5.125 C-5.85806765 3.08981656 -5.85806765 3.08981656 -6 1 C-5.38125 1.20625 -4.7625 1.4125 -4.125 1.625 C-3.073125 1.810625 -3.073125 1.810625 -2 2 C-1.34 1.34 -0.68 0.68 0 0 Z " fill="#EDE6E4" transform="translate(151,132)"/>
<path d="M0 0 C0.33 0 0.66 0 1 0 C1 1.65 1 3.3 1 5 C2.32 5.66 3.64 6.32 5 7 C3.35 7.33 1.7 7.66 0 8 C-0.33 9.32 -0.66 10.64 -1 12 C-1.33 11.34 -1.66 10.68 -2 10 C-3.65 10 -5.3 10 -7 10 C-6.62875 9.4225 -6.2575 8.845 -5.875 8.25 C-4.70833333 6 -4.70833333 6 -5.875 3.75 C-6.24625 3.1725 -6.6175 2.595 -7 2 C-4.525 2.495 -4.525 2.495 -2 3 C-1.34 2.01 -0.68 1.02 0 0 Z " fill="#EFE7E7" transform="translate(94,141)"/>
<path d="M0 0 C1.65 0.33 3.3 0.66 5 1 C5 1.66 5 2.32 5 3 C6.65 3 8.3 3 10 3 C9.67 3.66 9.34 4.32 9 5 C7.02 5 5.04 5 3 5 C3.495 5.45375 3.99 5.9075 4.5 6.375 C6 8 6 8 6 10 C2.06326356 8.68775452 -0.22719294 7.08089673 -3 4 C-2.01 2.68 -1.02 1.36 0 0 Z " fill="#474284" transform="translate(41,41)"/>
<path d="M0 0 C0.33 0 0.66 0 1 0 C1 1.65 1 3.3 1 5 C1.99 5 2.98 5 4 5 C4 5.66 4 6.32 4 7 C3.34 7 2.68 7 2 7 C2 8.65 2 10.3 2 12 C1.34 12 0.68 12 0 12 C-0.33 11.34 -0.66 10.68 -1 10 C-2.32 10 -3.64 10 -5 10 C-4.979375 9.21625 -4.95875 8.4325 -4.9375 7.625 C-4.81315937 5.01885039 -4.81315937 5.01885039 -6 3 C-4.35 3 -2.7 3 -1 3 C-0.67 2.01 -0.34 1.02 0 0 Z " fill="#EFE9E9" transform="translate(164,116)"/>
<path d="M0 0 C4.55555556 0.55555556 4.55555556 0.55555556 6 2 C6.125 4.5 6.125 4.5 6 7 C5 8 5 8 1.9375 8.0625 C0.968125 8.041875 -0.00125 8.02125 -1 8 C-1.625 5.125 -1.625 5.125 -2 2 C-1.34 1.34 -0.68 0.68 0 0 Z " fill="#A2A1A0" transform="translate(171,211)"/>
<path d="M0 0 C4.55555556 0.55555556 4.55555556 0.55555556 6 2 C6.125 4.5 6.125 4.5 6 7 C5 8 5 8 1.9375 8.0625 C0.968125 8.041875 -0.00125 8.02125 -1 8 C-1.625 5.125 -1.625 5.125 -2 2 C-1.34 1.34 -0.68 0.68 0 0 Z " fill="#A5A5A4" transform="translate(28,211)"/>
<path d="M0 0 C1.42944945 2.35438733 2.08661261 3.48032433 1.625 6.25 C1.41875 6.8275 1.2125 7.405 1 8 C-0.175625 8.185625 -0.175625 8.185625 -1.375 8.375 C-4.14057822 8.79117993 -4.14057822 8.79117993 -6 11 C-5.125 6.25 -5.125 6.25 -4 4 C-5.65 4.33 -7.3 4.66 -9 5 C-9 4.34 -9 3.68 -9 3 C-2.25 0 -2.25 0 0 0 Z " fill="#1E1969" transform="translate(192,51)"/>
<path d="M0 0 C0 0.99 0 1.98 0 3 C0.94978897 5.15028304 0.94978897 5.15028304 2 7 C1.01 7.33 0.02 7.66 -1 8 C-1.66 7.34 -2.32 6.68 -3 6 C-3 6.99 -3 7.98 -3 9 C-3.99 9 -4.98 9 -6 9 C-6.66 6.03 -7.32 3.06 -8 0 C-4.71303767 -0.79953138 -3.28976808 -1.09658936 0 0 Z " fill="#F2DE0F" transform="translate(101,31)"/>
<path d="M0 0 C5.25691455 1.43370397 8.51785151 4.99603099 12 9 C12 9.33 12 9.66 12 10 C7.38099287 9.81523971 4.78017921 9.20125576 1.5625 5.9375 C0.716875 4.968125 -0.12875 3.99875 -1 3 C-0.67 2.01 -0.34 1.02 0 0 Z " fill="#CA3028" transform="translate(114,190)"/>
<path d="M0 0 C0.8971875 0.5259375 0.8971875 0.5259375 1.8125 1.0625 C4.10813214 2.33304698 4.10813214 2.33304698 7 1 C7.144375 1.78375 7.28875 2.5675 7.4375 3.375 C7.87798925 5.96421018 7.87798925 5.96421018 9 8 C7.35 8 5.7 8 4 8 C3.67 8.99 3.34 9.98 3 11 C2.67 9.68 2.34 8.36 2 7 C0.68 6.67 -0.64 6.34 -2 6 C-1.34 4.02 -0.68 2.04 0 0 Z " fill="#F3EEEE" transform="translate(72,132)"/>
<path d="M0 0 C0.66 0.66 1.32 1.32 2 2 C3.31747324 2.69748583 4.64914193 3.36959957 6 4 C6 6 6 8 6 10 C5.21625 9.95875 4.4325 9.9175 3.625 9.875 C0.83883881 9.71271266 0.83883881 9.71271266 -1 12 C-1 10.35 -1 8.7 -1 7 C-2.32 6.34 -3.64 5.68 -5 5 C-3.35 4.67 -1.7 4.34 0 4 C0 2.68 0 1.36 0 0 Z " fill="#F3EFEE" transform="translate(60,118)"/>
<path d="M0 0 C2.97 0.495 2.97 0.495 6 1 C6 3.83967231 5.59732819 6.23735711 5 9 C3.02 9 1.04 9 -1 9 C-1 8.01 -1 7.02 -1 6 C0.485 6.99 0.485 6.99 2 8 C1.484375 7.4225 0.96875 6.845 0.4375 6.25 C-1 4 -1 4 -0.6875 1.75 C-0.460625 1.1725 -0.23375 0.595 0 0 Z " fill="#E1BF15" transform="translate(132,33)"/>
<path d="M0 0 C2.5 0.125 2.5 0.125 3.5 1.125 C3.625 4.125 3.625 4.125 3.5 7.125 C2.5 8.125 2.5 8.125 0 8.25 C-2.5 8.125 -2.5 8.125 -3.5 7.125 C-3.625 4.125 -3.625 4.125 -3.5 1.125 C-2.5 0.125 -2.5 0.125 0 0 Z " fill="#211F1D" transform="translate(71.5,210.875)"/>
<path d="M0 0 C2.5 0.125 2.5 0.125 3.5 1.125 C3.625 4.125 3.625 4.125 3.5 7.125 C2.5 8.125 2.5 8.125 0 8.25 C-2.5 8.125 -2.5 8.125 -3.5 7.125 C-3.625 4.125 -3.625 4.125 -3.5 1.125 C-2.5 0.125 -2.5 0.125 0 0 Z " fill="#221F1E" transform="translate(80.5,210.875)"/>
<path d="M0 0 C2.00720923 0.28674418 4.0085944 0.61866701 6 1 C6.04254356 2.99954746 6.04080783 5.00041636 6 7 C5 8 5 8 2.5 8.125 C0 8 0 8 -1 7 C-1.125 4 -1.125 4 -1 1 C-0.67 0.67 -0.34 0.34 0 0 Z " fill="#686666" transform="translate(185,211)"/>
<path d="M0 0 C2.97 0.495 2.97 0.495 6 1 C6.04241723 3.33294775 6.04092937 5.66702567 6 8 C5 9 5 9 1.4375 9.0625 C0.303125 9.041875 -0.83125 9.02125 -2 9 C-1.67 8.34 -1.34 7.68 -1 7 C-0.01 7 0.98 7 2 7 C1.01 6.34 0.02 5.68 -1 5 C-0.67 3.35 -0.34 1.7 0 0 Z " fill="#E9CD10" transform="translate(123,30)"/>
<path d="M0 0 C2.625 0.375 2.625 0.375 5 1 C5.04254356 2.99954746 5.04080783 5.00041636 5 7 C4 8 4 8 1.5 8.125 C-1 8 -1 8 -2 7 C-2.1875 4.5625 -2.1875 4.5625 -2 2 C-1.34 1.34 -0.68 0.68 0 0 Z " fill="#817F7E" transform="translate(212,211)"/>
<path d="M0 0 C1.98 0.99 3.96 1.98 6 3 C5.67 3.99 5.34 4.98 5 6 C4.01 6.33 3.02 6.66 2 7 C2 6.34 2 5.68 2 5 C1.34 5 0.68 5 0 5 C-0.33 6.32 -0.66 7.64 -1 9 C0.65 9 2.3 9 4 9 C2.02 9.99 2.02 9.99 0 11 C-1.32 10.01 -2.64 9.02 -4 8 C-2.66666667 5.33333333 -1.33333333 2.66666667 0 0 Z " fill="#EACF15" transform="translate(146,39)"/>
<path d="M0 0 C-0.875 3.875 -0.875 3.875 -2 5 C-0.68 5 0.64 5 2 5 C2 5.66 2 6.32 2 7 C-0.97 7.66 -3.94 8.32 -7 9 C-6 5 -6 5 -5 4 C-6.32 4 -7.64 4 -9 4 C-9 3.34 -9 2.68 -9 2 C-2.25 0 -2.25 0 0 0 Z " fill="#302B73" transform="translate(196,61)"/>
<path d="M0 0 C0.99 0.33 1.98 0.66 3 1 C2.67 5.62 2.34 10.24 2 15 C1 13 0 11 -1 9 C-1.99 9.495 -1.99 9.495 -3 10 C-2.67 8.35 -2.34 6.7 -2 5 C-2.99 4.67 -3.98 4.34 -5 4 C-4.01 3.67 -3.02 3.34 -2 3 C-1.34 2.01 -0.68 1.02 0 0 Z " fill="#A53C2D" transform="translate(59,80)"/>
<path d="M0 0 C0.66 0.66 1.32 1.32 2 2 C0.02 4.64 -1.96 7.28 -4 10 C-5 6 -5 6 -5 4 C-6.32 4 -7.64 4 -9 4 C-9 3.34 -9 2.68 -9 2 C-7.54536519 1.61090015 -6.08608793 1.23911971 -4.625 0.875 C-3.40683594 0.56175781 -3.40683594 0.56175781 -2.1640625 0.2421875 C-1.44992188 0.16226563 -0.73578125 0.08234375 0 0 Z " fill="#211E6C" transform="translate(186,44)"/>
<path d="M0 0 C3.36591866 1.44253657 5.51047079 3.33264727 8 6 C5 7 5 7 1 7 C1.99 7.66 2.98 8.32 4 9 C4 9.66 4 10.32 4 11 C1.05043472 9.63055898 -1.52468811 8.12169591 -4 6 C-4 5.34 -4 4.68 -4 4 C-1.69 4 0.62 4 3 4 C2.01 3.34 1.02 2.68 0 2 C0 1.34 0 0.68 0 0 Z " fill="#312B76" transform="translate(49,32)"/>
<path d="M0 0 C0.99 0.33 1.98 0.66 3 1 C2.34 3.31 1.68 5.62 1 8 C-0.98 8 -2.96 8 -5 8 C-4.66275164 4.88045262 -4.3790035 3.3790035 -2.125 1.125 C-1.42375 0.75375 -0.7225 0.3825 0 0 Z " fill="#DEEEE6" transform="translate(108,194)"/>
<path d="M0 0 C0.99 0.33 1.98 0.66 3 1 C2.34 1 1.68 1 1 1 C0.67 2.32 0.34 3.64 0 5 C0.86625 3.9790625 0.86625 3.9790625 1.75 2.9375 C2.4925 2.298125 3.235 1.65875 4 1 C6.25 1.25 6.25 1.25 8 2 C8 3.65 8 5.3 8 7 C7.01 7 6.02 7 5 7 C5.66 6.01 6.32 5.02 7 4 C6.34 4 5.68 4 5 4 C4.34 5.32 3.68 6.64 3 8 C1.68 7.67 0.36 7.34 -1 7 C-0.67 4.69 -0.34 2.38 0 0 Z " fill="#F5E60D" transform="translate(165,103)"/>
<path d="M0 0 C1.65 0 3.3 0 5 0 C4.67 0.99 4.34 1.98 4 3 C3.93334624 4.39439664 3.91461801 5.79169875 3.9375 7.1875 C3.958125 8.445625 3.97875 9.70375 4 11 C3.34 11 2.68 11 2 11 C1.67 8.69 1.34 6.38 1 4 C0.01 6.31 -0.98 8.62 -2 11 C-3 9 -3 9 -2.44140625 6.8359375 C-2.15136719 6.02382812 -1.86132812 5.21171875 -1.5625 4.375 C-1.27503906 3.55773437 -0.98757812 2.74046875 -0.69140625 1.8984375 C-0.46324219 1.27195313 -0.23507813 0.64546875 0 0 Z " fill="#747373" transform="translate(107,208)"/>
<path d="M0 0 C4.875 4.625 4.875 4.625 6 8 C3.69 7.67 1.38 7.34 -1 7 C-0.01 8.32 0.98 9.64 2 11 C-0.86697492 9.71480435 -2.97607712 8.42870746 -5 6 C-5 5.34 -5 4.68 -5 4 C-3.02 4 -1.04 4 1 4 C0.67 2.68 0.34 1.36 0 0 Z " fill="#2B2671" transform="translate(61,22)"/>
<path d="M0 0 C2.97 0.33 5.94 0.66 9 1 C9 3.31 9 5.62 9 8 C8.34 7.67 7.68 7.34 7 7 C7.33 6.01 7.66 5.02 8 4 C7.34 4 6.68 4 6 4 C5.67 4.66 5.34 5.32 5 6 C5 5.34 5 4.68 5 4 C3.68 4 2.36 4 1 4 C1.66 5.32 2.32 6.64 3 8 C2.01 7.67 1.02 7.34 0 7 C0 4.69 0 2.38 0 0 Z " fill="#EFDB10" transform="translate(166,94)"/>
<path d="M0 0 C0.66 0 1.32 0 2 0 C2.75 2.25 2.75 2.25 3 5 C1.375 7.375 1.375 7.375 -1 9 C-5.3 8.7 -5.3 8.7 -7 7 C-7.04080783 5.00041636 -7.04254356 2.99954746 -7 1 C-6.34 1 -5.68 1 -5 1 C-5 2.65 -5 4.3 -5 6 C-3.02 5.67 -1.04 5.34 1 5 C0.67 3.35 0.34 1.7 0 0 Z " fill="#EFD80F" transform="translate(55,91)"/>
<path d="M0 0 C0.99 0 1.98 0 3 0 C3 1.98 3 3.96 3 6 C4.32 6.33 5.64 6.66 7 7 C5.68 7 4.36 7 3 7 C3 9.64 3 12.28 3 15 C2.01 14.67 1.02 14.34 0 14 C0 9.38 0 4.76 0 0 Z " fill="#99131B" transform="translate(163,82)"/>
<path d="M0 0 C3.63 0 7.26 0 11 0 C11 0.66 11 1.32 11 2 C9.68 2 8.36 2 7 2 C7 3.98 7 5.96 7 8 C5.8274869 7.04882866 4.66212985 6.08882991 3.5 5.125 C2.8503125 4.59132813 2.200625 4.05765625 1.53125 3.5078125 C1.0259375 3.01023438 0.520625 2.51265625 0 2 C0 1.34 0 0.68 0 0 Z " fill="#01015D" transform="translate(34,51)"/>
<path d="M0 0 C2.31 0.66 4.62 1.32 7 2 C7.12375 2.639375 7.2475 3.27875 7.375 3.9375 C7.58125 4.618125 7.7875 5.29875 8 6 C8.66 6.33 9.32 6.66 10 7 C9.67 7.66 9.34 8.32 9 9 C5.41087588 9 4.89142971 8.33563446 2.3125 6 C1.68988281 5.443125 1.06726563 4.88625 0.42578125 4.3125 C-0.04472656 3.879375 -0.51523438 3.44625 -1 3 C-0.67 2.01 -0.34 1.02 0 0 Z " fill="#9D1F20" transform="translate(143,48)"/>
<path d="M0 0 C1.2065625 0.0309375 1.2065625 0.0309375 2.4375 0.0625 C-0.5625 2.0625 -0.5625 2.0625 -2.5625 2.0625 C-1.9025 3.7125 -1.2425 5.3625 -0.5625 7.0625 C0.4275 7.0625 1.4175 7.0625 2.4375 7.0625 C2.7675 6.4025 3.0975 5.7425 3.4375 5.0625 C2.4475 4.7325 1.4575 4.4025 0.4375 4.0625 C1.7575 3.7325 3.0775 3.4025 4.4375 3.0625 C5.0625 4.9375 5.0625 4.9375 5.4375 7.0625 C3.4375 9.0625 3.4375 9.0625 0.4375 9.375 C-0.5525 9.271875 -1.5425 9.16875 -2.5625 9.0625 C-4.5625 6.0625 -4.5625 6.0625 -4.25 3.4375 C-3.27807854 0.07995314 -3.27807854 0.07995314 0 0 Z " fill="#26216D" transform="translate(70.5625,16.9375)"/>
<path d="M0 0 C0 1.32 0 2.64 0 4 C-8.57142857 4.28571429 -8.57142857 4.28571429 -12 2 C-8.09971775 -0.60018816 -4.52565431 -0.15085514 0 0 Z " fill="#F3F3F3" transform="translate(85,167)"/>
<path d="M0 0 C4.82360189 -0.19294408 8.49646738 0.24252386 13 2 C13 2.33 13 2.66 13 3 C8.59085217 4.10228696 4.51617599 4.07654536 0 4 C0 2.68 0 1.36 0 0 Z " fill="#F5F5F5" transform="translate(139,167)"/>
<path d="M0 0 C2.31865495 1.27925791 2.8718406 2.56996323 3.8125 5 C3.1525 5 2.4925 5 1.8125 5 C1.4825 4.34 1.1525 3.68 0.8125 3 C-0.1775 2.67 -1.1675 2.34 -2.1875 2 C-1.1975 3.65 -0.2075 5.3 0.8125 7 C-1.6625 6.01 -1.6625 6.01 -4.1875 5 C-3.5275 6.65 -2.8675 8.3 -2.1875 10 C-4.125 9.25 -4.125 9.25 -6.1875 8 C-6.9375 5.875 -6.9375 5.875 -7.1875 4 C-2.82386364 0 -2.82386364 0 0 0 Z " fill="#25216C" transform="translate(179.1875,35)"/>
<path d="M0 0 C0.66 0 1.32 0 2 0 C1.67 1.65 1.34 3.3 1 5 C1.66 4.67 2.32 4.34 3 4 C3.33 3.01 3.66 2.02 4 1 C4.66 1 5.32 1 6 1 C5.67 2.65 5.34 4.3 5 6 C5.66 6 6.32 6 7 6 C7.66 4.68 8.32 3.36 9 2 C9.33 2.66 9.66 3.32 10 4 C9.0625 6.625 9.0625 6.625 8 9 C5.03 8.01 2.06 7.02 -1 6 C-0.67 4.02 -0.34 2.04 0 0 Z " fill="#28236E" transform="translate(30,58)"/>
<path d="M0 0 C2.48044315 3.72066472 2.44381173 6.86540474 2.625 11.1875 C2.66367188 11.93708984 2.70234375 12.68667969 2.7421875 13.45898438 C2.83628216 15.30559199 2.91922319 17.1527619 3 19 C2.01 19 1.02 19 0 19 C0 12.73 0 6.46 0 0 Z " fill="#078543" transform="translate(72,181)"/>
<path d="M0 0 C0.66 0.33 1.32 0.66 2 1 C1.67 1.66 1.34 2.32 1 3 C2.98 3 4.96 3 7 3 C7 4.32 7 5.64 7 7 C6.34 7.66 5.68 8.32 5 9 C2.875 8.625 2.875 8.625 1 8 C1.99 7.67 2.98 7.34 4 7 C4.33 6.34 4.66 5.68 5 5 C3.02 5 1.04 5 -1 5 C-1 1 -1 1 0 0 Z " fill="#F7EC0A" transform="translate(81,36)"/>
<path d="M0 0 C0.66 0 1.32 0 2 0 C2 0.99 2 1.98 2 3 C3.65 3.33 5.3 3.66 7 4 C7 6.31 7 8.62 7 11 C6.67 11 6.34 11 6 11 C5.67 9.02 5.34 7.04 5 5 C4.34 5 3.68 5 3 5 C2.67 6.98 2.34 8.96 2 11 C1.34 11 0.68 11 0 11 C0 7.37 0 3.74 0 0 Z " fill="#4C4947" transform="translate(17,208)"/>
<path d="M0 0 C1.010625 0.0825 2.02125 0.165 3.0625 0.25 C5.0625 3.25 5.0625 3.25 4.6875 5.4375 C4.48125 6.035625 4.275 6.63375 4.0625 7.25 C3.4025 6.92 2.7425 6.59 2.0625 6.25 C2.0625 5.26 2.0625 4.27 2.0625 3.25 C0.08713255 3.59786708 0.08713255 3.59786708 -1.9375 4.25 C-2.2675 4.91 -2.5975 5.57 -2.9375 6.25 C-3.5975 6.25 -4.2575 6.25 -4.9375 6.25 C-3.87489612 0.32977839 -3.87489612 0.32977839 0 0 Z " fill="#F4E212" transform="translate(166.9375,64.75)"/>
<path d="M0 0 C3.37503669 1.1858237 5.64722731 2.27573689 8 5 C7.01 6.485 7.01 6.485 6 8 C2.375 8.1875 2.375 8.1875 -1 8 C-0.67 7.34 -0.34 6.68 0 6 C1.32 6 2.64 6 4 6 C2.35 4.35 0.7 2.7 -1 1 C-0.67 0.67 -0.34 0.34 0 0 Z " fill="#EAD013" transform="translate(59,56)"/>
<path d="M0 0 C2.97 0 5.94 0 9 0 C9.33 0.99 9.66 1.98 10 3 C6.04 4.98 6.04 4.98 2 7 C1.67 6.01 1.34 5.02 1 4 C1.99 3.34 2.98 2.68 4 2 C2.68 1.34 1.36 0.68 0 0 Z " fill="#F5E90C" transform="translate(51,108)"/>
<path d="M0 0 C0.66 0 1.32 0 2 0 C2.66 1.98 3.32 3.96 4 6 C4.99 4.68 5.98 3.36 7 2 C7.66 2.33 8.32 2.66 9 3 C8.21654285 4.17219543 7.42297164 5.33763668 6.625 6.5 C6.18414062 7.1496875 5.74328125 7.799375 5.2890625 8.46875 C4.65097656 9.22671875 4.65097656 9.22671875 4 10 C3.34 10 2.68 10 2 10 C1.34 6.7 0.68 3.4 0 0 Z " fill="#2B2872" transform="translate(125,7)"/>
<path d="M0 0 C0.66 1.32 1.32 2.64 2 4 C0.68 4.33 -0.64 4.66 -2 5 C-2 8.10551666 -1.4606285 9.35261084 0 12 C-3 10.1875 -3 10.1875 -6 8 C-6 5 -6 5 -4.6875 3.61328125 C-3.125 2.40885417 -1.5625 1.20442708 0 0 Z " fill="#D9DFD7" transform="translate(121,182)"/>
<path d="M0 0 C1.32 0.66 2.64 1.32 4 2 C4 2.99 4 3.98 4 5 C2.02 5.99 2.02 5.99 0 7 C-0.99 5.68 -1.98 4.36 -3 3 C-2.01 2.01 -1.02 1.02 0 0 Z " fill="#CF2119" transform="translate(120,185)"/>
<path d="M0 0 C0.66 0 1.32 0 2 0 C2 0.66 2 1.32 2 2 C4.31 2.33 6.62 2.66 9 3 C8.67 3.99 8.34 4.98 8 6 C5.69 5.67 3.38 5.34 1 5 C0.67 5.66 0.34 6.32 0 7 C0 4.69 0 2.38 0 0 Z " fill="#F2E20C" transform="translate(48,82)"/>
<path d="M0 0 C1.32 0.33 2.64 0.66 4 1 C4 3.64 4 6.28 4 9 C3.01 9 2.02 9 1 9 C-0.4783226 6.04335481 -0.06032783 3.25770263 0 0 Z " fill="#E8CE0D" transform="translate(104,29)"/>
<path d="M0 0 C1.67542976 0.28604898 3.34385343 0.61781233 5 1 C4.67 2.32 4.34 3.64 4 5 C2.35 5.33 0.7 5.66 -1 6 C-1.042721 4.33388095 -1.04063832 2.66617115 -1 1 C-0.67 0.67 -0.34 0.34 0 0 Z " fill="#F1F0F4" transform="translate(158,22)"/>
<path d="M0 0 C2.64 1.65 5.28 3.3 8 5 C6 7 6 7 2.875 7.125 C1.451875 7.063125 1.451875 7.063125 0 7 C0 4.69 0 2.38 0 0 Z " fill="#DEEFE7" transform="translate(115,195)"/>
<path d="M0 0 C2.0625 0.4375 2.0625 0.4375 4 1 C3.67 2.65 3.34 4.3 3 6 C1.35 5.67 -0.3 5.34 -2 5 C-1.125 1.125 -1.125 1.125 0 0 Z " fill="#F2F1F4" transform="translate(117,8)"/>
<path d="M0 0 C0 0.66 0 1.32 0 2 C-2.97 2.66 -5.94 3.32 -9 4 C-9.33 2.68 -9.66 1.36 -10 0 C-6.33694766 -0.74926071 -3.57644848 -1.2380014 0 0 Z " fill="#EEDC0C" transform="translate(59,102)"/>
<path d="M0 0 C0.99 0.33 1.98 0.66 3 1 C2.34 1 1.68 1 1 1 C1.33 1.66 1.66 2.32 2 3 C2.78375 2.814375 3.5675 2.62875 4.375 2.4375 C7 2 7 2 9 3 C9 3.66 9 4.32 9 5 C2.25 6.125 2.25 6.125 0 5 C0 3.35 0 1.7 0 0 Z " fill="#AA4521" transform="translate(166,89)"/>
<path d="M0 0 C0.99 0.33 1.98 0.66 3 1 C3 1.66 3 2.32 3 3 C1.35666496 4.03789581 -0.31243867 5.03567924 -2 6 C-2.66 6.66 -3.32 7.32 -4 8 C-4.33 6.35 -4.66 4.7 -5 3 C-2.6875 1.4375 -2.6875 1.4375 0 0 Z " fill="#F5E40D" transform="translate(162,55)"/>
<path d="M0 0 C0.99 0.33 1.98 0.66 3 1 C2.67 1.66 2.34 2.32 2 3 C2.66 3.33 3.32 3.66 4 4 C3.67 4.99 3.34 5.98 3 7 C1.68 6.67 0.36 6.34 -1 6 C-1.33 4.35 -1.66 2.7 -2 1 C-1.34 0.67 -0.68 0.34 0 0 Z " fill="#E5E3EA" transform="translate(70,18)"/>
<path d="M0 0 C0.66 0 1.32 0 2 0 C2 2.31 2 4.62 2 7 C3.65 7 5.3 7 7 7 C7 7.66 7 8.32 7 9 C4.69 9 2.38 9 0 9 C0 6.03 0 3.06 0 0 Z " fill="#494584" transform="translate(105,7)"/>
<path d="M0 0 C0.598125 0.78375 1.19625 1.5675 1.8125 2.375 C3.91085249 5.14574323 3.91085249 5.14574323 7 7 C5.35 7.33 3.7 7.66 2 8 C0.68 6.02 -0.64 4.04 -2 2 C-1.34 1.34 -0.68 0.68 0 0 Z " fill="#F7EA0E" transform="translate(72,42)"/>
<path d="M0 0 C0.515625 0.37125 1.03125 0.7425 1.5625 1.125 C1.5625 1.785 1.5625 2.445 1.5625 3.125 C-2.22456732 3.125 -5.70263121 2.6995952 -9.4375 2.125 C-9.4375 1.795 -9.4375 1.465 -9.4375 1.125 C-3.0375 -1.09038462 -3.0375 -1.09038462 0 0 Z M-9.4375 3.125 C-8.1175 3.455 -6.7975 3.785 -5.4375 4.125 C-6.4275 4.455 -7.4175 4.785 -8.4375 5.125 C-8.7675 4.465 -9.0975 3.805 -9.4375 3.125 Z " fill="#A53D20" transform="translate(132.4375,37.875)"/>
<path d="M0 0 C0.66 0.66 1.32 1.32 2 2 C0.68 3.32 -0.64 4.64 -2 6 C-1.34 7.65 -0.68 9.3 0 11 C-3.16115776 9.63016497 -3.9927092 9.0109362 -6 6 C-4.02 4.02 -2.04 2.04 0 0 Z " fill="#2F2A71" transform="translate(171,28)"/>
<path d="M0 0 C1.98 0.495 1.98 0.495 4 1 C4 2.65 4 4.3 4 6 C2.35 5.67 0.7 5.34 -1 5 C-0.67 3.35 -0.34 1.7 0 0 Z " fill="#FBFBFB" transform="translate(92,10)"/>
<path d="M0 0 C1.67542976 0.28604898 3.34385343 0.61781233 5 1 C5 1.99 5 2.98 5 4 C3.02 4 1.04 4 -1 4 C-1.33 4.66 -1.66 5.32 -2 6 C-1.125 1.125 -1.125 1.125 0 0 Z " fill="#666463" transform="translate(171,211)"/>
<path d="M0 0 C1.67542976 0.28604898 3.34385343 0.61781233 5 1 C5 1.99 5 2.98 5 4 C3.02 4 1.04 4 -1 4 C-1.33 4.66 -1.66 5.32 -2 6 C-1.125 1.125 -1.125 1.125 0 0 Z " fill="#676565" transform="translate(28,211)"/>
<path d="M0 0 C1.98 0.495 1.98 0.495 4 1 C3.67 2.65 3.34 4.3 3 6 C1.68 5.67 0.36 5.34 -1 5 C-0.67 3.35 -0.34 1.7 0 0 Z " fill="#F8F8F7" transform="translate(79,212)"/>
<path d="M0 0 C1.98 0.495 1.98 0.495 4 1 C3.67 2.65 3.34 4.3 3 6 C1.68 5.67 0.36 5.34 -1 5 C-0.67 3.35 -0.34 1.7 0 0 Z " fill="#F8F8F7" transform="translate(70,212)"/>
<path d="M0 0 C0.33 0 0.66 0 1 0 C1.3125 2.75 1.3125 2.75 1 6 C-1.5 8.375 -1.5 8.375 -4 10 C-4.66 9.67 -5.32 9.34 -6 9 C-5.75 7.125 -5.75 7.125 -5 5 C-3.68352881 4.30062468 -2.34977849 3.63270867 -1 3 C-0.67 2.01 -0.34 1.02 0 0 Z " fill="#F7F6F4" transform="translate(115,176)"/>
<path d="M0 0 C1.65 0.33 3.3 0.66 5 1 C4.67 2.32 4.34 3.64 4 5 C2.35 4.67 0.7 4.34 -1 4 C-0.67 2.68 -0.34 1.36 0 0 Z " fill="#CB312A" transform="translate(110,175)"/>
<path d="M0 0 C1.65 0 3.3 0 5 0 C5 1.65 5 3.3 5 5 C4.01 5.495 4.01 5.495 3 6 C3 5.34 3 4.68 3 4 C1.68 4 0.36 4 -1 4 C-0.67 2.68 -0.34 1.36 0 0 Z " fill="#A9D6BE" transform="translate(123,173)"/>
<path d="M0 0 C0.66 0 1.32 0 2 0 C2 0.66 2 1.32 2 2 C4.31 2.66 6.62 3.32 9 4 C8.67 5.32 8.34 6.64 8 8 C7.34 8 6.68 8 6 8 C6 7.34 6 6.68 6 6 C4.68 6 3.36 6 2 6 C1.34 4.02 0.68 2.04 0 0 Z " fill="#DDB41C" transform="translate(162,71)"/>
<path d="M0 0 C0.99 0.99 1.98 1.98 3 3 C-2.625 7 -2.625 7 -6 7 C-6 6.34 -6 5.68 -6 5 C-4.04072937 3.2856382 -2.04119788 1.61594832 0 0 Z " fill="#F6E80A" transform="translate(155,46)"/>
<path d="M0 0 C4.95 0.33 9.9 0.66 15 1 C15 1.33 15 1.66 15 2 C10.05 2.33 5.1 2.66 0 3 C0 2.01 0 1.02 0 0 Z " fill="#9B1013" transform="translate(101,39)"/>
<path d="M0 0 C0.99 0.33 1.98 0.66 3 1 C3.33 3.64 3.66 6.28 4 9 C3.34 8.34 2.68 7.68 2 7 C2 5.68 2 4.36 2 3 C1.34 3 0.68 3 0 3 C-0.33 4.98 -0.66 6.96 -1 9 C-2.0326802 6.21176345 -2.04509293 5.1322726 -1.0625 2.25 C-0.711875 1.5075 -0.36125 0.765 0 0 Z " fill="#3F3D3B" transform="translate(100,208)"/>
<path d="M0 0 C1.32 0.66 2.64 1.32 4 2 C4 2.66 4 3.32 4 4 C4.66 4.33 5.32 4.66 6 5 C3.03 5 0.06 5 -3 5 C-2.01 3.35 -1.02 1.7 0 0 Z " fill="#941110" transform="translate(111,154)"/>
<path d="M0 0 C0.66 0 1.32 0 2 0 C2 0.66 2 1.32 2 2 C2.99 2 3.98 2 5 2 C5.33 2.99 5.66 3.98 6 5 C4.02 5.33 2.04 5.66 0 6 C0 4.02 0 2.04 0 0 Z " fill="#A83F24" transform="translate(50,91)"/>
<path d="M0 0 C1.32 0.99 2.64 1.98 4 3 C3.67 4.32 3.34 5.64 3 7 C2.01 6.67 1.02 6.34 0 6 C0 5.34 0 4.68 0 4 C-0.66 3.67 -1.32 3.34 -2 3 C-2 2.34 -2 1.68 -2 1 C-1.34 0.67 -0.68 0.34 0 0 Z " fill="#B7B4CC" transform="translate(207,64)"/>
<path d="M0 0 C0.598125 0.20625 1.19625 0.4125 1.8125 0.625 C1.1525 0.625 0.4925 0.625 -0.1875 0.625 C0.4725 3.265 1.1325 5.905 1.8125 8.625 C1.1525 8.625 0.4925 8.625 -0.1875 8.625 C-0.455625 7.84125 -0.72375 7.0575 -1 6.25 C-2.03564432 3.34385077 -2.03564432 3.34385077 -5.1875 1.625 C-2.1875 -0.375 -2.1875 -0.375 0 0 Z " fill="#27226D" transform="translate(84.1875,11.375)"/>
<path d="M0 0 C1.98 0 3.96 0 6 0 C5.67 1.32 5.34 2.64 5 4 C3.35 4 1.7 4 0 4 C0 2.68 0 1.36 0 0 Z " fill="#A09F9E" transform="translate(185,215)"/>
<path d="M0 0 C0.99 0.33 1.98 0.66 3 1 C2.67 6.61 2.34 12.22 2 18 C1.67 18 1.34 18 1 18 C0.67 12.06 0.34 6.12 0 0 Z " fill="#108E4E" transform="translate(149,171)"/>
<path d="M0 0 C0.66 0 1.32 0 2 0 C2 2.64 2 5.28 2 8 C0.35 7.67 -1.3 7.34 -3 7 C-2.67 5.68 -2.34 4.36 -2 3 C-1.01 3 -0.02 3 1 3 C0.67 2.01 0.34 1.02 0 0 Z " fill="#DAAE1A" transform="translate(174,84)"/>
<path d="M0 0 C4.75 0.75 4.75 0.75 7 3 C6.01 3.33 5.02 3.66 4 4 C2.30117552 6.49759982 2.30117552 6.49759982 1 9 C0.34 8.67 -0.32 8.34 -1 8 C-0.01 5.69 0.98 3.38 2 1 C1.34 0.67 0.68 0.34 0 0 Z " fill="#1D1A6A" transform="translate(149,15)"/>
<path d="M0 0 C1 2 1 2 0.25 5.0625 C-0.1625 6.031875 -0.575 7.00125 -1 8 C-1.99 8.33 -2.98 8.66 -4 9 C-4.66 9.66 -5.32 10.32 -6 11 C-5.38722388 8.03824877 -4.74627478 6.61941217 -3 4 C-2.34 4 -1.68 4 -1 4 C-0.67 2.68 -0.34 1.36 0 0 Z " fill="#98181B" transform="translate(63,72)"/>
<path d="M0 0 C1.65 0 3.3 0 5 0 C5 1.32 5 2.64 5 4 C2.03 3.505 2.03 3.505 -1 3 C-0.67 2.01 -0.34 1.02 0 0 Z " fill="#A02E22" transform="translate(52,74)"/>
<path d="M0 0 C0.5775 0.45375 1.155 0.9075 1.75 1.375 C3.7800333 2.84113516 5.73539843 3.94857784 8 5 C7 6 7 6 4.5625 6.1875 C2 6 2 6 0 4 C0 2.68 0 1.36 0 0 Z " fill="#FBF20A" transform="translate(63,51)"/>
<path d="M0 0 C3.36591866 1.44253657 5.51047079 3.33264727 8 6 C4.71023192 7.09658936 3.28696233 6.79953138 0 6 C0.99 5.34 1.98 4.68 3 4 C2.01 3.34 1.02 2.68 0 2 C0 1.34 0 0.68 0 0 Z " fill="#1A1569" transform="translate(49,32)"/>
<path d="M0 0 C2.31 0 4.62 0 7 0 C7 1.32 7 2.64 7 4 C4.69 4 2.38 4 0 4 C1.32 3.34 2.64 2.68 4 2 C2.68 1.34 1.36 0.68 0 0 Z " fill="#0C2F1A" transform="translate(77,163)"/>
<path d="M0 0 C0.99 0.33 1.98 0.66 3 1 C1.75 3 1.75 3 0 5 C-1.32 5 -2.64 5 -4 5 C-2.25 1.125 -2.25 1.125 0 0 Z " fill="#9A1B22" transform="translate(163,58)"/>
<path d="M0 0 C2.475 0.99 2.475 0.99 5 2 C4.67 3.32 4.34 4.64 4 6 C3.01 6 2.02 6 1 6 C0.67 4.02 0.34 2.04 0 0 Z " fill="#8480AB" transform="translate(189,53)"/>
<path d="M0 0 C1.875 0.25 1.875 0.25 4 1 C5.25 3.0625 5.25 3.0625 6 5 C4.35 4.67 2.7 4.34 1 4 C0.67 2.68 0.34 1.36 0 0 Z " fill="#9F2622" transform="translate(65,50)"/>
<path d="M0 0 C-0.33 0.99 -0.66 1.98 -1 3 C-1.99 3.33 -2.98 3.66 -4 4 C-4 3.34 -4 2.68 -4 2 C-5.32 2 -6.64 2 -8 2 C-8 1.34 -8 0.68 -8 0 C-4.94736336 -0.98120464 -3.05263664 -0.98120464 0 0 Z " fill="#666295" transform="translate(185,46)"/>
<path d="M0 0 C1.32 0.66 2.64 1.32 4 2 C3.67 3.32 3.34 4.64 3 6 C1.02 6 -0.96 6 -3 6 C-3 5.01 -3 4.02 -3 3 C-1.68 3.66 -0.36 4.32 1 5 C0.67 3.35 0.34 1.7 0 0 Z " fill="#F4E20F" transform="translate(134,36)"/>
<path d="M0 0 C1.99954746 -0.04254356 4.00041636 -0.04080783 6 0 C7 1 7 1 7.0625 4.0625 C7.041875 5.031875 7.02125 6.00125 7 7 C6.01 7 5.02 7 4 7 C4 5.35 4 3.7 4 2 C2.68 1.34 1.36 0.68 0 0 Z " fill="#201E6D" transform="translate(91,9)"/>
<path d="M0 0 C1.65 0 3.3 0 5 0 C4.34 0.66 3.68 1.32 3 2 C2.60235737 3.98821313 2.26224651 5.98944339 2 8 C1.34 8 0.68 8 0 8 C0 5.36 0 2.72 0 0 Z " fill="#5B5A58" transform="translate(178,211)"/>
<path d="M0 0 C2.875 0.3125 2.875 0.3125 6 1 C6.66 1.99 7.32 2.98 8 4 C4.28400809 4.20086443 3.22791555 4.1519437 0 2 C0 1.34 0 0.68 0 0 Z " fill="#991423" transform="translate(56,59)"/>
<path d="M0 0 C0 0.66 0 1.32 0 2 C-1.32 2 -2.64 2 -4 2 C-4 2.66 -4 3.32 -4 4 C-5.9375 3.625 -5.9375 3.625 -8 3 C-8.33 2.34 -8.66 1.68 -9 1 C-5.846632 0.29925156 -3.27275026 0 0 0 Z " fill="#656097" transform="translate(45,51)"/>
<path d="M0 0 C0.99 0.33 1.98 0.66 3 1 C3 2.98 3 4.96 3 7 C2.01 7 1.02 7 0 7 C0 4.69 0 2.38 0 0 Z " fill="#A02C20" transform="translate(113,30)"/>
<path d="M0 0 C3.78611227 0.54087318 5.55400767 2.11722332 8 5 C8 5.66 8 6.32 8 7 C4.2047869 5.50902342 2.38957269 3.24299151 0 0 Z " fill="#312E75" transform="translate(52,29)"/>
<path d="M0 0 C2.97 0.495 2.97 0.495 6 1 C5.34 1.66 4.68 2.32 4 3 C4.99 4.32 5.98 5.64 7 7 C4.13302508 5.71480435 2.02392288 4.42870746 0 2 C0 1.34 0 0.68 0 0 Z " fill="#181467" transform="translate(56,26)"/>
<path d="M0 0 C1.65 0 3.3 0 5 0 C5 1.32 5 2.64 5 4 C3.02 4.66 1.04 5.32 -1 6 C-0.67 4.02 -0.34 2.04 0 0 Z " fill="#B0ABC6" transform="translate(137,12)"/>
<path d="M0 0 C1.65 0 3.3 0 5 0 C4.34 0.66 3.68 1.32 3 2 C4.32 2.66 5.64 3.32 7 4 C4.69 4 2.38 4 0 4 C0 2.68 0 1.36 0 0 Z " fill="#0D2E1A" transform="translate(140,163)"/>
<path d="M0 0 C2.31 0 4.62 0 7 0 C6.67 1.32 6.34 2.64 6 4 C4.02 3.34 2.04 2.68 0 2 C0 1.34 0 0.68 0 0 Z " fill="#A83B21" transform="translate(167,98)"/>
<path d="M0 0 C0 1.98 0 3.96 0 6 C-0.99 6 -1.98 6 -3 6 C-3.33 4.35 -3.66 2.7 -4 1 C-1 0 -1 0 0 0 Z " fill="#ADD7C0" transform="translate(126,180)"/>
<path d="M0 0 C-0.33 1.32 -0.66 2.64 -1 4 C-2.65 4.33 -4.3 4.66 -6 5 C-6 4.34 -6 3.68 -6 3 C-2.53846154 0 -2.53846154 0 0 0 Z " fill="#9F2825" transform="translate(158,49)"/>
<path d="M0 0 C0.33 0.66 0.66 1.32 1 2 C1.825 2.165 2.65 2.33 3.5 2.5 C4.325 2.665 5.15 2.83 6 3 C6.33 3.66 6.66 4.32 7 5 C5.02 5.33 3.04 5.66 1 6 C0.67 4.02 0.34 2.04 0 0 Z " fill="#B0511F" transform="translate(119,33)"/>
<path d="M0 0 C0.99 0.33 1.98 0.66 3 1 C2.125 4.875 2.125 4.875 1 6 C-0.66617115 6.04063832 -2.33388095 6.042721 -4 6 C-3.360625 5.71125 -2.72125 5.4225 -2.0625 5.125 C0.15206079 4.17176549 0.15206079 4.17176549 1 2 C0.01 1.67 -0.98 1.34 -2 1 C-1.34 0.67 -0.68 0.34 0 0 Z " fill="#110F64" transform="translate(73,20)"/>
</svg>
