
<!-- Generator: visioncortex VTracer 0.6.4 -->
<svg version="1.1" xmlns="http://www.w3.org/2000/svg" viewBox="0 0 225 225" preserveAspectRatio="xMidYMid meet">
<path d="M0 0 C74.25 0 148.5 0 225 0 C225 74.25 225 148.5 225 225 C150.75 225 76.5 225 0 225 C0 150.75 0 76.5 0 0 Z " fill="#E30615" transform="translate(0,0)"/>
<path d="M0 0 C3.96 0 7.92 0 12 0 C12 2.64 12 5.28 12 8 C14.31 8 16.62 8 19 8 C18.956 8.713 18.912 9.426 18.867 10.16 C18.851 16.202 18.851 16.202 22.047 21.078 C24.644 22.826 27.303 24.411 30 26 C36.519 31.038 36.519 31.038 38 34 C38.072 36.552 38.093 39.075 38.062 41.625 C38.058 42.331 38.053 43.038 38.049 43.766 C38.037 45.51 38.019 47.255 38 49 C42.29 49 46.58 49 51 49 C52.727 53.317 53.255 55.121 53.266 59.5 C53.272 61.068 53.272 61.068 53.279 62.668 C53.269 63.768 53.26 64.867 53.25 66 C53.239 67.696 53.239 67.696 53.227 69.426 C52.865 97.479 41.742 125.09 29.375 149.938 C28.861 150.972 28.348 152.006 27.818 153.072 C22.805 162.865 17.008 173.34 9 181 C6.059 181.422 6.059 181.422 3 181 C-16.35 165.431 -26.505 129.363 -34 107 C-34.357 105.952 -34.357 105.952 -34.722 104.883 C-35.943 101.284 -37.03 97.674 -38 94 C-38.296 92.889 -38.593 91.778 -38.898 90.633 C-40.669 83.08 -41.302 75.865 -41.375 68.125 C-41.396 66.824 -41.396 66.824 -41.417 65.496 C-41.373 59.437 -40.161 54.661 -38 49 C-33.71 49 -29.42 49 -25 49 C-25.046 47.891 -25.093 46.783 -25.141 45.641 C-25.178 44.177 -25.215 42.714 -25.25 41.25 C-25.284 40.52 -25.317 39.791 -25.352 39.039 C-25.414 35.625 -25.39 33.516 -23.297 30.746 C-22.539 30.17 -21.781 29.594 -21 29 C-20.196 28.305 -19.391 27.61 -18.562 26.895 C-17.717 26.207 -16.871 25.52 -16 24.812 C-15.154 24.118 -14.309 23.423 -13.438 22.707 C-11 21 -11 21 -7 20 C-7 16.04 -7 12.08 -7 8 C-4.69 8 -2.38 8 0 8 C0 5.36 0 2.72 0 0 Z " fill="#F7EFEF" transform="translate(107,11)"/>
<path d="M0 0 C4.29 0 8.58 0 13 0 C13 5.61 13 11.22 13 17 C20.59 17 28.18 17 36 17 C35 22 35 22 32 29 C25.4 29 18.8 29 12 29 C12.058 31.674 12.116 34.347 12.176 37.102 C12.215 39.703 12.245 42.304 12.275 44.906 C12.3 46.708 12.334 48.51 12.377 50.312 C12.438 52.909 12.466 55.504 12.488 58.102 C12.514 58.902 12.54 59.702 12.566 60.527 C12.569 64.753 12.215 67.243 9.469 70.556 C8.655 71.363 7.84 72.169 7 73 C3.576 71.583 1.82 70.249 0 67 C-0.257 64.025 -0.35 61.267 -0.293 58.297 C-0.289 57.459 -0.284 56.621 -0.28 55.758 C-0.263 53.088 -0.226 50.419 -0.188 47.75 C-0.172 45.938 -0.159 44.125 -0.146 42.312 C-0.116 37.874 -0.057 33.438 0 29 C-6.27 29 -12.54 29 -19 29 C-24 19.25 -24 19.25 -24 17 C-16.08 17 -8.16 17 0 17 C0 11.39 0 5.78 0 0 Z " fill="#E20916" transform="translate(107,113)"/>
<path d="M0 0 C8.25 0 16.5 0 25 0 C25 3.273 24.701 5.847 24 9 C30.135 12.698 30.135 12.698 37 13 C39.292 10.866 39.953 9.631 40.188 6.5 C40.126 5.675 40.064 4.85 40 4 C40 2.68 40 1.36 40 0 C41.32 0.33 42.64 0.66 44 1 C43.917 2.237 43.835 3.475 43.75 4.75 C43.777 7.746 43.957 8.922 45.438 11.625 C48.963 13.517 51.111 12.752 54.879 11.773 C57.251 11.003 57.251 11.003 60 9 C60.25 6.416 60.25 6.416 60 4 C59.34 3.67 58.68 3.34 58 3 C58.33 2.01 58.66 1.02 59 0 C67.25 0 75.5 0 84 0 C84.021 2.722 84.041 5.445 84.062 8.25 C84.072 9.101 84.081 9.952 84.09 10.829 C84.093 11.509 84.095 12.19 84.098 12.891 C84.103 13.582 84.108 14.273 84.114 14.985 C83.994 17.1 83.576 18.966 83 21 C75.698 20.4 68.571 19.297 61.375 17.938 C60.371 17.751 59.367 17.565 58.332 17.373 C55.887 16.919 53.443 16.461 51 16 C50.869 17.285 50.737 18.57 50.602 19.895 C50.238 23.446 49.578 24.54 47 27 C47.287 29.874 48.086 32.258 49 35 C47.35 35 45.7 35 44 35 C44 32.69 44 30.38 44 28 C42.68 28 41.36 28 40 28 C40 29.98 40 31.96 40 34 C38.68 34 37.36 34 36 34 C36.66 31.69 37.32 29.38 38 27 C37.34 26.484 36.68 25.969 36 25.438 C33.341 22.197 33.848 20.083 34 16 C33.285 16.116 32.569 16.232 31.832 16.351 C28.555 16.882 25.277 17.41 22 17.938 C20.875 18.12 19.749 18.302 18.59 18.49 C12.735 19.432 6.89 20.314 1 21 C0.043 13.823 0 7.382 0 0 Z " fill="#E1101C" transform="translate(71,73)"/>
<path d="M0 0 C8.25 0 16.5 0 25 0 C25.021 2.722 25.041 5.445 25.062 8.25 C25.072 9.101 25.081 9.952 25.09 10.829 C25.093 11.509 25.095 12.19 25.098 12.891 C25.103 13.582 25.108 14.273 25.114 14.985 C24.994 17.1 24.576 18.966 24 21 C16.698 20.4 9.571 19.297 2.375 17.938 C1.371 17.751 0.367 17.565 -0.668 17.373 C-3.113 16.919 -5.557 16.461 -8 16 C-8 17.65 -8 19.3 -8 21 C-8.33 21 -8.66 21 -9 21 C-9 19.02 -9 17.04 -9 15 C-9.66 14.67 -10.32 14.34 -11 14 C-10.218 13.723 -9.435 13.446 -8.629 13.16 C-7.617 12.798 -6.605 12.436 -5.562 12.062 C-4.553 11.703 -3.544 11.343 -2.504 10.973 C-0.097 10.231 -0.097 10.231 1 9 C1.041 7.334 1.043 5.666 1 4 C0.34 3.67 -0.32 3.34 -1 3 C-0.67 2.01 -0.34 1.02 0 0 Z " fill="#E00F1B" transform="translate(130,73)"/>
<path d="M0 0 C1.112 0.002 1.112 0.002 2.246 0.004 C5.442 0.602 7.122 1.236 9.562 3.438 C10.189 6.356 10.032 9.157 9.875 12.125 C9.772 14.868 9.669 17.611 9.562 20.438 C3.623 20.438 -2.317 20.438 -8.438 20.438 C-8.52 17.88 -8.603 15.322 -8.688 12.688 C-8.724 11.889 -8.76 11.09 -8.798 10.267 C-8.852 6.82 -8.691 4.801 -6.699 1.949 C-4.193 0.274 -2.983 -0.078 0 0 Z " fill="#E30612" transform="translate(112.4375,39.5625)"/>
<path d="M0 0 C26.73 0 53.46 0 81 0 C81 0.66 81 1.32 81 2 C80.299 2.015 79.598 2.029 78.876 2.044 C75.688 2.119 72.5 2.215 69.312 2.312 C68.21 2.335 67.107 2.358 65.971 2.381 C64.904 2.416 63.837 2.452 62.738 2.488 C61.759 2.514 60.78 2.541 59.771 2.568 C56.556 3.069 54.611 4.082 52 6 C51.4 8.043 51.4 8.043 51.688 10.188 C51.842 12.075 51.842 12.075 52 14 C50.02 14.33 48.04 14.66 46 15 C46.035 14.374 46.07 13.747 46.105 13.102 C46.146 11.876 46.146 11.876 46.188 10.625 C46.222 9.813 46.257 9.001 46.293 8.164 C46.196 7.45 46.1 6.736 46 6 C42.29 3.527 40.389 3.615 36 4 C33.244 5.45 32.261 6.238 31.25 9.188 C31.168 9.786 31.085 10.384 31 11 C32.485 11.495 32.485 11.495 34 12 C34 12.99 34 13.98 34 15 C32.02 14.67 30.04 14.34 28 14 C28.227 12.907 28.454 11.814 28.688 10.688 C29.386 7.125 29.386 7.125 27.688 5.125 C24.514 3.009 22.352 2.823 18.555 2.684 C17.478 2.642 16.402 2.6 15.293 2.557 C13.601 2.498 13.601 2.498 11.875 2.438 C10.739 2.394 9.604 2.351 8.434 2.307 C5.623 2.2 2.811 2.098 0 2 C0 1.34 0 0.68 0 0 Z " fill="#DD090D" transform="translate(73,66)"/>
<path d="M0 0 C1.32 0.33 2.64 0.66 4 1 C3.918 2.237 3.835 3.475 3.75 4.75 C3.726 8.078 3.759 8.714 6 11.375 C6.66 11.911 7.32 12.448 8 13 C8 13.66 8 14.32 8 15 C8.66 15 9.32 15 10 15 C10.081 16.437 10.139 17.874 10.188 19.312 C10.24 20.513 10.24 20.513 10.293 21.738 C9.934 24.513 8.999 25.15 7 27 C7.287 29.874 8.086 32.258 9 35 C7.35 35 5.7 35 4 35 C4 32.69 4 30.38 4 28 C2.68 28 1.36 28 0 28 C0 29.98 0 31.96 0 34 C-1.32 34 -2.64 34 -4 34 C-3.01 30.535 -3.01 30.535 -2 27 C-2.66 26.505 -3.32 26.01 -4 25.5 C-6.447 22.442 -6.638 20.704 -6.469 16.879 C-5.724 13.893 -3.384 12.803 -1 11 C-0.12 7.207 0 3.893 0 0 Z M-8 14 C-6 15 -6 15 -6 15 Z " fill="#E10813" transform="translate(111,73)"/>
<path d="M0 0 C7.92 0 15.84 0 24 0 C24 3.96 24 7.92 24 12 C17.07 12 10.14 12 3 12 C0 5 0 5 0 0 Z " fill="#E10B17" transform="translate(78,113)"/>
<path d="M0 0 C7.92 0 15.84 0 24 0 C23.01 3.96 22.02 7.92 21 12 C14.07 12 7.14 12 0 12 C0 8.04 0 4.08 0 0 Z " fill="#E20814" transform="translate(125,113)"/>
<path d="M0 0 C0.66 0 1.32 0 2 0 C2 0.66 2 1.32 2 2 C3.33 2.433 3.33 2.433 4.688 2.875 C7.504 3.831 10.251 4.868 13 6 C12.46 9.302 11.74 12.122 10 15 C6.779 16.68 3.571 17.417 0 18 C0 18.66 0 19.32 0 20 C2.31 20.33 4.62 20.66 7 21 C6.67 21.66 6.34 22.32 6 23 C2.37 22.34 -1.26 21.68 -5 21 C-5 19.68 -5 18.36 -5 17 C-2.36 15.68 0.28 14.36 3 13 C0.69 12.34 -1.62 11.68 -4 11 C-3.67 9.68 -3.34 8.36 -3 7 C-2.01 7 -1.02 7 0 7 C-0.186 6.402 -0.371 5.804 -0.562 5.188 C-1 3 -1 3 0 0 Z " fill="#F3E6E6" transform="translate(46,96)"/>
<path d="M0 0 C4.62 0 9.24 0 14 0 C14.274 5.384 14.375 8.545 11 13 C10 14 10 14 7.188 14.312 C4 14 4 14 1.625 12.625 C-0.938 8.484 -0.253 4.808 0 0 Z " fill="#EFD7D7" transform="translate(38,127)"/>
<path d="M0 0 C3.938 0.562 3.938 0.562 6 2.125 C7.357 5.654 6.923 7.95 5.938 11.562 C3.683 14.151 2.332 14.505 -1.062 15 C-4.062 14.562 -4.062 14.562 -6.438 12.875 C-8.062 10.562 -8.062 10.562 -8.562 8.125 C-7.563 3 -5.252 0.271 0 0 Z " fill="#F1DFDF" transform="translate(71.0625,181.4375)"/>
<path d="M0 0 C2.572 0.033 5.143 0.065 7.715 0.098 C7.715 5.048 7.715 9.998 7.715 15.098 C4.085 15.098 0.455 15.098 -3.285 15.098 C-3.312 12.785 -3.331 10.473 -3.348 8.16 C-3.359 6.872 -3.371 5.585 -3.383 4.258 C-3.256 0.139 -3.256 0.139 0 0 Z " fill="#E10813" transform="translate(90.28515625,44.90234375)"/>
<path d="M0 0 C0.815 0.003 1.629 0.005 2.469 0.008 C3.283 0.005 4.098 0.003 4.938 0 C6.969 0.133 6.969 0.133 7.969 1.133 C8.041 3.486 8.052 5.841 8.031 8.195 C8.022 9.486 8.013 10.776 8.004 12.105 C7.992 13.104 7.981 14.104 7.969 15.133 C4.339 15.133 0.709 15.133 -3.031 15.133 C-3.058 12.82 -3.078 10.508 -3.094 8.195 C-3.105 6.908 -3.117 5.62 -3.129 4.293 C-3.002 0.196 -3.002 0.196 0 0 Z " fill="#E2030F" transform="translate(131.03125,44.8671875)"/>
<path d="M0 0 C3 1 3 1 4 3 C4.134 5.672 4.043 8.323 4 11 C4.99 10.67 5.98 10.34 7 10 C7.33 10.99 7.66 11.98 8 13 C6.236 14.033 4.464 15.051 2.688 16.062 C1.701 16.631 0.715 17.199 -0.301 17.785 C-3 19 -3 19 -6 18 C-7.762 14.661 -8.593 11.756 -8 8 C-6.312 6.125 -6.312 6.125 -4 5 C-1.25 5.312 -1.25 5.312 1 6 C0.67 4.02 0.34 2.04 0 0 Z " fill="#ECCDCD" transform="translate(175,92)"/>
<path d="M0 0 C3.63 0 7.26 0 11 0 C11 7.26 11 14.52 11 22 C6.496 16.37 6.496 16.37 5.078 13.301 C4.775 12.649 4.472 11.998 4.16 11.326 C3.86 10.662 3.559 9.997 3.25 9.312 C2.776 8.298 2.776 8.298 2.293 7.264 C0 2.276 0 2.276 0 0 Z " fill="#DE0E18" transform="translate(91,148)"/>
<path d="M0 0 C0.99 0 1.98 0 3 0 C3.33 2.31 3.66 4.62 4 7 C5.65 5.68 7.3 4.36 9 3 C9.66 3.33 10.32 3.66 11 4 C10.67 8.95 10.34 13.9 10 19 C8.68 18.67 7.36 18.34 6 18 C6.33 14.7 6.66 11.4 7 8 C5.855 9.732 5.855 9.732 4.688 11.5 C3.387 13.469 3.387 13.469 2 15 C1.01 15 0.02 15 -1 15 C-1 12.03 -1 9.06 -1 6 C-2.32 8.31 -3.64 10.62 -5 13 C-5.99 12.01 -6.98 11.02 -8 10 C-7.34 10 -6.68 10 -6 10 C-5.732 9.402 -5.464 8.804 -5.188 8.188 C-4.007 6.013 -2.732 4.732 -1 3 C-0.67 2.01 -0.34 1.02 0 0 Z " fill="#F4EBEA" transform="translate(82,189)"/>
<path d="M0 0 C3.63 0 7.26 0 11 0 C8.102 7.287 5.005 14.251 1 21 C0.67 21 0.34 21 0 21 C0 14.07 0 7.14 0 0 Z " fill="#E0060F" transform="translate(125,148)"/>
<path d="M0 0 C9.058 1.068 18.049 2.217 27 4 C26.34 6.64 25.68 9.28 25 12 C19.433 10.339 14.342 7.889 9.125 5.375 C8.246 4.955 7.367 4.535 6.461 4.102 C4.306 3.071 2.152 2.037 0 1 C0 0.67 0 0.34 0 0 Z " fill="#DF0C17" transform="translate(126,95)"/>
<path d="M0 0 C-2.221 2.221 -4.085 3.086 -6.938 4.383 C-7.915 4.828 -8.892 5.272 -9.898 5.73 C-11.434 6.421 -11.434 6.421 -13 7.125 C-14.024 7.593 -15.047 8.061 -16.102 8.543 C-23.741 12 -23.741 12 -26 12 C-26.33 9.36 -26.66 6.72 -27 4 C-23.439 3.326 -19.876 2.662 -16.312 2 C-15.305 1.809 -14.298 1.618 -13.26 1.422 C-12.283 1.241 -11.307 1.061 -10.301 0.875 C-9.405 0.707 -8.51 0.54 -7.587 0.367 C-5.02 0.003 -2.589 -0.065 0 0 Z " fill="#DF0B15" transform="translate(101,95)"/>
<path d="M0 0 C4.008 2.004 5.414 3.491 8 7 C8.33 5.02 8.66 3.04 9 1 C9.99 1 10.98 1 12 1 C12 5.62 12 10.24 12 15 C11.01 15 10.02 15 9 15 C7.395 13.25 7.395 13.25 5.812 11 C5.283 10.257 4.753 9.515 4.207 8.75 C3.61 7.884 3.61 7.884 3 7 C2.67 9.64 2.34 12.28 2 15 C0.68 14.67 -0.64 14.34 -2 14 C-1.34 9.38 -0.68 4.76 0 0 Z " fill="#EED4D4" transform="translate(105,196)"/>
<path d="M0 0 C1.918 0.155 1.918 0.155 3.875 0.312 C4.954 0.4 4.954 0.4 6.055 0.488 C8 1 8 1 10 4 C8.68 4 7.36 4 6 4 C6.186 5.299 6.371 6.599 6.562 7.938 C6.879 10.152 6.879 10.152 7 12 C6 13 6 13 2.562 13.188 C-1 13 -1 13 -3 11 C-3.125 7.875 -3.125 7.875 -3 5 C-2.01 5 -1.02 5 0 5 C0 3.35 0 1.7 0 0 Z " fill="#DF0B16" transform="translate(176,147)"/>
<path d="M0 0 C0.66 0.33 1.32 0.66 2 1 C1.67 4.63 1.34 8.26 1 12 C1.928 11.01 1.928 11.01 2.875 10 C5 8 5 8 7 8 C5.592 11.215 3.897 13.322 1.375 15.75 C0.743 16.364 0.112 16.977 -0.539 17.609 C-1.021 18.068 -1.503 18.527 -2 19 C-2.66 18.67 -3.32 18.34 -4 18 C-3.67 14.37 -3.34 10.74 -3 7 C-5.97 8.98 -5.97 8.98 -9 11 C-9.66 10.01 -10.32 9.02 -11 8 C-9.546 6.994 -8.086 5.996 -6.625 5 C-5.407 4.165 -5.407 4.165 -4.164 3.312 C-2 2 -2 2 0 2 C0 1.34 0 0.68 0 0 Z " fill="#F1E1E0" transform="translate(61,168)"/>
<path d="M0 0 C0.99 0 1.98 0 3 0 C3 2.31 3 4.62 3 7 C5.31 7 7.62 7 10 7 C10 7.99 10 8.98 10 10 C7.69 10 5.38 10 3 10 C3 12.64 3 15.28 3 18 C2.01 18 1.02 18 0 18 C0 15.36 0 12.72 0 10 C-2.64 10 -5.28 10 -8 10 C-8 9.01 -8 8.02 -8 7 C-5.36 7 -2.72 7 0 7 C0 4.69 0 2.38 0 0 Z " fill="#DC1D23" transform="translate(112,16)"/>
<path d="M0 0 C-0.33 0.99 -0.66 1.98 -1 3 C-2.65 3 -4.3 3 -6 3 C-6.33 4.32 -6.66 5.64 -7 7 C-4.36 6.34 -1.72 5.68 1 5 C1 5.99 1 6.98 1 8 C-1.31 8.33 -3.62 8.66 -6 9 C-5.67 9.99 -5.34 10.98 -5 12 C-1.283 12.349 -1.283 12.349 1.812 10.5 C2.204 10.005 2.596 9.51 3 9 C2.625 11.438 2.625 11.438 2 14 C-1.05 15.525 -3.642 15.236 -7 15 C-9.901 13.356 -10.042 11.859 -11 8.625 C-11 5 -11 5 -8.938 2.062 C-5.591 -0.287 -3.995 -0.465 0 0 Z " fill="#F1DFDF" transform="translate(130,195)"/>
<path d="M0 0 C4.75 0.75 4.75 0.75 7 3 C7.424 6.819 7.539 9.124 5.5 12.438 C1.692 14.818 -0.545 14.636 -5 14 C-7.418 11.355 -7.95 9.745 -8.188 6.188 C-8.126 5.466 -8.064 4.744 -8 4 C-7.34 4 -6.68 4 -6 4 C-6 5.98 -6 7.96 -6 10 C-4.68 10 -3.36 10 -2 10 C-2 8.02 -2 6.04 -2 4 C-2.66 4 -3.32 4 -4 4 C-4 3.34 -4 2.68 -4 2 C-2.68 2.33 -1.36 2.66 0 3 C0 5.31 0 7.62 0 10 C1.32 9.34 2.64 8.68 4 8 C3.502 4.312 2.899 2.395 0 0 Z " fill="#F1E0E0" transform="translate(180,110)"/>
<path d="M0 0 C3.163 3.569 4 5.19 4 10 C3.01 10 2.02 10 1 10 C0.67 8.02 0.34 6.04 0 4 C-1.32 3.67 -2.64 3.34 -4 3 C-3.01 5.97 -2.02 8.94 -1 12 C-1.99 12 -2.98 12 -4 12 C-4.33 9.36 -4.66 6.72 -5 4 C-5.99 4.33 -6.98 4.66 -8 5 C-8.407 9.257 -8.407 9.257 -6.5 12.875 C-6.005 13.246 -5.51 13.618 -5 14 C-7.438 13.625 -7.438 13.625 -10 13 C-11.598 9.803 -11.497 6.47 -11 3 C-8.078 -0.741 -4.484 -0.721 0 0 Z " fill="#F2E0E0" transform="translate(51,144)"/>
<path d="M0 0 C0.99 0.33 1.98 0.66 3 1 C3 1.66 3 2.32 3 3 C1.68 3.33 0.36 3.66 -1 4 C-1.33 5.98 -1.66 7.96 -2 10 C0.439 8.074 2.801 6.199 5 4 C5 7.908 3.494 9.116 1 12 C2.65 12 4.3 12 6 12 C6.66 10.35 7.32 8.7 8 7 C8.66 7.33 9.32 7.66 10 8 C9.678 10.975 9.379 12.593 7.312 14.812 C4.265 16.378 2.385 16.494 -1 16 C-4.024 13.931 -4.858 12.726 -5.562 9.125 C-4.791 4.84 -2.979 3.128 0 0 Z " fill="#F7F0EF" transform="translate(156,178)"/>
<path d="M0 0 C0.66 0 1.32 0 2 0 C2 0.66 2 1.32 2 2 C3.33 2.433 3.33 2.433 4.688 2.875 C7.504 3.831 10.251 4.868 13 6 C12.34 8.64 11.68 11.28 11 14 C10.67 13.34 10.34 12.68 10 12 C8.341 11.631 6.672 11.304 5 11 C2.25 10.312 2.25 10.312 0 9 C-1.07 5.406 -1.191 3.573 0 0 Z " fill="#DB1D25" transform="translate(46,96)"/>
<path d="M0 0 C0.99 0.33 1.98 0.66 3 1 C3 1.66 3 2.32 3 3 C2.01 3 1.02 3 0 3 C0.66 5.31 1.32 7.62 2 10 C4.31 10 6.62 10 9 10 C9 7.69 9 5.38 9 3 C9.99 3.33 10.98 3.66 12 4 C12.481 10.25 12.481 10.25 10.438 13.438 C7.033 15.62 4.966 15.637 1 15 C-1.562 13.062 -1.562 13.062 -3 10 C-2.756 6.732 -2.413 2.413 0 0 Z " fill="#F6EEEE" transform="translate(173,149)"/>
<path d="M0 0 C1.792 0.017 1.792 0.017 3.621 0.035 C5.417 0.049 5.417 0.049 7.25 0.062 C8.177 0.074 9.104 0.086 10.059 0.098 C10.059 0.758 10.059 1.418 10.059 2.098 C9.089 2.716 8.12 3.335 7.121 3.973 C3.953 5.748 3.953 5.748 3.184 8.348 C3.142 8.925 3.101 9.503 3.059 10.098 C4.049 10.428 5.039 10.758 6.059 11.098 C6.059 12.088 6.059 13.078 6.059 14.098 C3.089 13.603 3.089 13.603 0.059 13.098 C0.285 12.005 0.512 10.911 0.746 9.785 C1.452 6.226 1.452 6.226 -0.254 4.285 C-0.811 3.893 -1.368 3.501 -1.941 3.098 C-2.601 2.438 -3.261 1.778 -3.941 1.098 C-2.941 0.098 -2.941 0.098 0 0 Z " fill="#E00C18" transform="translate(100.94140625,66.90234375)"/>
<path d="M0 0 C-1 3 -1 3 -3.062 4.188 C-3.702 4.456 -4.341 4.724 -5 5 C-5 5.99 -5 6.98 -5 8 C-3.02 7.67 -1.04 7.34 1 7 C1 7.66 1 8.32 1 9 C-0.32 9.33 -1.64 9.66 -3 10 C-2.01 12.64 -1.02 15.28 0 18 C-1.32 18.33 -2.64 18.66 -4 19 C-5.005 17.044 -6.004 15.085 -7 13.125 C-7.557 12.034 -8.114 10.944 -8.688 9.82 C-10 7 -10 7 -10 5 C-8.32 3.711 -8.32 3.711 -6.125 2.375 C-5.406 1.929 -4.686 1.483 -3.945 1.023 C-2 0 -2 0 0 0 Z " fill="#F2E4E3" transform="translate(149,185)"/>
<path d="M0 0 C0.99 0.33 1.98 0.66 3 1 C2.67 2.65 2.34 4.3 2 6 C6.29 6 10.58 6 15 6 C14.67 7.32 14.34 8.64 14 10 C10.04 9.67 6.08 9.34 2 9 C2.33 10.65 2.66 12.3 3 14 C2.01 14.33 1.02 14.66 0 15 C0 10.05 0 5.1 0 0 Z " fill="#EFD9D9" transform="translate(174,126)"/>
<path d="M0 0 C1.65 0.33 3.3 0.66 5 1 C4.399 6.411 4.399 6.411 2.688 8.938 C1 10 1 10 -1.188 9.688 C-1.786 9.461 -2.384 9.234 -3 9 C-3.75 7.312 -3.75 7.312 -4 5 C-2.062 2.25 -2.062 2.25 0 0 Z " fill="#DE0D17" transform="translate(70,184)"/>
<path d="M0 0 C0.887 0.598 1.774 1.196 2.688 1.812 C5.422 3.618 8.176 5.339 11 7 C11.66 5.02 12.32 3.04 13 1 C13.66 1.33 14.32 1.66 15 2 C14.845 4.709 14.518 6.466 12.598 8.445 C11.102 9.677 9.554 10.843 8 12 C4.667 8.667 1.333 5.333 -2 2 C-1.34 1.34 -0.68 0.68 0 0 Z " fill="#F3E4E3" transform="translate(161,173)"/>
<path d="M0 0 C3.3 0 6.6 0 10 0 C9.25 4.75 9.25 4.75 7 7 C1.432 6.432 1.432 6.432 0 5 C0 3.35 0 1.7 0 0 Z " fill="#DE0A13" transform="translate(40,131)"/>
<path d="M0 0 C7.425 0.99 7.425 0.99 15 2 C14.67 3.65 14.34 5.3 14 7 C9.38 6.01 4.76 5.02 0 4 C0 2.68 0 1.36 0 0 Z " fill="#EED4D5" transform="translate(173,143)"/>
<path d="M0 0 C0.66 0 1.32 0 2 0 C2 0.66 2 1.32 2 2 C1.34 2 0.68 2 0 2 C0 1.34 0 0.68 0 0 Z M-4 2 C-1.525 2.495 -1.525 2.495 1 3 C0.67 3.66 0.34 4.32 0 5 C-0.66 5 -1.32 5 -2 5 C-2 4.34 -2 3.68 -2 3 C-2.66 2.67 -3.32 2.34 -4 2 Z M0 5 C2.438 5.688 2.438 5.688 5 7 C5.938 9.5 5.938 9.5 6 12 C5.34 12.66 4.68 13.32 4 14 C3.01 14 2.02 14 1 14 C0.67 11.03 0.34 8.06 0 5 Z " fill="#DE0F17" transform="translate(179,106)"/>
<path d="M0 0 C4.62 0 9.24 0 14 0 C14 1.98 14 3.96 14 6 C13.34 5.34 12.68 4.68 12 4 C9.338 3.537 9.338 3.537 6.375 3.375 C4.871 3.263 4.871 3.263 3.336 3.148 C2.565 3.099 1.794 3.05 1 3 C0.67 3.99 0.34 4.98 0 6 C0 4.02 0 2.04 0 0 Z " fill="#F5EAEA" transform="translate(38,127)"/>
<path d="M0 0 C2.31 0 4.62 0 7 0 C10 5.75 10 5.75 10 8 C8.35 8 6.7 8 5 8 C5 5.69 5 3.38 5 1 C3.68 1 2.36 1 1 1 C1 2.98 1 4.96 1 7 C-0.32 7 -1.64 7 -3 7 C-1.125 2.25 -1.125 2.25 0 0 Z " fill="#E9C2C2" transform="translate(110,100)"/>
<path d="M0 0 C0 3.863 -0.323 5.17 -3 8 C-6.699 8.447 -10.292 8.283 -14 8 C-11.071 5.666 -8.114 3.95 -4.75 2.312 C-3.858 1.876 -2.966 1.439 -2.047 0.988 C-1.034 0.499 -1.034 0.499 0 0 Z " fill="#DC161F" transform="translate(104,99)"/>
<path d="M0 0 C0.66 0.33 1.32 0.66 2 1 C2 1.99 2 2.98 2 4 C-2.29 5.65 -6.58 7.3 -11 9 C-11.33 7.68 -11.66 6.36 -12 5 C-10.046 4.136 -8.086 3.284 -6.125 2.438 C-5.034 1.962 -3.944 1.486 -2.82 0.996 C-1.89 0.667 -0.959 0.339 0 0 Z " fill="#F2E0E0" transform="translate(55,157)"/>
<path d="M0 0 C0.66 0 1.32 0 2 0 C2 0.66 2 1.32 2 2 C3.33 2.433 3.33 2.433 4.688 2.875 C7.504 3.831 10.251 4.868 13 6 C12.34 7.32 11.68 8.64 11 10 C10.385 9.639 9.77 9.278 9.137 8.906 C8.328 8.442 7.52 7.978 6.688 7.5 C5.887 7.036 5.086 6.572 4.262 6.094 C1.969 4.782 1.969 4.782 -1 5 C-0.67 3.35 -0.34 1.7 0 0 Z " fill="#F2E2E2" transform="translate(46,96)"/>
<path d="M0 0 C4.972 1.492 9.418 3.605 14 6 C14 6.33 14 6.66 14 7 C10.6 7.35 7.386 7.536 4 7 C0 2.524 0 2.524 0 0 Z " fill="#DC1016" transform="translate(122,100)"/>
<path d="M0 0 C4.29 2.31 8.58 4.62 13 7 C12.67 7.99 12.34 8.98 12 10 C7.502 8.313 3.271 6.183 -1 4 C-0.67 2.68 -0.34 1.36 0 0 Z " fill="#F4E7E7" transform="translate(167,163)"/>
<path d="M0 0 C1.65 0.33 3.3 0.66 5 1 C4.01 5.62 3.02 10.24 2 15 C0.68 14.34 -0.64 13.68 -2 13 C-1.34 13 -0.68 13 0 13 C0 8.71 0 4.42 0 0 Z " fill="#EFD7D7" transform="translate(97,195)"/>
<path d="M0 0 C2 0.125 2 0.125 4 1 C5.25 3.062 5.25 3.062 6 5 C2.535 6.485 2.535 6.485 -1 8 C-1.625 5.125 -1.625 5.125 -2 2 C-1.34 1.34 -0.68 0.68 0 0 Z " fill="#DC121B" transform="translate(171,100)"/>
<path d="M0 0 C0.66 1.65 1.32 3.3 2 5 C-2.455 5.495 -2.455 5.495 -7 6 C-7.33 4.68 -7.66 3.36 -8 2 C-4.772 -0.152 -3.716 -0.201 0 0 Z " fill="#DD0D14" transform="translate(151,188)"/>
<path d="M0 0 C0.66 0.33 1.32 0.66 2 1 C2 1.66 2 2.32 2 3 C0.211 4.005 -1.581 5.004 -3.375 6 C-4.373 6.557 -5.37 7.114 -6.398 7.688 C-9 9 -9 9 -11 9 C-10.875 7.125 -10.875 7.125 -10 5 C-7 3.875 -7 3.875 -4 3 C-3.67 2.34 -3.34 1.68 -3 1 C-2.01 0.67 -1.02 0.34 0 0 Z " fill="#F4E6E6" transform="translate(181,102)"/>
<path d="M0 0 C0.99 0.66 1.98 1.32 3 2 C1.125 6.875 1.125 6.875 0 8 C-1.666 8.041 -3.334 8.043 -5 8 C-5 5 -5 5 -2.5 2.312 C-1.675 1.549 -0.85 0.786 0 0 Z " fill="#E10914" transform="translate(162,183)"/>
<path d="M0 0 C0.99 0 1.98 0 3 0 C3.33 3.3 3.66 6.6 4 10 C1.5 8.875 1.5 8.875 -1 7 C-1.375 3.875 -1.375 3.875 -1 1 C-0.67 0.67 -0.34 0.34 0 0 Z " fill="#DC141C" transform="translate(43,148)"/>
<path d="M0 0 C0.66 0.66 1.32 1.32 2 2 C1.34 2 0.68 2 0 2 C0 1.34 0 0.68 0 0 Z M-2 2 C-1.34 2.33 -0.68 2.66 0 3 C-0.33 3.66 -0.66 4.32 -1 5 C-1.352 6.329 -1.688 7.662 -2 9 C-2.33 8.34 -2.66 7.68 -3 7 C-5.97 8.98 -5.97 8.98 -9 11 C-9.66 10.01 -10.32 9.02 -11 8 C-8.03 6.02 -5.06 4.04 -2 2 Z " fill="#F0DBDB" transform="translate(61,168)"/>
<path d="M0 0 C0.66 0.66 1.32 1.32 2 2 C0.384 4.041 -1.286 6.041 -3 8 C-3.66 8 -4.32 8 -5 8 C-5 6.02 -5 4.04 -5 2 C-3.35 1.34 -1.7 0.68 0 0 Z " fill="#DA1E25" transform="translate(159,180)"/>
<path d="M0 0 C0.949 0.041 1.898 0.083 2.875 0.125 C1.942 1.254 1.004 2.378 0.062 3.5 C-0.46 4.126 -0.982 4.753 -1.52 5.398 C-3.125 7.125 -3.125 7.125 -6.125 9.125 C-5.134 0.205 -5.134 0.205 0 0 Z " fill="#F5EDED" transform="translate(70.125,181.875)"/>
<path d="M0 0 C0.66 0 1.32 0 2 0 C1.65 8.193 1.65 8.193 -1.062 11.562 C-1.702 12.037 -2.341 12.511 -3 13 C-2.886 11.208 -2.759 9.416 -2.625 7.625 C-2.555 6.627 -2.486 5.63 -2.414 4.602 C-2 2 -2 2 0 0 Z " fill="#F4E4E4" transform="translate(61,170)"/>
<path d="M0 0 C2.475 0.495 2.475 0.495 5 1 C5 2.98 5 4.96 5 7 C5.66 7.33 6.32 7.66 7 8 C5.35 7.67 3.7 7.34 2 7 C1.34 4.69 0.68 2.38 0 0 Z " fill="#DB1E25" transform="translate(47,147)"/>
<path d="M0 0 C0.99 0.33 1.98 0.66 3 1 C4.188 4.562 4.188 4.562 5 8 C3.02 8.33 1.04 8.66 -1 9 C-0.67 6.03 -0.34 3.06 0 0 Z " fill="#DB0B13" transform="translate(120,72)"/>
<path d="M0 0 C-6.074 4.902 -6.074 4.902 -9.938 5.312 C-10.618 5.209 -11.299 5.106 -12 5 C-12 4.34 -12 3.68 -12 3 C-10.758 2.298 -9.506 1.614 -8.25 0.938 C-7.206 0.363 -7.206 0.363 -6.141 -0.223 C-3.639 -1.131 -2.467 -0.883 0 0 Z " fill="#DC1D23" transform="translate(108,35)"/>
<path d="M0 0 C1.485 0.99 1.485 0.99 3 2 C2.01 2 1.02 2 0 2 C0 1.34 0 0.68 0 0 Z M2 3 C3.32 3 4.64 3 6 3 C6 3.66 6 4.32 6 5 C6.66 5 7.32 5 8 5 C8 6.98 8 8.96 8 11 C7.01 10.67 6.02 10.34 5 10 C5 8.02 5 6.04 5 4 C4.34 4 3.68 4 3 4 C2.67 4.66 2.34 5.32 2 6 C2 5.01 2 4.02 2 3 Z " fill="#D9242B" transform="translate(169,110)"/>
<path d="M0 0 C0.99 0 1.98 0 3 0 C3 0.66 3 1.32 3 2 C3.66 2.33 4.32 2.66 5 3 C4.01 3 3.02 3 2 3 C2 3.66 2 4.32 2 5 C2.66 5 3.32 5 4 5 C4.33 7.31 4.66 9.62 5 12 C4.34 12 3.68 12 3 12 C3 10.02 3 8.04 3 6 C2.34 6 1.68 6 1 6 C1 5.34 1 4.68 1 4 C0.01 4 -0.98 4 -2 4 C-1.34 2.68 -0.68 1.36 0 0 Z " fill="#DE080E" transform="translate(174,109)"/>
<path d="M0 0 C0.562 1.938 0.562 1.938 1 4 C0 5 0 5 -2.562 5.062 C-3.769 5.032 -3.769 5.032 -5 5 C-5.33 3.68 -5.66 2.36 -6 1 C-4 0 -4 0 0 0 Z " fill="#DD131C" transform="translate(130,203)"/>
<path d="M0 0 C5.75 1.875 5.75 1.875 8 3 C8 3.99 8 4.98 8 6 C3.545 5.01 3.545 5.01 -1 4 C-0.67 2.68 -0.34 1.36 0 0 Z " fill="#EBC9C9" transform="translate(43,103)"/>
<path d="M0 0 C3.96 0.33 7.92 0.66 12 1 C11.34 2.32 10.68 3.64 10 5 C5.846 3.773 3.563 2.672 0 0 Z " fill="#D9282D" transform="translate(126,95)"/>
<path d="M0 0 C4.874 0.453 7.39 1.709 11 5 C8.875 5.812 8.875 5.812 6 6 C3.644 4.571 1.996 2.949 0 1 C0 0.67 0 0.34 0 0 Z " fill="#D9171E" transform="translate(119,34)"/>
<path d="M0 0 C0.103 0.639 0.206 1.279 0.312 1.938 C0.539 2.618 0.766 3.299 1 4 C1.99 4.33 2.98 4.66 4 5 C4 5.99 4 6.98 4 8 C1.03 7.505 1.03 7.505 -2 7 C-1.34 4.69 -0.68 2.38 0 0 Z " fill="#D8161C" transform="translate(103,73)"/>
<path d="M0 0 C0.99 0.33 1.98 0.66 3 1 C3 1.66 3 2.32 3 3 C1.68 3.33 0.36 3.66 -1 4 C-1.33 5.65 -1.66 7.3 -2 9 C-2.99 8.67 -3.98 8.34 -5 8 C-3.814 4.625 -2.724 2.353 0 0 Z " fill="#EDD1D0" transform="translate(156,178)"/>
<path d="M0 0 C0 3.716 -0.618 5.157 -3 8 C-6.688 8.312 -6.688 8.312 -10 8 C-10 7.67 -10 7.34 -10 7 C-8.02 7 -6.04 7 -4 7 C-4 5.35 -4 3.7 -4 2 C-2.68 1.34 -1.36 0.68 0 0 Z " fill="#DA1A1E" transform="translate(104,99)"/>
<path d="M0 0 C1.32 0.33 2.64 0.66 4 1 C3.67 2.65 3.34 4.3 3 6 C2.01 5.34 1.02 4.68 0 4 C0 2.68 0 1.36 0 0 Z M-1 5 C-0.01 5.33 0.98 5.66 2 6 C1.01 6.33 0.02 6.66 -1 7 C-1 6.34 -1 5.68 -1 5 Z " fill="#DE202B" transform="translate(181,113)"/>
<path d="M0 0 C1.98 0 3.96 0 6 0 C6 0.33 6 0.66 6 1 C4.35 1 2.7 1 1 1 C1 2.98 1 4.96 1 7 C-0.32 7 -1.64 7 -3 7 C-1.125 2.25 -1.125 2.25 0 0 Z " fill="#D78486" transform="translate(110,100)"/>
<path d="M0 0 C0.33 1.32 0.66 2.64 1 4 C-1.64 3.34 -4.28 2.68 -7 2 C-7 1.34 -7 0.68 -7 0 C-4.333 -1.333 -2.833 -0.671 0 0 Z " fill="#D62F32" transform="translate(53,114)"/>
<path d="M0 0 C0.66 0.33 1.32 0.66 2 1 C1.75 3.375 1.75 3.375 1 6 C-1.062 7.312 -1.062 7.312 -3 8 C-3.99 7.34 -4.98 6.68 -6 6 C-5.196 5.752 -4.391 5.505 -3.562 5.25 C-0.829 4.278 -0.829 4.278 -0.188 1.875 C-0.126 1.256 -0.064 0.637 0 0 Z " fill="#EFDCDD" transform="translate(164,185)"/>
<path d="M0 0 C4.75 0.75 4.75 0.75 7 3 C7.125 6.625 7.125 6.625 7 10 C6.67 10 6.34 10 6 10 C6 8.02 6 6.04 6 4 C5.196 3.711 4.391 3.422 3.562 3.125 C1 2 1 2 0 0 Z " fill="#EAC3C3" transform="translate(180,110)"/>
<path d="M0 0 C-2.686 2.686 -5.376 3.06 -9 4 C-9 3.34 -9 2.68 -9 2 C-9.66 1.67 -10.32 1.34 -11 1 C-7.276 0.307 -3.789 -0.111 0 0 Z " fill="#D5282D" transform="translate(101,95)"/>
<path d="M0 0 C0.33 0.99 0.66 1.98 1 3 C-1.97 3 -4.94 3 -8 3 C-8.33 2.34 -8.66 1.68 -9 1 C-5.847 0.299 -3.273 0 0 0 Z " fill="#DC0001" transform="translate(47,124)"/>
<path d="M0 0 C2.31 0.33 4.62 0.66 7 1 C6.01 1.66 5.02 2.32 4 3 C3.67 3.66 3.34 4.32 3 5 C1.68 4.67 0.36 4.34 -1 4 C-0.67 2.68 -0.34 1.36 0 0 Z " fill="#D53035" transform="translate(174,123)"/>
<path d="M0 0 C0.99 0.66 1.98 1.32 3 2 C2.34 3.32 1.68 4.64 1 6 C0.34 5.34 -0.32 4.68 -1 4 C-1.99 4 -2.98 4 -4 4 C-2.68 2.68 -1.36 1.36 0 0 Z " fill="#D4272B" transform="translate(162,183)"/>
<path d="M0 0 C1.98 0.495 1.98 0.495 4 1 C3.67 2.32 3.34 3.64 3 5 C1.68 4.34 0.36 3.68 -1 3 C-0.67 2.01 -0.34 1.02 0 0 Z " fill="#D91A22" transform="translate(111,73)"/>
<path d="M0 0 C0.33 0 0.66 0 1 0 C0.67 3.63 0.34 7.26 0 11 C-0.33 11 -0.66 11 -1 11 C-2.25 3.375 -2.25 3.375 0 0 Z " fill="#D71B1E" transform="translate(81,194)"/>
<path d="M0 0 C2.438 0.375 2.438 0.375 5 1 C5.33 1.66 5.66 2.32 6 3 C4.02 3.33 2.04 3.66 0 4 C0 2.68 0 1.36 0 0 Z " fill="#DD060E" transform="translate(123,198)"/>
<path d="M0 0 C0.66 0 1.32 0 2 0 C0.796 2.494 -0.454 4.681 -2 7 C-2.66 6.01 -3.32 5.02 -4 4 C-3.34 4 -2.68 4 -2 4 C-1.34 2.68 -0.68 1.36 0 0 Z " fill="#EED5D5" transform="translate(78,195)"/>
<path d="M0 0 C0.99 0.33 1.98 0.66 3 1 C3 1.66 3 2.32 3 3 C2.01 3 1.02 3 0 3 C0 4.65 0 6.3 0 8 C-0.66 7.01 -1.32 6.02 -2 5 C-1.125 2.312 -1.125 2.312 0 0 Z " fill="#E7BABB" transform="translate(173,149)"/>
<path d="M0 0 C0.33 0 0.66 0 1 0 C1 2.31 1 4.62 1 7 C-0.32 6.34 -1.64 5.68 -3 5 C-2.34 5 -1.68 5 -1 5 C-0.67 3.35 -0.34 1.7 0 0 Z " fill="#F5EFEF" transform="translate(98,203)"/>
<path d="M0 0 C0.33 1.32 0.66 2.64 1 4 C-0.65 4.66 -2.3 5.32 -4 6 C-4.33 5.34 -4.66 4.68 -5 4 C-4.361 3.711 -3.721 3.423 -3.062 3.125 C-0.848 2.172 -0.848 2.172 0 0 Z " fill="#F2E3E3" transform="translate(132,204)"/>
<path d="M0 0 C2.125 0.938 2.125 0.938 4 2 C3.34 3.32 2.68 4.64 2 6 C1.67 5.01 1.34 4.02 1 3 C0.01 2.34 -0.98 1.68 -2 1 C-1.34 0.67 -0.68 0.34 0 0 Z " fill="#ECD0D0" transform="translate(73,182)"/>
<path d="M0 0 C2.97 1.98 2.97 1.98 6 4 C4.68 4.33 3.36 4.66 2 5 C1.34 3.35 0.68 1.7 0 0 Z " fill="#F2E3E3" transform="translate(40,153)"/>
<path d="M0 0 C2.31 0.33 4.62 0.66 7 1 C6.34 2.32 5.68 3.64 5 5 C3.333 3.333 1.667 1.667 0 0 Z " fill="#D72023" transform="translate(146,98)"/>
<path d="M0 0 C-1.65 0.66 -3.3 1.32 -5 2 C-5.66 1.34 -6.32 0.68 -7 0 C-3.867 -1.044 -3.01 -0.934 0 0 Z " fill="#D33439" transform="translate(108,35)"/>
<path d="M0 0 C2.31 0.33 4.62 0.66 7 1 C7 1.66 7 2.32 7 3 C4.038 2.387 2.619 1.746 0 0 Z " fill="#D41D22" transform="translate(124,197)"/>
<path d="M0 0 C0 0.99 0 1.98 0 3 C-2.97 2.505 -2.97 2.505 -6 2 C-2.25 0 -2.25 0 0 0 Z " fill="#E6B9BA" transform="translate(131,200)"/>
<path d="M0 0 C-0.33 0.99 -0.66 1.98 -1 3 C-3.062 3.688 -3.062 3.688 -5 4 C-5 3.34 -5 2.68 -5 2 C-2 0 -2 0 0 0 Z " fill="#E9C5C5" transform="translate(149,185)"/>
<path d="M0 0 C0.33 1.32 0.66 2.64 1 4 C-0.485 4.99 -0.485 4.99 -2 6 C-1.125 1.125 -1.125 1.125 0 0 Z " fill="#F9F7F7" transform="translate(60,177)"/>
<path d="M0 0 C0.99 0.33 1.98 0.66 3 1 C2.67 2.65 2.34 4.3 2 6 C0 2.25 0 2.25 0 0 Z " fill="#ECCFCF" transform="translate(182,152)"/>
<path d="M0 0 C1.5 1.375 1.5 1.375 3 3 C3 3.66 3 4.32 3 5 C2.01 5 1.02 5 0 5 C0 3.35 0 1.7 0 0 Z " fill="#ECCCCB" transform="translate(47,151)"/>
<path d="M0 0 C1.5 1.375 1.5 1.375 3 3 C3 3.66 3 4.32 3 5 C2.01 5 1.02 5 0 5 C0 3.35 0 1.7 0 0 Z " fill="#D41519" transform="translate(116,102)"/>
<path d="M0 0 C0.99 0.33 1.98 0.66 3 1 C3 1.66 3 2.32 3 3 C1.68 3 0.36 3 -1 3 C-0.67 2.01 -0.34 1.02 0 0 Z " fill="#EDD1D1" transform="translate(136,198)"/>
<path d="M0 0 C2 1 2 1 2 1 Z M3 0 C3.66 0 4.32 0 5 0 C4.67 0.99 4.34 1.98 4 3 C3.34 2.34 2.68 1.68 2 1 C2.33 0.67 2.66 0.34 3 0 Z " fill="#D60004" transform="translate(156,177)"/>
<path d="M0 0 C0.99 0 1.98 0 3 0 C3 0.99 3 1.98 3 3 C2.01 3 1.02 3 0 3 C0 2.01 0 1.02 0 0 Z " fill="#EFD9D8" transform="translate(53,166)"/>
<path d="M0 0 C0.99 0 1.98 0 3 0 C3 0.99 3 1.98 3 3 C2.01 3 1.02 3 0 3 C0 2.01 0 1.02 0 0 Z " fill="#F2DFE0" transform="translate(44,121)"/>
<path d="M0 0 C0.33 1.32 0.66 2.64 1 4 C0.01 4 -0.98 4 -2 4 C-1.34 2.68 -0.68 1.36 0 0 Z " fill="#D91116" transform="translate(109,103)"/>
<path d="M0 0 C-0.33 0.99 -0.66 1.98 -1 3 C-1.99 2.34 -2.98 1.68 -4 1 C-2 0 -2 0 0 0 Z " fill="#DA3E45" transform="translate(126,85)"/>
</svg>