
<!-- Generator: visioncortex VTracer 0.6.4 -->
<svg version="1.1" xmlns="http://www.w3.org/2000/svg" viewBox="0 0 225 225" preserveAspectRatio="xMidYMid meet">
<path d="M0 0 C74.25 0 148.5 0 225 0 C225 74.25 225 148.5 225 225 C150.75 225 76.5 225 0 225 C0 150.75 0 76.5 0 0 Z " fill="#FBFBFB" transform="translate(0,0)"/>
<path d="M0 0 C1.549 1.344 3.07 2.719 4.562 4.125 C5.329 4.839 6.096 5.553 6.887 6.289 C19.653 19.251 25.571 36.981 25.637 54.904 C24.986 74.27 16.268 90.39 2.414 103.652 C-5.291 110.334 -13.863 114.726 -23.438 118.125 C-24.785 118.606 -24.785 118.606 -26.16 119.098 C-44.906 124.766 -65.201 121.159 -82.18 112.109 C-98.824 101.971 -109.362 87.194 -115.191 68.738 C-118.074 56.865 -117.377 43.625 -113.438 32.125 C-113.097 31.13 -112.757 30.135 -112.406 29.109 C-106.029 12.305 -93.323 -0.742 -77.438 -8.875 C-51.073 -20.375 -22.907 -17.517 0 0 Z " fill="#E7E206" transform="translate(157.4375,37.875)"/>
<path d="M0 0 C1.549 1.344 3.07 2.719 4.562 4.125 C5.329 4.839 6.096 5.553 6.887 6.289 C19.653 19.251 25.571 36.981 25.637 54.904 C24.986 74.27 16.268 90.39 2.414 103.652 C-5.291 110.334 -13.863 114.726 -23.438 118.125 C-24.785 118.606 -24.785 118.606 -26.16 119.098 C-44.906 124.766 -65.201 121.159 -82.18 112.109 C-98.824 101.971 -109.362 87.194 -115.191 68.738 C-118.074 56.865 -117.377 43.625 -113.438 32.125 C-113.097 31.13 -112.757 30.135 -112.406 29.109 C-106.029 12.305 -93.323 -0.742 -77.438 -8.875 C-51.073 -20.375 -22.907 -17.517 0 0 Z M-83.957 19.352 C-93.781 30.336 -97.28 42.408 -96.781 56.867 C-95.925 70.513 -89.322 81.075 -79.582 90.312 C-68.701 99.509 -55.413 103.129 -41.336 102.512 C-27.002 101.09 -15.193 94.542 -5.438 84.125 C3.378 72.647 6.688 60.5 5.562 46.125 C2.686 31.875 -4.581 19.902 -16.703 11.797 C-38.898 -1.774 -65.177 1.303 -83.957 19.352 Z " fill="#9E2D26" transform="translate(157.4375,37.875)"/>
<path d="M0 0 C0.735 0.315 1.47 0.629 2.227 0.953 C15.123 5.875 28.631 7.053 42.257 8.599 C45 9 45 9 47 10 C47 12.64 47 15.28 47 18 C64.16 18 81.32 18 99 18 C99 15.36 99 12.72 99 10 C105.755 8.372 112.415 7.409 119.312 6.625 C127.681 5.613 135.175 4.217 143 1 C143.99 0.67 144.98 0.34 146 0 C147.735 3.471 146.749 7.289 146 11 C144.437 14.063 144.437 14.063 143 16 C151.537 15.294 151.537 15.294 160 14 C160.428 16.922 160.463 19.131 159.051 21.781 C150.707 32.684 134.428 34.692 121.621 36.469 C119.418 36.694 117.21 36.857 115 37 C115.062 38.279 115.124 39.558 115.188 40.875 C115.293 43.055 115.293 43.055 115 45 C105.707 51.195 89.386 49.253 78.5 49.125 C76.983 49.115 75.466 49.106 73.949 49.098 C70.299 49.076 66.65 49.042 63 49 C63 48.67 63 48.34 63 48 C69.27 47.67 75.54 47.34 82 47 C80.35 45.35 78.7 43.7 77 42 C76 41 75 40 74 39 C74.33 38.01 74.66 37.02 75 36 C77.169 36.506 79 37 81 38 C80.01 36.68 79.02 35.36 78 34 C78.99 32.68 79.98 31.36 81 30 C80.215 30.736 79.43 31.472 78.621 32.23 C77.56 33.216 76.499 34.202 75.438 35.188 C74.924 35.67 74.41 36.153 73.881 36.65 C73.362 37.131 72.843 37.611 72.309 38.105 C71.843 38.54 71.376 38.975 70.896 39.423 C68.061 41.781 65.001 43.856 62 46 C62 38.74 62 31.48 62 24 C63.32 24 64.64 24 66 24 C66 27.96 66 31.92 66 36 C67.176 34.969 68.351 33.938 69.562 32.875 C70.288 32.242 71.014 31.609 71.762 30.957 C73.187 29.711 74.607 28.459 76.02 27.199 C76.632 26.659 77.244 26.119 77.875 25.562 C78.429 25.069 78.984 24.575 79.555 24.066 C81 23 81 23 83 23 C83 22.01 83 21.02 83 20 C72.44 19.67 61.88 19.34 51 19 C51 28.24 51 37.48 51 47 C52.485 47.495 52.485 47.495 54 48 C46.651 48.224 40.103 47.979 33 46 C32 45 32 45 31.902 43.152 C31.935 41.102 31.967 39.051 32 37 C31.392 36.963 30.783 36.925 30.156 36.887 C16.062 35.83 -1.857 34.351 -11.875 22.98 C-14.271 19.619 -14.48 18.032 -14 14 C-12.913 14.217 -12.913 14.217 -11.805 14.438 C-6.815 15.396 -2.107 16.276 3 16 C2.34 14.989 1.68 13.979 1 12.938 C-1.149 9.201 -1.425 6.332 -1 2 C-0.67 1.34 -0.34 0.68 0 0 Z M83 30 C84 32 84 32 84 32 Z " fill="#4C9575" transform="translate(39,154)"/>
<path d="M0 0 C3 0.438 3 0.438 5 1.438 C6.474 4.386 5.721 6.48 4.809 9.562 C3.718 12.091 2.448 13.214 0 14.438 C-0.66 14.438 -1.32 14.438 -2 14.438 C-1.34 15.221 -0.68 16.005 0 16.812 C2 19.438 2 19.438 2 21.438 C-0.169 20.931 -2 20.438 -4 19.438 C-5.79 24.807 -5.724 30.346 -3.875 35.688 C-1.524 39.135 0.852 41.683 4 44.438 C4.99 44.438 5.98 44.438 7 44.438 C7.33 42.787 7.66 41.138 8 39.438 C7.01 39.438 6.02 39.438 5 39.438 C5.33 36.797 5.66 34.157 6 31.438 C6.619 31.376 7.237 31.314 7.875 31.25 C10.247 30.624 10.247 30.624 11.125 28.062 C11.414 27.196 11.703 26.33 12 25.438 C12.66 24.448 13.32 23.457 14 22.438 C16.812 21.938 16.812 21.938 20 22.438 C23.394 25.153 25.261 27.148 26 31.438 C26.66 32.097 27.32 32.757 28 33.438 C28.712 35.085 29.374 36.755 30 38.438 C30.371 39.304 30.743 40.17 31.125 41.062 C32 43.438 32 43.438 32 46.438 C31.34 46.438 30.68 46.438 30 46.438 C30.516 47.118 31.031 47.799 31.562 48.5 C33.392 52.239 32.862 54.442 32 58.438 C31.01 58.438 30.02 58.438 29 58.438 C28.917 59.221 28.835 60.005 28.75 60.812 C28 63.438 28 63.438 26.062 64.562 C25.382 64.851 24.701 65.14 24 65.438 C23.34 66.427 22.68 67.418 22 68.438 C21 67.438 21 67.438 20.938 64.875 C20.958 64.071 20.979 63.266 21 62.438 C18.039 63.918 16.31 64.877 14.688 67.812 C13.944 70.651 13.574 72.526 14 75.438 C15.324 77.444 16.657 79.444 18 81.438 C17.505 82.923 17.505 82.923 17 84.438 C8.802 88.112 -0.156 88.618 -9 88.438 C-8.119 86.089 -7.22 83.823 -5.977 81.641 C-3.08 76.505 -2.098 72.313 -3 66.438 C-3.473 64.984 -3.994 63.544 -4.562 62.125 C-6.259 57.774 -6.259 57.774 -5 54.438 C-4.34 53.778 -3.68 53.118 -3 52.438 C-2.01 52.438 -1.02 52.438 0 52.438 C-1.102 50.686 -2.207 48.937 -3.312 47.188 C-3.927 46.213 -4.542 45.238 -5.176 44.234 C-6.901 41.495 -6.901 41.495 -8.688 39.312 C-10.629 36.539 -10.682 33.748 -11 30.438 C-11.217 31.551 -11.217 31.551 -11.438 32.688 C-11.772 34.321 -12.136 35.95 -12.562 37.562 C-13.114 39.604 -13.114 39.604 -13 42.438 C-14.65 41.118 -16.3 39.797 -18 38.438 C-17.34 37.778 -16.68 37.118 -16 36.438 C-16.319 34.329 -16.319 34.329 -17 32.438 C-18.98 34.912 -18.98 34.912 -21 37.438 C-21.625 34.562 -21.625 34.562 -22 31.438 C-21.34 30.778 -20.68 30.118 -20 29.438 C-20.33 29.108 -20.66 28.778 -21 28.438 C-20.938 25.188 -20.938 25.188 -20 21.438 C-17.125 18.812 -17.125 18.812 -14 16.438 C-13.484 15.53 -12.969 14.623 -12.438 13.688 C-11 11.438 -11 11.438 -8.312 10.625 C-7.549 10.563 -6.786 10.501 -6 10.438 C-6.062 9.53 -6.124 8.623 -6.188 7.688 C-6 4.438 -6 4.438 -4.875 2.062 C-3 0.438 -3 0.438 0 0 Z " fill="#191614" transform="translate(114,48.5625)"/>
<path d="M0 0 C0.735 0.315 1.47 0.629 2.227 0.953 C15.943 6.187 30.507 7.342 45 9 C45 10.32 45 11.64 45 13 C39.06 13.495 39.06 13.495 33 14 C33 14.66 33 15.32 33 16 C36.63 16.33 40.26 16.66 44 17 C44 17.33 44 17.66 44 18 C41.03 18.495 41.03 18.495 38 19 C38.33 19.33 38.66 19.66 39 20 C39.087 21.854 39.107 23.711 39.098 25.566 C39.094 26.691 39.091 27.816 39.088 28.975 C39.075 30.751 39.075 30.751 39.062 32.562 C39.058 33.75 39.053 34.938 39.049 36.162 C39.037 39.108 39.021 42.054 39 45 C40.32 45.66 41.64 46.32 43 47 C41.742 47.041 40.484 47.083 39.188 47.125 C38.48 47.148 37.772 47.171 37.043 47.195 C35 47 35 47 32 45 C31.592 42.288 31.867 39.756 32 37 C31.392 36.963 30.783 36.925 30.156 36.887 C16.062 35.83 -1.857 34.351 -11.875 22.98 C-14.271 19.619 -14.48 18.032 -14 14 C-12.913 14.217 -12.913 14.217 -11.805 14.438 C-6.815 15.396 -2.107 16.276 3 16 C2.34 14.989 1.68 13.979 1 12.938 C-1.149 9.201 -1.425 6.332 -1 2 C-0.67 1.34 -0.34 0.68 0 0 Z " fill="#09763E" transform="translate(39,154)"/>
<path d="M0 0 C2 2 2 2 2.082 3.988 C1.538 8.682 0.893 12.101 -2 16 C6.537 15.294 6.537 15.294 15 14 C15.428 16.922 15.463 19.131 14.051 21.781 C5.707 32.684 -10.572 34.692 -23.379 36.469 C-25.582 36.694 -27.79 36.857 -30 37 C-29.938 38.279 -29.876 39.558 -29.812 40.875 C-29.707 43.055 -29.707 43.055 -30 45 C-33.204 47.136 -34.019 47.231 -37.688 47.125 C-38.496 47.107 -39.304 47.089 -40.137 47.07 C-40.752 47.047 -41.366 47.024 -42 47 C-42 46.67 -42 46.34 -42 46 C-40.35 46 -38.7 46 -37 46 C-37.33 37.09 -37.66 28.18 -38 19 C-39.65 18.67 -41.3 18.34 -43 18 C-43 17.67 -43 17.34 -43 17 C-39.37 16.67 -35.74 16.34 -32 16 C-32 15.34 -32 14.68 -32 14 C-35.96 13.67 -39.92 13.34 -44 13 C-44 11.68 -44 10.36 -44 9 C-42.731 8.85 -42.731 8.85 -41.437 8.696 C-38.237 8.311 -35.039 7.915 -31.842 7.511 C-30.469 7.34 -29.096 7.173 -27.723 7.011 C-18.141 5.876 -8.722 4.361 0 0 Z " fill="#09743D" transform="translate(184,154)"/>
<path d="M0 0 C9.737 9.521 15.861 22.209 16.062 35.875 C15.921 49.793 10.727 61.458 1.191 71.496 C-10.016 82.114 -23.735 86.313 -38.914 86.023 C-53.369 85.366 -65.376 78.534 -75.184 68.199 C-84.48 56.836 -87.304 44.151 -86.395 29.777 C-85.092 17.023 -77.51 5.848 -67.91 -2.246 C-45.902 -18.444 -21.229 -14.985 0 0 Z M-73.367 7.449 C-81.99 18.348 -84.185 30.21 -83.188 43.75 C-82.557 46.968 -81.524 49.764 -80.188 52.75 C-79.894 53.525 -79.6 54.299 -79.297 55.098 C-74.953 65.325 -65.911 74.469 -55.688 78.859 C-40.271 84.351 -26.63 83.485 -11.43 76.906 C-0.028 71.027 7.273 61.238 11.182 49.216 C12.199 45.237 12.26 41.4 12.188 37.312 C12.177 36.479 12.167 35.646 12.157 34.787 C11.854 22.797 7.817 12.858 -0.438 4 C-4.577 0.142 -9.172 -2.668 -14.188 -5.25 C-15.367 -5.875 -15.367 -5.875 -16.57 -6.512 C-36.615 -15.466 -58.916 -7.617 -73.367 7.449 Z " fill="#F8F8F3" transform="translate(147.1875,54.25)"/>
<path d="M0 0 C10.89 0 21.78 0 33 0 C31.801 4.796 30.513 5.541 26.688 8.5 C23.9 10.673 21.242 12.753 18.77 15.281 C17 17 17 17 15 17 C15 13.04 15 9.08 15 5 C13.68 5 12.36 5 11 5 C11.33 11.93 11.66 18.86 12 26 C15.967 22.281 15.967 22.281 19.926 18.552 C23.742 15.002 27.703 11.951 32 9 C30.796 11.494 29.546 13.681 28 16 C29.32 17.32 30.64 18.64 32 20 C31.01 20 30.02 20 29 20 C28.34 19.34 27.68 18.68 27 18 C26.01 18 25.02 18 24 18 C25.498 21.814 27.765 23.574 31 26 C31.66 26.66 32.32 27.32 33 28 C29.636 29.682 25.832 29.388 22.125 29.562 C21.328 29.606 20.532 29.649 19.711 29.693 C13.118 30.024 6.623 30 0 30 C0 20.1 0 10.2 0 0 Z " fill="#9EBEAE" transform="translate(90,173)"/>
<path d="M0 0 C3.96 0 7.92 0 12 0 C12 9.24 12 18.48 12 28 C7.38 28.33 2.76 28.66 -2 29 C-2 28.34 -2 27.68 -2 27 C-3.786 25.193 -3.786 25.193 -6 23.375 C-6.743 22.743 -7.485 22.112 -8.25 21.461 C-8.828 20.979 -9.405 20.497 -10 20 C-9.67 19.01 -9.34 18.02 -9 17 C-6.831 17.506 -5 18 -3 19 C-3.99 17.68 -4.98 16.36 -6 15 C-5.01 13.68 -4.02 12.36 -3 11 C-3.785 11.736 -4.57 12.472 -5.379 13.23 C-6.44 14.216 -7.501 15.202 -8.562 16.188 C-9.333 16.912 -9.333 16.912 -10.119 17.65 C-10.638 18.131 -11.157 18.611 -11.691 19.105 C-12.157 19.54 -12.624 19.975 -13.104 20.423 C-15.939 22.781 -18.999 24.856 -22 27 C-22 19.74 -22 12.48 -22 5 C-20.68 5 -19.36 5 -18 5 C-18 8.96 -18 12.92 -18 17 C-16.824 15.969 -15.649 14.938 -14.438 13.875 C-13.712 13.242 -12.986 12.609 -12.238 11.957 C-10.813 10.711 -9.393 9.459 -7.98 8.199 C-7.368 7.659 -6.756 7.119 -6.125 6.562 C-5.571 6.069 -5.016 5.575 -4.445 5.066 C-3 4 -3 4 -1 4 C-0.67 2.68 -0.34 1.36 0 0 Z M-1 11 C0 13 0 13 0 13 Z " fill="#9FC1B0" transform="translate(123,173)"/>
<path d="M0 0 C0.33 0 0.66 0 1 0 C1 2.97 1 5.94 1 9 C2.32 9 3.64 9 5 9 C5 18.24 5 27.48 5 37 C6.485 37.495 6.485 37.495 8 38 C6.085 38.108 4.167 38.186 2.25 38.25 C1.183 38.296 0.115 38.343 -0.984 38.391 C-4.763 37.901 -5.667 36.954 -8 34 C-8.438 31.39 -8.438 31.39 -8.355 28.465 C-8.338 27.408 -8.321 26.352 -8.303 25.264 C-8.265 24.166 -8.227 23.068 -8.188 21.938 C-8.135 19.759 -8.087 17.581 -8.043 15.402 C-8.012 14.438 -7.982 13.474 -7.95 12.48 C-7.88 9.865 -7.88 9.865 -9 7 C-11.015 6.267 -11.015 6.267 -13 6 C-13 5.34 -13 4.68 -13 4 C-11.718 3.818 -11.718 3.818 -10.41 3.633 C-9.305 3.465 -8.201 3.298 -7.062 3.125 C-5.96 2.963 -4.858 2.8 -3.723 2.633 C-2.375 2.32 -2.375 2.32 -1 2 C-0.67 1.34 -0.34 0.68 0 0 Z " fill="#4FA67B" transform="translate(85,164)"/>
<path d="M0 0 C3.317 0.589 5.047 1.657 7.5 3.938 C9.875 6.135 12.047 7.66 15 9 C15 9.66 15 10.32 15 11 C16.754 14.779 16.754 14.779 20.188 16.812 C21.085 16.905 21.085 16.905 22 17 C21.814 17.866 21.629 18.733 21.438 19.625 C20.993 23.052 21.28 25.642 22 29 C23.32 29 24.64 29 26 29 C26 29.99 26 30.98 26 32 C25.34 32 24.68 32 24 32 C23.67 35.96 23.34 39.92 23 44 C23.33 44 23.66 44 24 44 C24 45.65 24 47.3 24 49 C22.515 48.505 22.515 48.505 21 48 C20.914 46.912 20.827 45.824 20.738 44.703 C19.437 30.353 15.642 19.103 6 8 C4.337 6.662 2.671 5.328 1 4 C0.188 1.75 0.188 1.75 0 0 Z M11 6 C13 7 13 7 13 7 Z " fill="#9E3127" transform="translate(142,48)"/>
<path d="M0 0 C0 9.57 0 19.14 0 29 C-0.66 29 -1.32 29 -2 29 C-2 29.66 -2 30.32 -2 31 C-4.97 31 -7.94 31 -11 31 C-11 30.67 -11 30.34 -11 30 C-9.35 30 -7.7 30 -6 30 C-6.33 21.09 -6.66 12.18 -7 3 C-8.65 2.67 -10.3 2.34 -12 2 C-12 1.67 -12 1.34 -12 1 C-7.818 0.203 -4.34 0 0 0 Z " fill="#0A7F43" transform="translate(153,170)"/>
<path d="M0 0 C3.125 -0.188 3.125 -0.188 6 0 C6.66 1.98 7.32 3.96 8 6 C7.01 6 6.02 6 5 6 C5 5.01 5 4.02 5 3 C3.68 3.33 2.36 3.66 1 4 C1 4.99 1 5.98 1 7 C3.686 9.686 6.376 10.06 10 11 C9.812 12.812 9.812 12.812 9 15 C6.5 16.625 6.5 16.625 4 18 C3.67 18.66 3.34 19.32 3 20 C5.64 20 8.28 20 11 20 C11 20.66 11 21.32 11 22 C10.01 22 9.02 22 8 22 C8.66 22.66 9.32 23.32 10 24 C10.66 23.67 11.32 23.34 12 23 C11.67 24.32 11.34 25.64 11 27 C8.69 27.33 6.38 27.66 4 28 C6.31 28.66 8.62 29.32 11 30 C11 31.98 11 33.96 11 36 C10.505 34.515 10.505 34.515 10 33 C9.34 33 8.68 33 8 33 C7.67 33.66 7.34 34.32 7 35 C7 34.01 7 33.02 7 32 C5.68 32 4.36 32 3 32 C2.67 33.32 2.34 34.64 2 36 C1.67 33.36 1.34 30.72 1 28 C0.67 28 0.34 28 0 28 C0.52 23.621 1.057 19.312 2 15 C2.66 15 3.32 15 4 15 C4 14.01 4 13.02 4 12 C2.68 12 1.36 12 0 12 C-0.391 10.567 -0.762 9.128 -1.125 7.688 C-1.334 6.887 -1.543 6.086 -1.758 5.262 C-2 3 -2 3 0 0 Z " fill="#A9531E" transform="translate(164,65)"/>
<path d="M0 0 C1.32 0 2.64 0 4 0 C4 3.96 4 7.92 4 12 C5.196 10.948 6.392 9.896 7.625 8.812 C8.357 8.178 9.089 7.544 9.844 6.891 C11.136 5.758 12.412 4.607 13.656 3.422 C16.32 0.956 17.704 0.027 21.375 -0.312 C22.241 -0.209 23.108 -0.106 24 0 C16.997 8.661 8.907 15.32 0 22 C0 14.74 0 7.48 0 0 Z " fill="#CF1F16" transform="translate(101,178)"/>
<path d="M0 0 C6.27 0 12.54 0 19 0 C17.807 4.77 16.528 5.577 12.75 8.562 C11.796 9.327 10.842 10.091 9.859 10.879 C7 13 7 13 2 16 C2 12.04 2 8.08 2 4 C0.35 4 -1.3 4 -3 4 C-2.34 3.67 -1.68 3.34 -1 3 C-0.67 2.01 -0.34 1.02 0 0 Z " fill="#EAECE6" transform="translate(104,173)"/>
<path d="M0 0 C0 3.517 -0.824 4.371 -3 7 C-1.68 8.32 -0.36 9.64 1 11 C0.01 11 -0.98 11 -2 11 C-2.66 10.34 -3.32 9.68 -4 9 C-4.99 9 -5.98 9 -7 9 C-5.502 12.814 -3.235 14.574 0 17 C0.66 17.66 1.32 18.32 2 19 C-0.297 20.148 -1.583 20.116 -4.133 20.098 C-4.938 20.094 -5.744 20.091 -6.574 20.088 C-7.416 20.08 -8.258 20.071 -9.125 20.062 C-9.974 20.058 -10.824 20.053 -11.699 20.049 C-13.8 20.037 -15.9 20.019 -18 20 C-17.554 15.302 -15.92 13.567 -12.375 10.562 C-11.478 9.792 -10.581 9.021 -9.656 8.227 C-8.78 7.492 -7.903 6.757 -7 6 C-5.624 4.813 -4.249 3.626 -2.875 2.438 C-1.926 1.633 -0.977 0.829 0 0 Z " fill="#F4F4F3" transform="translate(121,182)"/>
<path d="M0 0 C2.75 -0.25 2.75 -0.25 6 0 C8.375 2 8.375 2 10 4 C10.33 3.67 10.66 3.34 11 3 C12.658 2.312 14.325 1.644 16 1 C16.124 1.598 16.248 2.196 16.375 2.812 C16.955 5.262 16.955 5.262 19 8 C16.389 11.916 14.509 12.006 10 13 C7.062 13.125 7.062 13.125 5 13 C5 12.01 5 11.02 5 10 C3.35 9.67 1.7 9.34 0 9 C0 6.03 0 3.06 0 0 Z M9 6 C8.67 6.99 8.34 7.98 8 9 C8.66 9 9.32 9 10 9 C9.67 8.01 9.34 7.02 9 6 Z M12 6 C12.33 6.99 12.66 7.98 13 9 C13.99 8.67 14.98 8.34 16 8 C14.68 7.34 13.36 6.68 12 6 Z M16 2 C16.99 2 17.98 2 19 2 C18.67 2.66 18.34 3.32 18 4 C17.34 3.34 16.68 2.68 16 2 Z " fill="#A95827" transform="translate(110,29)"/>
<path d="M0 0 C1.279 -0.062 2.558 -0.124 3.875 -0.188 C4.954 -0.24 4.954 -0.24 6.055 -0.293 C6.697 -0.196 7.339 -0.1 8 0 C10 3 10 3 9.688 6.625 C9 10 9 10 8 11 C5.329 11.141 2.676 11.042 0 11 C0 7.37 0 3.74 0 0 Z " fill="#9E989C" transform="translate(145,208)"/>
<path d="M0 0 C0.99 0.33 1.98 0.66 3 1 C3 2.32 3 3.64 3 5 C6.248 3.278 6.248 3.278 7 0 C8.65 0 10.3 0 12 0 C12 3.667 12 7.333 12 11 C11.01 11 10.02 11 9 11 C8.67 9.02 8.34 7.04 8 5 C7.01 6.98 6.02 8.96 5 11 C2.376 7.939 2 7.268 2 3 C1.34 3 0.68 3 0 3 C-0.33 4.98 -0.66 6.96 -1 9 C-2.033 6.212 -2.045 5.132 -1.062 2.25 C-0.712 1.507 -0.361 0.765 0 0 Z M-5 3 C-3.055 5.918 -2.547 7.625 -2 11 C-3.5 9.812 -3.5 9.812 -5 8 C-5.188 5.312 -5.188 5.312 -5 3 Z " fill="#A5A5A5" transform="translate(100,208)"/>
<path d="M0 0 C3.125 -0.188 3.125 -0.188 6 0 C6.66 1.98 7.32 3.96 8 6 C7.01 6 6.02 6 5 6 C5 5.01 5 4.02 5 3 C3.68 3.33 2.36 3.66 1 4 C1 4.99 1 5.98 1 7 C3.686 9.686 6.376 10.06 10 11 C9.812 12.812 9.812 12.812 9 15 C4.821 18 4.821 18 2 18 C2 17.01 2 16.02 2 15 C2.66 15 3.32 15 4 15 C4 14.01 4 13.02 4 12 C2.68 12 1.36 12 0 12 C-0.391 10.567 -0.762 9.128 -1.125 7.688 C-1.334 6.887 -1.543 6.086 -1.758 5.262 C-2 3 -2 3 0 0 Z " fill="#E3D10D" transform="translate(164,65)"/>
<path d="M0 0 C1.984 2.917 1.988 4.124 1.625 7.75 C1.419 8.822 1.212 9.895 1 11 C0.67 10.34 0.34 9.68 0 9 C-0.99 9.66 -1.98 10.32 -3 11 C-5.688 10.625 -5.688 10.625 -8 10 C-8.043 8 -8.041 6 -8 4 C-7 3 -7 3 -4.5 2.875 C-2 3 -2 3 -1 4 C-0.67 2.68 -0.34 1.36 0 0 Z M2 3 C4.475 3.495 4.475 3.495 7 4 C7 6.31 7 8.62 7 11 C6.34 11 5.68 11 5 11 C5 8.69 5 6.38 5 4 C4.01 3.67 3.02 3.34 2 3 Z " fill="#827F86" transform="translate(59,208)"/>
<path d="M0 0 C2.438 0.812 2.438 0.812 4.438 2.812 C4.25 5.313 4.25 5.313 3.438 7.812 C0.438 9.812 0.438 9.812 -2.188 9.5 C-4.562 8.812 -4.562 8.812 -5.562 7.812 C-5.861 4.979 -5.919 3.375 -4.375 0.938 C-2.562 -0.188 -2.562 -0.188 0 0 Z " fill="#3A3263" transform="translate(160.5625,20.1875)"/>
<path d="M0 0 C2.375 0.688 2.375 0.688 3.375 1.688 C3.562 4.625 3.562 4.625 3.375 7.688 C1.375 9.688 1.375 9.688 -1.125 9.938 C-3.625 9.688 -3.625 9.688 -5.625 7.688 C-5.938 4.688 -5.938 4.688 -5.625 1.688 C-2.625 -0.312 -2.625 -0.312 0 0 Z " fill="#4A3F69" transform="translate(94.625,8.3125)"/>
<path d="M0 0 C3 -0.312 3 -0.312 6 0 C8 2 8 2 8.25 4.5 C8 7 8 7 6 9 C2.375 8.625 2.375 8.625 -1 8 C-1.625 5.688 -1.625 5.688 -2 3 C-1.34 2.01 -0.68 1.02 0 0 Z " fill="#453E69" transform="translate(115,7)"/>
<path d="M0 0 C5.411 -0.361 5.411 -0.361 7.938 1.188 C9 3 9 3 8.75 5.625 C8 8 8 8 7 9 C4.667 9.041 2.333 9.042 0 9 C0 6.03 0 3.06 0 0 Z " fill="#F7F307" transform="translate(110,29)"/>
<path d="M0 0 C0.934 3.01 1.044 3.867 0 7 C-1.666 7.043 -3.334 7.041 -5 7 C-6 6 -6 6 -6.062 2.938 C-6.042 1.968 -6.021 0.999 -6 0 C-3.509 -1.245 -2.589 -0.777 0 0 Z M5.562 -1.062 C6.769 -1.032 6.769 -1.032 8 -1 C8.33 0.32 8.66 1.64 9 3 C8.34 2.34 7.68 1.68 7 1 C6.01 1.33 5.02 1.66 4 2 C4 2.99 4 3.98 4 5 C5.32 5.66 6.64 6.32 8 7 C5.625 7.188 5.625 7.188 3 7 C1 4 1 4 1.312 1.875 C2.346 -0.944 2.449 -0.987 5.562 -1.062 Z " fill="#79767E" transform="translate(208,212)"/>
<path d="M0 0 C3.96 0 7.92 0 12 0 C10.834 4.663 9.759 5.386 6.062 8.25 C5.167 8.956 4.271 9.663 3.348 10.391 C1 12 1 12 -1 12 C-1 10.68 -1 9.36 -1 8 C0.32 7.34 1.64 6.68 3 6 C3 5.01 3 4.02 3 3 C2.01 2.01 1.02 1.02 0 0 Z " fill="#EBEEE7" transform="translate(111,173)"/>
<path d="M0 0 C1.709 1.623 3.374 3.293 5 5 C5 5.66 5 6.32 5 7 C-0.346 10.159 -0.346 10.159 -3.312 9.438 C-5.337 7.713 -5.654 6.596 -6 4 C-4.02 2.68 -2.04 1.36 0 0 Z " fill="#AC511B" transform="translate(163,55)"/>
<path d="M0 0 C2.007 0.287 4.009 0.619 6 1 C6 1.99 6 2.98 6 4 C5.34 4 4.68 4 4 4 C3.67 7.96 3.34 11.92 3 16 C3.33 16 3.66 16 4 16 C4 17.65 4 19.3 4 21 C3.01 20.67 2.02 20.34 1 20 C0.637 16.855 0.286 13.709 -0.062 10.562 C-0.166 9.665 -0.27 8.767 -0.377 7.842 C-0.47 6.988 -0.564 6.134 -0.66 5.254 C-0.749 4.463 -0.838 3.672 -0.93 2.858 C-0.953 2.245 -0.976 1.632 -1 1 C-0.67 0.67 -0.34 0.34 0 0 Z " fill="#9B2423" transform="translate(162,76)"/>
<path d="M0 0 C0.33 0 0.66 0 1 0 C1 2.64 1 5.28 1 8 C3.31 8 5.62 8 8 8 C7.67 8.99 7.34 9.98 7 11 C2.05 11.33 -2.9 11.66 -8 12 C-8 11.01 -8 10.02 -8 9 C-4.535 8.505 -4.535 8.505 -1 8 C-0.67 5.36 -0.34 2.72 0 0 Z " fill="#981820" transform="translate(109,30)"/>
<path d="M0 0 C1.65 0.33 3.3 0.66 5 1 C5 1.66 5 2.32 5 3 C6.65 3 8.3 3 10 3 C9.67 3.66 9.34 4.32 9 5 C6.438 5.625 6.438 5.625 4 6 C4.66 7.32 5.32 8.64 6 10 C2.063 8.688 -0.227 7.081 -3 4 C-2.01 2.68 -1.02 1.36 0 0 Z " fill="#423966" transform="translate(41,41)"/>
<path d="M0 0 C0.598 0.474 1.196 0.949 1.812 1.438 C4.004 3.165 4.004 3.165 7 4 C6.67 4.99 6.34 5.98 6 7 C6.33 7.99 6.66 8.98 7 10 C5.68 10 4.36 10 3 10 C2.67 10.66 2.34 11.32 2 12 C1.34 12 0.68 12 0 12 C-0.103 11.381 -0.206 10.762 -0.312 10.125 C-0.875 7.635 -0.875 7.635 -4 6 C-2.68 5.67 -1.36 5.34 0 5 C0 3.35 0 1.7 0 0 Z " fill="#EFEDED" transform="translate(129,141)"/>
<path d="M0 0 C4.556 0.556 4.556 0.556 6 2 C6.125 4.5 6.125 4.5 6 7 C5 8 5 8 2 8.125 C-1 8 -1 8 -2 7 C-2.188 4.562 -2.188 4.562 -2 2 C-1.34 1.34 -0.68 0.68 0 0 Z " fill="#8A8A8C" transform="translate(171,211)"/>
<path d="M0 0 C0.66 0 1.32 0 2 0 C2.33 0.99 2.66 1.98 3 3 C3.99 3.66 4.98 4.32 6 5 C5.835 5.619 5.67 6.238 5.5 6.875 C4.924 8.961 4.924 8.961 5 11 C4.237 10.814 3.474 10.629 2.688 10.438 C-0.09 9.772 -0.09 9.772 -3 11 C-2.979 10.216 -2.959 9.433 -2.938 8.625 C-2.813 6.019 -2.813 6.019 -4 4 C-3.01 3.67 -2.02 3.34 -1 3 C-0.67 2.01 -0.34 1.02 0 0 Z " fill="#ECE9E9" transform="translate(111,145)"/>
<path d="M0 0 C1.429 2.354 2.087 3.48 1.625 6.25 C1.419 6.828 1.213 7.405 1 8 C-0.65 7.67 -2.3 7.34 -4 7 C-4.66 8.32 -5.32 9.64 -6 11 C-6.33 10.34 -6.66 9.68 -7 9 C-5.562 6.375 -5.562 6.375 -4 4 C-5.65 4.33 -7.3 4.66 -9 5 C-9 4.34 -9 3.68 -9 3 C-2.25 0 -2.25 0 0 0 Z " fill="#352F61" transform="translate(192,51)"/>
<path d="M0 0 C0.897 0.526 0.897 0.526 1.812 1.062 C4.108 2.333 4.108 2.333 7 1 C7.144 1.784 7.289 2.567 7.438 3.375 C7.878 5.964 7.878 5.964 9 8 C8.216 8.309 7.433 8.619 6.625 8.938 C4.077 9.929 4.077 9.929 2 11 C1.67 10.01 1.34 9.02 1 8 C0.01 7.34 -0.98 6.68 -2 6 C-1.01 5.67 -0.02 5.34 1 5 C0.67 3.35 0.34 1.7 0 0 Z " fill="#F1EFEF" transform="translate(72,132)"/>
<path d="M0 0 C0.33 0.99 0.66 1.98 1 3 C0.67 3.66 0.34 4.32 0 5 C0.99 5.33 1.98 5.66 3 6 C2.01 6.66 1.02 7.32 0 8 C-0.33 8.99 -0.66 9.98 -1 11 C-1.66 11 -2.32 11 -3 11 C-3 10.01 -3 9.02 -3 8 C-4.65 8 -6.3 8 -8 8 C-7.67 7.216 -7.34 6.433 -7 5.625 C-5.881 3.157 -5.881 3.157 -6 1 C-5.381 1.206 -4.762 1.412 -4.125 1.625 C-3.073 1.811 -3.073 1.811 -2 2 C-1.34 1.34 -0.68 0.68 0 0 Z " fill="#F2F1F0" transform="translate(151,132)"/>
<path d="M0 0 C2 1 2 1 2 1 Z M4 0 C4.99 0.33 5.98 0.66 7 1 C6.34 1 5.68 1 5 1 C5.33 1.99 5.66 2.98 6 4 C5.34 4 4.68 4 4 4 C4 6.31 4 8.62 4 11 C3.67 11 3.34 11 3 11 C3 8.69 3 6.38 3 4 C2.01 4 1.02 4 0 4 C0 6.31 0 8.62 0 11 C-0.33 11 -0.66 11 -1 11 C-1 8.69 -1 6.38 -1 4 C-1.66 4 -2.32 4 -3 4 C-3 6.64 -3 9.28 -3 12 C-3.66 12 -4.32 12 -5 12 C-5 9.03 -5 6.06 -5 3 C-3.68 3 -2.36 3 -1 3 C-0.67 2.34 -0.34 1.68 0 1 C0 1.66 0 2.32 0 3 C0.99 3 1.98 3 3 3 C3.33 2.01 3.66 1.02 4 0 Z " fill="#454142" transform="translate(162,208)"/>
<path d="M0 0 C3.626 0.57 5.255 1.924 7.75 4.562 C8.364 5.203 8.977 5.844 9.609 6.504 C10.068 6.998 10.527 7.491 11 8 C9.02 8.99 9.02 8.99 7 10 C4.36 7.69 1.72 5.38 -1 3 C-0.67 2.01 -0.34 1.02 0 0 Z " fill="#C23228" transform="translate(114,190)"/>
<path d="M0 0 C0.33 0 0.66 0 1 0 C1.103 0.784 1.206 1.567 1.312 2.375 C1.776 5.33 1.776 5.33 5 7 C3.35 7.33 1.7 7.66 0 8 C-0.33 9.32 -0.66 10.64 -1 12 C-1.33 11.34 -1.66 10.68 -2 10 C-3.65 10 -5.3 10 -7 10 C-6.474 9.103 -6.474 9.103 -5.938 8.188 C-4.667 5.892 -4.667 5.892 -6 3 C-4.68 3 -3.36 3 -2 3 C-1.34 2.01 -0.68 1.02 0 0 Z " fill="#F2F1F1" transform="translate(94,141)"/>
<path d="M0 0 C-1.875 3.875 -1.875 3.875 -3 5 C-1.68 5 -0.36 5 1 5 C1 5.66 1 6.32 1 7 C-2.3 7.66 -5.6 8.32 -9 9 C-7 5 -7 5 -6 4 C-7.32 4 -8.64 4 -10 4 C-10 3.34 -10 2.68 -10 2 C-6.38 0.684 -3.904 0 0 0 Z " fill="#4D476C" transform="translate(197,61)"/>
<path d="M0 0 C0.043 2 0.041 4 0 6 C-1 7 -1 7 -3.5 7.125 C-6 7 -6 7 -7 6 C-7.041 4 -7.043 2 -7 0 C-4.333 -1.333 -2.833 -0.671 0 0 Z " fill="#8E8D92" transform="translate(84,212)"/>
<path d="M0 0 C0.043 2 0.041 4 0 6 C-1 7 -1 7 -3.5 7.125 C-6 7 -6 7 -7 6 C-7.041 4 -7.043 2 -7 0 C-4.333 -1.333 -2.833 -0.671 0 0 Z " fill="#8E8D92" transform="translate(75,212)"/>
<path d="M0 0 C0.66 0.66 1.32 1.32 2 2 C3.317 2.697 4.649 3.37 6 4 C6 8 6 8 5 10 C4.01 9.67 3.02 9.34 2 9 C1.01 9.66 0.02 10.32 -1 11 C-1.103 10.381 -1.206 9.763 -1.312 9.125 C-1.875 6.635 -1.875 6.635 -5 5 C-3.35 4.67 -1.7 4.34 0 4 C0 2.68 0 1.36 0 0 Z " fill="#F5F6F5" transform="translate(60,118)"/>
<path d="M0 0 C0.33 0 0.66 0 1 0 C1 1.65 1 3.3 1 5 C2.32 5.33 3.64 5.66 5 6 C4.01 6.66 3.02 7.32 2 8 C1.01 9.485 1.01 9.485 0 11 C-1.65 10.67 -3.3 10.34 -5 10 C-4.979 9.216 -4.959 8.433 -4.938 7.625 C-4.813 5.019 -4.813 5.019 -6 3 C-5.196 2.876 -4.391 2.752 -3.562 2.625 C-2.717 2.419 -1.871 2.213 -1 2 C-0.67 1.34 -0.34 0.68 0 0 Z " fill="#F6F5F5" transform="translate(164,116)"/>
<path d="M0 0 C0.66 0 1.32 0 2 0 C2.671 1.456 3.337 2.915 4 4.375 C4.557 5.593 4.557 5.593 5.125 6.836 C6 9 6 9 6 11 C5.34 11 4.68 11 4 11 C4 10.01 4 9.02 4 8 C2.02 8 0.04 8 -2 8 C-2.33 8.99 -2.66 9.98 -3 11 C-3.33 10.34 -3.66 9.68 -4 9 C-3.223 6.836 -3.223 6.836 -2.062 4.375 C-1.682 3.558 -1.302 2.74 -0.91 1.898 C-0.61 1.272 -0.309 0.645 0 0 Z " fill="#3C3340" transform="translate(134,208)"/>
<path d="M0 0 C1.32 0.33 2.64 0.66 4 1 C2.68 1.33 1.36 1.66 0 2 C0 1.34 0 0.68 0 0 Z M4 1 C5.32 1.33 6.64 1.66 8 2 C8 3.98 8 5.96 8 8 C7.01 8 6.02 8 5 8 C5.66 6.68 6.32 5.36 7 4 C6.34 4 5.68 4 5 4 C4.34 5.32 3.68 6.64 3 8 C1.68 7.67 0.36 7.34 -1 7 C-1 5.35 -1 3.7 -1 2 C-0.67 2.99 -0.34 3.98 0 5 C0.66 5 1.32 5 2 5 C2.66 3.68 3.32 2.36 4 1 Z " fill="#F3E80A" transform="translate(165,103)"/>
<path d="M0 0 C2.375 0.688 2.375 0.688 3.375 1.688 C3.562 4.125 3.562 4.125 3.375 6.688 C1.375 8.688 1.375 8.688 -1.125 8.938 C-3.625 8.688 -3.625 8.688 -5.625 6.688 C-5.938 4.188 -5.938 4.188 -5.625 1.688 C-2.625 -0.312 -2.625 -0.312 0 0 Z M-3.625 1.688 C-3.295 3.008 -2.965 4.328 -2.625 5.688 C-0.975 6.017 0.675 6.347 2.375 6.688 C2.045 5.367 1.715 4.047 1.375 2.688 C-0.275 2.358 -1.925 2.028 -3.625 1.688 Z " fill="#FBF608" transform="translate(68.625,48.3125)"/>
<path d="M0 0 C-3.625 6.75 -3.625 6.75 -7 9 C-7 7.02 -7 5.04 -7 3 C-8.32 3 -9.64 3 -11 3 C-11 2.34 -11 1.68 -11 1 C-3.375 -1.125 -3.375 -1.125 0 0 Z " fill="#47416A" transform="translate(188,45)"/>
<path d="M0 0 C4.875 4.625 4.875 4.625 6 8 C3.69 7.67 1.38 7.34 -1 7 C-0.01 8.32 0.98 9.64 2 11 C1.01 11 0.02 11 -1 11 C-5 6.771 -5 6.771 -5 3 C-2.03 3.495 -2.03 3.495 1 4 C0.67 2.68 0.34 1.36 0 0 Z " fill="#3D3866" transform="translate(61,22)"/>
<path d="M0 0 C1.65 0.33 3.3 0.66 5 1 C5.934 4.01 6.044 4.867 5 8 C3 8.043 1 8.041 -1 8 C-2 7 -2 7 -2.062 4.438 C-2.042 3.633 -2.021 2.829 -2 2 C-0.35 2 1.3 2 3 2 C2.01 1.34 1.02 0.68 0 0 Z " fill="#777778" transform="translate(28,211)"/>
<path d="M0 0 C0.99 0.33 1.98 0.66 3 1 C3 1.66 3 2.32 3 3 C2.34 3 1.68 3 1 3 C1 4.65 1 6.3 1 8 C1.66 6.68 2.32 5.36 3 4 C3.66 5.32 4.32 6.64 5 8 C2.625 8.625 2.625 8.625 0 9 C-2 7 -2 7 -2.25 4.5 C-2 2 -2 2 0 0 Z M5 2 C5.99 2.495 5.99 2.495 7 3 C6.67 4.32 6.34 5.64 6 7 C5.67 7 5.34 7 5 7 C5 5.35 5 3.7 5 2 Z " fill="#827A91" transform="translate(204,64)"/>
<path d="M0 0 C0.66 0.33 1.32 0.66 2 1 C2 1.99 2 2.98 2 4 C2.95 6.15 2.95 6.15 4 8 C3.01 8.33 2.02 8.66 1 9 C0.34 8.01 -0.32 7.02 -1 6 C-1 7.32 -1 8.64 -1 10 C-1.99 10 -2.98 10 -4 10 C-4.33 7.36 -4.66 4.72 -5 2 C-4.34 1.67 -3.68 1.34 -3 1 C-2.67 1.66 -2.34 2.32 -2 3 C-1.34 2.01 -0.68 1.02 0 0 Z " fill="#F8F307" transform="translate(99,30)"/>
<path d="M0 0 C0.66 0 1.32 0 2 0 C1.67 1.65 1.34 3.3 1 5 C1.66 4.67 2.32 4.34 3 4 C3.33 3.01 3.66 2.02 4 1 C4.66 1 5.32 1 6 1 C5.67 2.65 5.34 4.3 5 6 C5.66 6.33 6.32 6.66 7 7 C7.66 5.35 8.32 3.7 9 2 C9.33 2.66 9.66 3.32 10 4 C9.062 6.625 9.062 6.625 8 9 C6.519 8.719 5.04 8.425 3.562 8.125 C2.739 7.963 1.915 7.8 1.066 7.633 C0.384 7.424 -0.297 7.215 -1 7 C-1.33 6.34 -1.66 5.68 -2 5 C-1.062 2.375 -1.062 2.375 0 0 Z " fill="#4B446B" transform="translate(30,58)"/>
<path d="M0 0 C3.366 1.443 5.51 3.333 8 6 C5 7 5 7 1 7 C1.99 7.66 2.98 8.32 4 9 C4 9.66 4 10.32 4 11 C1.05 9.631 -1.525 8.122 -4 6 C-4 5.34 -4 4.68 -4 4 C-1.69 4 0.62 4 3 4 C2.01 3.34 1.02 2.68 0 2 C0 1.34 0 0.68 0 0 Z " fill="#3C3564" transform="translate(49,32)"/>
<path d="M0 0 C1.707 1.281 3.374 2.618 5 4 C5 4.66 5 5.32 5 6 C3 6 3 6 1.375 4.5 C0.921 4.005 0.468 3.51 0 3 C0.66 4.65 1.32 6.3 2 8 C-0.475 7.01 -0.475 7.01 -3 6 C-2.34 7.65 -1.68 9.3 -1 11 C-4.161 9.63 -4.993 9.011 -7 6 C-4.69 4.02 -2.38 2.04 0 0 Z " fill="#484169" transform="translate(178,34)"/>
<path d="M0 0 C0.66 0.33 1.32 0.66 2 1 C1.34 3.31 0.68 5.62 0 8 C-1.98 8 -3.96 8 -6 8 C-5.812 5.688 -5.812 5.688 -5 3 C-2.562 1.125 -2.562 1.125 0 0 Z " fill="#EBEDE7" transform="translate(109,194)"/>
<path d="M0 0 C0 1.32 0 2.64 0 4 C-1.417 4.027 -2.833 4.047 -4.25 4.062 C-5.433 4.08 -5.433 4.08 -6.641 4.098 C-8.907 4.004 -10.829 3.632 -13 3 C-13 2.34 -13 1.68 -13 1 C-8.591 -0.102 -4.516 -0.077 0 0 Z " fill="#EAEAEA" transform="translate(85,167)"/>
<path d="M0 0 C1.207 0.031 1.207 0.031 2.438 0.062 C2.438 0.723 2.438 1.383 2.438 2.062 C0.787 2.062 -0.862 2.062 -2.562 2.062 C-1.903 3.712 -1.243 5.363 -0.562 7.062 C0.427 7.062 1.418 7.062 2.438 7.062 C2.767 6.402 3.097 5.742 3.438 5.062 C2.448 4.733 1.457 4.402 0.438 4.062 C1.757 3.733 3.078 3.402 4.438 3.062 C5.062 4.938 5.062 4.938 5.438 7.062 C3.438 9.062 3.438 9.062 0.438 9.375 C-0.552 9.272 -1.543 9.169 -2.562 9.062 C-4.562 6.062 -4.562 6.062 -4.25 3.438 C-3.278 0.08 -3.278 0.08 0 0 Z " fill="#433A67" transform="translate(70.5625,16.9375)"/>
<path d="M0 0 C4.516 -0.077 8.591 -0.102 13 1 C13 1.66 13 2.32 13 3 C8.591 4.102 4.516 4.077 0 4 C0 2.68 0 1.36 0 0 Z " fill="#EFEEEE" transform="translate(139,167)"/>
<path d="M0 0 C2 2 2 2 2.375 4.875 C1.925 8.626 0.874 9.665 -2 12 C-2.66 11.67 -3.32 11.34 -4 11 C-3.718 9.54 -3.424 8.082 -3.125 6.625 C-2.963 5.813 -2.8 5.001 -2.633 4.164 C-2 2 -2 2 0 0 Z M1 10 C1.99 11.485 1.99 11.485 3 13 C2.34 13 1.68 13 1 13 C1 12.01 1 11.02 1 10 Z " fill="#9E362E" transform="translate(164,95)"/>
<path d="M0 0 C3.63 0 7.26 0 11 0 C11 0.66 11 1.32 11 2 C9.68 2 8.36 2 7 2 C7 3.98 7 5.96 7 8 C6.34 8 5.68 8 5 8 C0 2.524 0 2.524 0 0 Z " fill="#373062" transform="translate(34,51)"/>
<path d="M0 0 C0.99 0.99 1.98 1.98 3 3 C2.216 3.454 1.433 3.907 0.625 4.375 C-2.037 5.884 -2.037 5.884 -4 8 C-4.66 7.01 -5.32 6.02 -6 5 C-4.02 3.35 -2.04 1.7 0 0 Z M3 3 C3.66 4.32 4.32 5.64 5 7 C4.01 8.485 4.01 8.485 3 10 C0.375 10.188 0.375 10.188 -2 10 C-1.041 9.103 -1.041 9.103 -0.062 8.188 C2.203 6.092 2.203 6.092 3 3 Z " fill="#FDF808" transform="translate(155,46)"/>
<path d="M0 0 C2.64 0 5.28 0 8 0 C8 0.66 8 1.32 8 2 C7.01 2 6.02 2 5 2 C5.66 2.66 6.32 3.32 7 4 C7.66 3.67 8.32 3.34 9 3 C8.67 4.32 8.34 5.64 8 7 C5.36 7.33 2.72 7.66 0 8 C0 7.01 0 6.02 0 5 C1.32 4.67 2.64 4.34 4 4 C4 3.34 4 2.68 4 2 C2.68 2.33 1.36 2.66 0 3 C0 2.01 0 1.02 0 0 Z " fill="#F9F407" transform="translate(167,85)"/>
<path d="M0 0 C0.33 1.98 0.66 3.96 1 6 C0.34 5.01 -0.32 4.02 -1 3 C-4.066 2.267 -4.066 2.267 -7 2 C-7 1.34 -7 0.68 -7 0 C-4.333 -1.333 -2.833 -0.671 0 0 Z M-8 2 C-7.67 2.99 -7.34 3.98 -7 5 C-4.69 5.33 -2.38 5.66 0 6 C-0.33 6.66 -0.66 7.32 -1 8 C-3.375 8.125 -3.375 8.125 -6 8 C-6.66 7.34 -7.32 6.68 -8 6 C-8 4.68 -8 3.36 -8 2 Z " fill="#FDF808" transform="translate(58,72)"/>
<path d="M0 0 C0.99 0.33 1.98 0.66 3 1 C3 2.65 3 4.3 3 6 C2.67 5.01 2.34 4.02 2 3 C1.34 3 0.68 3 0 3 C-0.33 4.98 -0.66 6.96 -1 9 C-2.033 6.212 -2.045 5.132 -1.062 2.25 C-0.712 1.507 -0.361 0.765 0 0 Z M-5 3 C-3.055 5.918 -2.547 7.625 -2 11 C-3.5 9.812 -3.5 9.812 -5 8 C-5.188 5.312 -5.188 5.312 -5 3 Z M5 7 C5.33 7.99 5.66 8.98 6 10 C5.01 10.495 5.01 10.495 4 11 C4.33 9.68 4.66 8.36 5 7 Z " fill="#39353D" transform="translate(100,208)"/>
<path d="M0 0 C1.32 0.99 2.64 1.98 4 3 C3.34 3 2.68 3 2 3 C2 3.66 2 4.32 2 5 C1.34 5 0.68 5 0 5 C-0.33 6.32 -0.66 7.64 -1 9 C-1.99 8.67 -2.98 8.34 -4 8 C-2.667 5.333 -1.333 2.667 0 0 Z M-1 9 C0.65 9 2.3 9 4 9 C3.67 9.66 3.34 10.32 3 11 C1.68 10.67 0.36 10.34 -1 10 C-1 9.67 -1 9.34 -1 9 Z " fill="#F1E70A" transform="translate(146,39)"/>
<path d="M0 0 C0.33 0.99 0.66 1.98 1 3 C3 4.209 3 4.209 5 5 C4.67 5.66 4.34 6.32 4 7 C-1.94 5.515 -1.94 5.515 -8 4 C-5.334 2.223 -2.972 1.125 0 0 Z " fill="#9C2A29" transform="translate(128,38)"/>
<path d="M0 0 C2.536 1.268 2.849 2.468 4 5 C4.33 5.66 4.66 6.32 5 7 C4.67 7.66 4.34 8.32 4 9 C2.02 9 0.04 9 -2 9 C-1.01 8.34 -0.02 7.68 1 7 C0.505 6.567 0.01 6.134 -0.5 5.688 C-2 4 -2 4 -2 1 C-1.34 0.67 -0.68 0.34 0 0 Z M2 1 C2.99 1 3.98 1 5 1 C4.67 1.66 4.34 2.32 4 3 C3.34 2.34 2.68 1.68 2 1 Z " fill="#F8F307" transform="translate(124,30)"/>
<path d="M0 0 C2.97 0.495 2.97 0.495 6 1 C4.68 1.33 3.36 1.66 2 2 C2.33 2.99 2.66 3.98 3 5 C2.01 5 1.02 5 0 5 C0 5.99 0 6.98 0 8 C1.65 8.33 3.3 8.66 5 9 C3.188 9.625 3.188 9.625 1 10 C0.01 9.34 -0.98 8.68 -2 8 C-1.34 5.36 -0.68 2.72 0 0 Z M3 5 C6 6 6 6 6 6 Z " fill="#332D5D" transform="translate(136,10)"/>
<path d="M0 0 C0.66 0 1.32 0 2 0 C2 0.99 2 1.98 2 3 C3.65 3.33 5.3 3.66 7 4 C7 6.31 7 8.62 7 11 C6.67 11 6.34 11 6 11 C5.67 9.02 5.34 7.04 5 5 C4.34 5 3.68 5 3 5 C2.67 6.98 2.34 8.96 2 11 C1.34 11 0.68 11 0 11 C0 7.37 0 3.74 0 0 Z " fill="#473F55" transform="translate(17,208)"/>
<path d="M0 0 C1.32 0.99 2.64 1.98 4 3 C3.67 3.66 3.34 4.32 3 5 C1.5 3.625 1.5 3.625 0 2 C0 1.34 0 0.68 0 0 Z M-4 3 C-3.34 3 -2.68 3 -2 3 C-0.986 4.323 0.013 5.657 1 7 C1.99 7.66 2.98 8.32 4 9 C2.35 9.33 0.7 9.66 -1 10 C-2.32 8.02 -3.64 6.04 -5 4 C-4.67 3.67 -4.34 3.34 -4 3 Z " fill="#F8F407" transform="translate(75,40)"/>
<path d="M0 0 C0.66 0 1.32 0 2 0 C2.66 1.98 3.32 3.96 4 6 C4.99 4.68 5.98 3.36 7 2 C7.66 2.33 8.32 2.66 9 3 C8.217 4.172 7.423 5.338 6.625 6.5 C6.184 7.15 5.743 7.799 5.289 8.469 C4.651 9.227 4.651 9.227 4 10 C3.34 10 2.68 10 2 10 C1.34 6.7 0.68 3.4 0 0 Z " fill="#453D68" transform="translate(125,7)"/>
<path d="M0 0 C1.32 0.66 2.64 1.32 4 2 C4 2.99 4 3.98 4 5 C2.02 5.99 2.02 5.99 0 7 C-0.99 5.68 -1.98 4.36 -3 3 C-2.01 2.01 -1.02 1.02 0 0 Z " fill="#CD2519" transform="translate(120,185)"/>
<path d="M0 0 C0.66 0 1.32 0 2 0 C2.125 5.75 2.125 5.75 1 8 C-1.375 8.812 -1.375 8.812 -4 9 C-5.812 7.875 -5.812 7.875 -7 6 C-7.188 3.312 -7.188 3.312 -7 1 C-6.01 1.495 -6.01 1.495 -5 2 C-5 2.99 -5 3.98 -5 5 C-3.02 5 -1.04 5 1 5 C0.67 3.35 0.34 1.7 0 0 Z " fill="#F8F307" transform="translate(55,91)"/>
<path d="M0 0 C2.007 0.287 4.009 0.619 6 1 C5.67 2.32 5.34 3.64 5 5 C3.35 5.33 1.7 5.66 0 6 C-0.382 4.344 -0.714 2.675 -1 1 C-0.67 0.67 -0.34 0.34 0 0 Z " fill="#CED2CF" transform="translate(212,212)"/>
<path d="M0 0 C3.96 2.475 3.96 2.475 8 5 C6 7 6 7 2.875 7.125 C1.452 7.063 1.452 7.063 0 7 C0 4.69 0 2.38 0 0 Z " fill="#ECEFE8" transform="translate(115,195)"/>
<path d="M0 0 C2.97 0 5.94 0 9 0 C9 1.98 9 3.96 9 6 C8.67 5.01 8.34 4.02 8 3 C7.34 3 6.68 3 6 3 C5.67 3.66 5.34 4.32 5 5 C5 4.01 5 3.02 5 2 C3.68 2 2.36 2 1 2 C0.67 3.32 0.34 4.64 0 6 C0 4.02 0 2.04 0 0 Z " fill="#F9F407" transform="translate(166,95)"/>
<path d="M0 0 C0.33 0.66 0.66 1.32 1 2 C0.01 2 -0.98 2 -2 2 C-2 2.66 -2 3.32 -2 4 C-0.02 4 1.96 4 4 4 C3.67 5.65 3.34 7.3 3 9 C2.67 8.01 2.34 7.02 2 6 C0.02 6 -1.96 6 -4 6 C-4.33 5.34 -4.66 4.68 -5 4 C-3 1 -3 1 0 0 Z " fill="#FBF608" transform="translate(84,35)"/>
<path d="M0 0 C1.675 0.286 3.344 0.618 5 1 C4.67 2.32 4.34 3.64 4 5 C2.35 5.33 0.7 5.66 -1 6 C-1.043 4.334 -1.041 2.666 -1 1 C-0.67 0.67 -0.34 0.34 0 0 Z " fill="#F1F3F1" transform="translate(158,22)"/>
<path d="M0 0 C0.66 0.66 1.32 1.32 2 2 C-1.75 5 -1.75 5 -4 5 C-4.33 5.99 -4.66 6.98 -5 8 C-5.33 6.68 -5.66 5.36 -6 4 C-4.02 2.68 -2.04 1.36 0 0 Z M-4 8 C-2.68 8.33 -1.36 8.66 0 9 C-1.32 9 -2.64 9 -4 9 C-4 8.67 -4 8.34 -4 8 Z " fill="#F3EA0A" transform="translate(163,55)"/>
<path d="M0 0 C0.99 0 1.98 0 3 0 C2.67 1.32 2.34 2.64 2 4 C0.35 4.33 -1.3 4.66 -3 5 C-1.125 1.125 -1.125 1.125 0 0 Z " fill="#A9541B" transform="translate(155,49)"/>
<path d="M0 0 C2.062 0.438 2.062 0.438 4 1 C3.67 2.65 3.34 4.3 3 6 C1.35 5.67 -0.3 5.34 -2 5 C-1.125 1.125 -1.125 1.125 0 0 Z " fill="#F2F3F2" transform="translate(117,8)"/>
<path d="M0 0 C1.32 0 2.64 0 4 0 C4.33 1.32 4.66 2.64 5 4 C3.02 4.33 1.04 4.66 -1 5 C-0.67 3.35 -0.34 1.7 0 0 Z M5 1 C5.66 1 6.32 1 7 1 C7.33 2.32 7.66 3.64 8 5 C7.01 4.67 6.02 4.34 5 4 C5 3.01 5 2.02 5 1 Z " fill="#AD5B1B" transform="translate(167,97)"/>
<path d="M0 0 C0.99 0.33 1.98 0.66 3 1 C3 1.99 3 2.98 3 4 C3.99 5.485 3.99 5.485 5 7 C4.67 7.66 4.34 8.32 4 9 C2.35 9 0.7 9 -1 9 C-0.01 8.67 0.98 8.34 2 8 C0.68 6.35 -0.64 4.7 -2 3 C-1.34 2.01 -0.68 1.02 0 0 Z " fill="#FBF608" transform="translate(133,33)"/>
<path d="M0 0 C2.97 0 5.94 0 9 0 C6.911 4.178 5.945 4.924 2 7 C1.67 6.01 1.34 5.02 1 4 C1.99 3.34 2.98 2.68 4 2 C2.68 1.34 1.36 0.68 0 0 Z " fill="#FCF708" transform="translate(51,108)"/>
<path d="M0 0 C1.32 0.66 2.64 1.32 4 2 C4 1.34 4 0.68 4 0 C4.66 0 5.32 0 6 0 C5.812 1.812 5.812 1.812 5 4 C0.821 7 0.821 7 -2 7 C-2 6.01 -2 5.02 -2 4 C-1.34 4 -0.68 4 0 4 C0 2.68 0 1.36 0 0 Z " fill="#FBF608" transform="translate(168,76)"/>
<path d="M0 0 C1.98 0 3.96 0 6 0 C6.33 1.32 6.66 2.64 7 4 C4.69 3.67 2.38 3.34 0 3 C0 2.01 0 1.02 0 0 Z " fill="#A5411E" transform="translate(51,74)"/>
<path d="M0 0 C0.33 1.32 0.66 2.64 1 4 C-1.97 3.67 -4.94 3.34 -8 3 C-8 2.34 -8 1.68 -8 1 C-4.933 -0.862 -3.403 -1.215 0 0 Z " fill="#3C3564" transform="translate(191,53)"/>
<path d="M0 0 C0.66 0.66 1.32 1.32 2 2 C0.68 3.32 -0.64 4.64 -2 6 C-1.34 7.65 -0.68 9.3 0 11 C-3.161 9.63 -3.993 9.011 -6 6 C-4.02 4.02 -2.04 2.04 0 0 Z " fill="#322C60" transform="translate(171,28)"/>
<path d="M0 0 C1.98 0.495 1.98 0.495 4 1 C4 2.65 4 4.3 4 6 C2.35 5.67 0.7 5.34 -1 5 C-0.67 3.35 -0.34 1.7 0 0 Z " fill="#FBFBFA" transform="translate(92,10)"/>
<path d="M0 0 C1.65 0.33 3.3 0.66 5 1 C4.67 2.32 4.34 3.64 4 5 C2.35 4.67 0.7 4.34 -1 4 C-0.67 2.68 -0.34 1.36 0 0 Z " fill="#C2352E" transform="translate(110,175)"/>
<path d="M0 0 C2.938 0.375 2.938 0.375 6 1 C6.33 1.66 6.66 2.32 7 3 C6.01 3.33 5.02 3.66 4 4 C2.301 6.498 2.301 6.498 1 9 C0.34 8.67 -0.32 8.34 -1 8 C-0.01 5.69 0.98 3.38 2 1 C1.34 0.67 0.68 0.34 0 0 Z " fill="#403865" transform="translate(149,15)"/>
<path d="M0 0 C0.33 0.66 0.66 1.32 1 2 C0.34 2 -0.32 2 -1 2 C-0.34 4.64 0.32 7.28 1 10 C0.34 10 -0.32 10 -1 10 C-1.268 9.216 -1.536 8.432 -1.812 7.625 C-2.848 4.719 -2.848 4.719 -6 3 C-4.02 2.01 -2.04 1.02 0 0 Z " fill="#3B3464" transform="translate(85,10)"/>
<path d="M0 0 C0.99 0.33 1.98 0.66 3 1 C3 3.31 3 5.62 3 8 C2.01 8 1.02 8 0 8 C0 5.36 0 2.72 0 0 Z " fill="#969090" transform="translate(109,211)"/>
<path d="M0 0 C0.66 0 1.32 0 2 0 C1.67 0.66 1.34 1.32 1 2 C0.67 1.34 0.34 0.68 0 0 Z M2 2 C3 6 3 6 3 6 Z M2 6 C1.188 7.938 1.188 7.938 0 10 C-0.99 10.33 -1.98 10.66 -3 11 C-3 9.68 -3 8.36 -3 7 C0 6 0 6 2 6 Z " fill="#FFFFFF" transform="translate(113,174)"/>
<path d="M0 0 C0.33 0.66 0.66 1.32 1 2 C2.328 2.354 3.662 2.685 5 3 C5.99 3.66 6.98 4.32 8 5 C7.34 5.66 6.68 6.32 6 7 C3.69 6.01 1.38 5.02 -1 4 C-0.67 2.68 -0.34 1.36 0 0 Z " fill="#FAF507" transform="translate(54,64)"/>
<path d="M0 0 C0.99 0.99 1.98 1.98 3 3 C1.625 4.5 1.625 4.5 0 6 C-0.66 6 -1.32 6 -2 6 C-2.33 6.99 -2.66 7.98 -3 9 C-3.33 8.34 -3.66 7.68 -4 7 C-3.062 4.375 -3.062 4.375 -2 2 C-1.34 2 -0.68 2 0 2 C0 1.34 0 0.68 0 0 Z " fill="#888A91" transform="translate(134,210)"/>
<path d="M0 0 C2.97 0.33 5.94 0.66 9 1 C8.67 1.99 8.34 2.98 8 4 C5.69 3.67 3.38 3.34 1 3 C0.67 3.66 0.34 4.32 0 5 C0 3.35 0 1.7 0 0 Z " fill="#FBF608" transform="translate(48,84)"/>
<path d="M0 0 C2.475 0.495 2.475 0.495 5 1 C5 2.32 5 3.64 5 5 C5.99 6.485 5.99 6.485 7 8 C6.01 8 5.02 8 4 8 C0 3.771 0 3.771 0 0 Z " fill="#473D68" transform="translate(56,25)"/>
<path d="M0 0 C3.375 1.186 5.647 2.276 8 5 C7.01 5.33 6.02 5.66 5 6 C1.812 4.062 1.812 4.062 -1 2 C-0.67 1.34 -0.34 0.68 0 0 Z " fill="#FBF608" transform="translate(59,56)"/>
<path d="M0 0 C0.33 1.32 0.66 2.64 1 4 C0.34 4 -0.32 4 -1 4 C-1 3.34 -1 2.68 -1 2 C-2.65 1.67 -4.3 1.34 -6 1 C-6.33 1.66 -6.66 2.32 -7 3 C-7 2.01 -7 1.02 -7 0 C-4.333 -1.333 -2.833 -0.671 0 0 Z " fill="#F3EA09" transform="translate(71,49)"/>
<path d="M0 0 C0.33 0.66 0.66 1.32 1 2 C1.99 2.33 2.98 2.66 4 3 C4 3.66 4 4.32 4 5 C0.25 6.125 0.25 6.125 -2 5 C-1.125 1.125 -1.125 1.125 0 0 Z " fill="#B1641A" transform="translate(131,36)"/>
<path d="M0 0 C0.99 0.33 1.98 0.66 3 1 C3.75 2.938 3.75 2.938 4 5 C3.67 5.66 3.34 6.32 3 7 C2.01 7 1.02 7 0 7 C0 4.69 0 2.38 0 0 Z " fill="#A02F1E" transform="translate(113,30)"/>
<path d="M0 0 C0 0.99 0 1.98 0 3 C-2.64 3.33 -5.28 3.66 -8 4 C-8.33 3.34 -8.66 2.68 -9 2 C-2.25 0 -2.25 0 0 0 Z " fill="#F9F507" transform="translate(58,101)"/>
<path d="M0 0 C2.475 0.495 2.475 0.495 5 1 C5.33 1.99 5.66 2.98 6 4 C4.125 4.625 4.125 4.625 2 5 C1.34 4.34 0.68 3.68 0 3 C0 2.01 0 1.02 0 0 Z " fill="#9E291D" transform="translate(65,50)"/>
<path d="M0 0 C0.99 0.33 1.98 0.66 3 1 C-0.625 7.75 -0.625 7.75 -4 10 C-3.427 7.133 -3.139 6.139 -1 4 C-0.357 1.931 -0.357 1.931 0 0 Z " fill="#443B67" transform="translate(185,44)"/>
<path d="M0 0 C1.32 0.33 2.64 0.66 4 1 C4.33 2.98 4.66 4.96 5 7 C3.02 7.99 3.02 7.99 1 9 C1.206 8.258 1.412 7.515 1.625 6.75 C2.044 3.677 1.619 2.572 0 0 Z " fill="#F9F507" transform="translate(114,29)"/>
<path d="M0 0 C1.173 0.951 2.338 1.911 3.5 2.875 C4.15 3.409 4.799 3.942 5.469 4.492 C5.974 4.99 6.479 5.487 7 6 C7 6.66 7 7.32 7 8 C3.205 6.509 1.39 4.243 -1 1 C-0.67 0.67 -0.34 0.34 0 0 Z " fill="#54486D" transform="translate(53,28)"/>
<path d="M0 0 C2.97 0.495 2.97 0.495 6 1 C6 1.66 6 2.32 6 3 C4.02 3.33 2.04 3.66 0 4 C0 2.68 0 1.36 0 0 Z " fill="#C5CAC6" transform="translate(185,214)"/>
<path d="M0 0 C1.65 0 3.3 0 5 0 C4.34 0.66 3.68 1.32 3 2 C2.602 3.988 2.262 5.989 2 8 C1.34 8 0.68 8 0 8 C0 5.36 0 2.72 0 0 Z " fill="#5C4E5D" transform="translate(178,211)"/>
<path d="M0 0 C3.366 1.443 5.51 3.333 8 6 C7.01 6.33 6.02 6.66 5 7 C4.34 6.34 3.68 5.68 3 5 C2.464 4.505 1.928 4.01 1.375 3.5 C0 2 0 2 0 0 Z " fill="#352F61" transform="translate(49,32)"/>
<path d="M0 0 C0.99 0.33 1.98 0.66 3 1 C3 1.66 3 2.32 3 3 C0.03 2.505 0.03 2.505 -3 2 C-2.01 1.34 -1.02 0.68 0 0 Z M-3 3 C-2.01 3.33 -1.02 3.66 0 4 C-1.485 4.99 -1.485 4.99 -3 6 C-3 5.01 -3 4.02 -3 3 Z " fill="#970F19" transform="translate(169,101)"/>
<path d="M0 0 C0.66 0.33 1.32 0.66 2 1 C2 1.66 2 2.32 2 3 C3.98 3 5.96 3 8 3 C7.67 3.66 7.34 4.32 7 5 C3.284 5.201 2.228 5.152 -1 3 C-0.67 2.01 -0.34 1.02 0 0 Z " fill="#FFFA09" transform="translate(56,61)"/>
<path d="M0 0 C1.98 0 3.96 0 6 0 C5.01 0.66 4.02 1.32 3 2 C2.01 1.34 1.02 0.68 0 0 Z M1 2 C2.65 2 4.3 2 6 2 C6 2.66 6 3.32 6 4 C4.68 4.33 3.36 4.66 2 5 C1.67 4.01 1.34 3.02 1 2 Z " fill="#B27220" transform="translate(80,41)"/>
<path d="M0 0 C2.64 0 5.28 0 8 0 C8 0.66 8 1.32 8 2 C5.36 2.33 2.72 2.66 0 3 C0 2.01 0 1.02 0 0 Z " fill="#FDF808" transform="translate(167,85)"/>
<path d="M0 0 C0.99 0.33 1.98 0.66 3 1 C1.02 1.99 1.02 1.99 -1 3 C-0.67 2.01 -0.34 1.02 0 0 Z M1 3 C3.64 3 6.28 3 9 3 C8.67 3.99 8.34 4.98 8 6 C8 5.34 8 4.68 8 4 C5.69 4 3.38 4 1 4 C1 3.67 1 3.34 1 3 Z " fill="#BB8B1D" transform="translate(49,81)"/>
<path d="M0 0 C1.65 0.33 3.3 0.66 5 1 C5.33 2.32 5.66 3.64 6 5 C3.69 4.34 1.38 3.68 -1 3 C-0.67 2.01 -0.34 1.02 0 0 Z " fill="#F6EE09" transform="translate(53,71)"/>
<path d="M0 0 C0.33 0.99 0.66 1.98 1 3 C-0.812 5 -0.812 5 -3 7 C-3.99 7 -4.98 7 -6 7 C-6 6.34 -6 5.68 -6 5 C-4.345 3.981 -2.677 2.982 -1 2 C-0.67 1.34 -0.34 0.68 0 0 Z " fill="#443B67" transform="translate(164,23)"/>
<path d="M0 0 C2.062 0.438 2.062 0.438 4 1 C3.67 2.32 3.34 3.64 3 5 C1.68 5.33 0.36 5.66 -1 6 C-0.01 4.68 0.98 3.36 2 2 C1.01 1.67 0.02 1.34 -1 1 C-0.67 0.67 -0.34 0.34 0 0 Z " fill="#3D3564" transform="translate(72,20)"/>
<path d="M0 0 C0.66 0 1.32 0 2 0 C1.67 0.66 1.34 1.32 1 2 C0.67 1.34 0.34 0.68 0 0 Z M-4 1 C-2.68 1.33 -1.36 1.66 0 2 C-0.33 2.66 -0.66 3.32 -1 4 C-1.99 3.67 -2.98 3.34 -4 3 C-4 2.34 -4 1.68 -4 1 Z M-6 4 C-5.01 4.33 -4.02 4.66 -3 5 C-3.66 5 -4.32 5 -5 5 C-5.33 5.66 -5.66 6.32 -6 7 C-6 6.01 -6 5.02 -6 4 Z " fill="#CCC4C6" transform="translate(142,11)"/>
<path d="M0 0 C2 1 2 1 3 3 C0.69 3.33 -1.62 3.66 -4 4 C-3.67 3.01 -3.34 2.02 -3 1 C-2.01 0.67 -1.02 0.34 0 0 Z " fill="#A4401A" transform="translate(53,99)"/>
<path d="M0 0 C1.65 0 3.3 0 5 0 C4.67 1.65 4.34 3.3 4 5 C3.01 5 2.02 5 1 5 C1 4.34 1 3.68 1 3 C1.99 3 2.98 3 4 3 C4 2.34 4 1.68 4 1 C2.68 0.67 1.36 0.34 0 0 Z " fill="#B3761E" transform="translate(171,84)"/>
<path d="M0 0 C0.33 0.66 0.66 1.32 1 2 C0.34 1.67 -0.32 1.34 -1 1 C-0.67 0.67 -0.34 0.34 0 0 Z M-1 3 C-2.98 3.99 -2.98 3.99 -5 5 C-5.99 4.34 -6.98 3.68 -8 3 C-4.867 1.956 -4.01 2.066 -1 3 Z " fill="#991E24" transform="translate(128,38)"/>
<path d="M0 0 C1.938 0.312 1.938 0.312 4 1 C4.33 1.99 4.66 2.98 5 4 C4.01 4.33 3.02 4.66 2 5 C1.34 3.35 0.68 1.7 0 0 Z " fill="#F7F307" transform="translate(98,34)"/>
<path d="M0 0 C2.97 0.495 2.97 0.495 6 1 C5.361 1.124 4.721 1.248 4.062 1.375 C3.382 1.581 2.701 1.787 2 2 C1.67 2.66 1.34 3.32 1 4 C0.67 2.68 0.34 1.36 0 0 Z " fill="#48426B" transform="translate(136,10)"/>
<path d="M0 0 C1.32 0 2.64 0 4 0 C3.34 1.32 2.68 2.64 2 4 C1.01 3.01 0.02 2.02 -1 1 C-0.67 0.67 -0.34 0.34 0 0 Z " fill="#BE8318" transform="translate(135,34)"/>
<path d="M0 0 C2.429 3.644 2.162 5.712 2 10 C1.34 10 0.68 10 0 10 C-1.125 2.25 -1.125 2.25 0 0 Z " fill="#181614" transform="translate(114,209)"/>
<path d="M0 0 C2.475 0.99 2.475 0.99 5 2 C5 2.66 5 3.32 5 4 C3.062 3.688 3.062 3.688 1 3 C0.67 2.01 0.34 1.02 0 0 Z " fill="#A43D21" transform="translate(57,58)"/>
<path d="M0 0 C-0.66 1.32 -1.32 2.64 -2 4 C-3.32 3.34 -4.64 2.68 -6 2 C-2.25 0 -2.25 0 0 0 Z " fill="#9D2418" transform="translate(160,55)"/>
<path d="M0 0 C0.33 0.66 0.66 1.32 1 2 C0.01 3.485 0.01 3.485 -1 5 C-1.99 4.67 -2.98 4.34 -4 4 C-2.68 2.68 -1.36 1.36 0 0 Z " fill="#F9F407" transform="translate(159,51)"/>
<path d="M0 0 C0.99 0.33 1.98 0.66 3 1 C2.01 1.99 1.02 2.98 0 4 C0 2.68 0 1.36 0 0 Z " fill="#BA7B1A" transform="translate(148,42)"/>
<path d="M0 0 C0.99 0.33 1.98 0.66 3 1 C2.67 2.65 2.34 4.3 2 6 C0 2.25 0 2.25 0 0 Z " fill="#52466D" transform="translate(95,9)"/>
<path d="M0 0 C0.66 0 1.32 0 2 0 C2.33 0.99 2.66 1.98 3 3 C1.68 3.33 0.36 3.66 -1 4 C-0.67 2.68 -0.34 1.36 0 0 Z " fill="#A2381D" transform="translate(146,44)"/>
<path d="M0 0 C0.66 0.99 1.32 1.98 2 3 C1.67 3.99 1.34 4.98 1 6 C-0.062 4.125 -0.062 4.125 -1 2 C-0.67 1.34 -0.34 0.68 0 0 Z " fill="#625373" transform="translate(90,12)"/>
<path d="M0 0 C0.66 0.33 1.32 0.66 2 1 C1.67 1.99 1.34 2.98 1 4 C0.34 4 -0.32 4 -1 4 C-0.67 2.68 -0.34 1.36 0 0 Z " fill="#98121B" transform="translate(162,73)"/>
<path d="M0 0 C0.66 0.33 1.32 0.66 2 1 C2 1.99 2 2.98 2 4 C1.01 3.67 0.02 3.34 -1 3 C-0.67 2.01 -0.34 1.02 0 0 Z " fill="#F3F2F1" transform="translate(190,53)"/>
<path d="M0 0 C2.475 0.495 2.475 0.495 5 1 C3.02 1.99 3.02 1.99 1 3 C0.67 2.01 0.34 1.02 0 0 Z " fill="#DAC111" transform="translate(81,43)"/>
<path d="M0 0 C0.99 0.33 1.98 0.66 3 1 C2.67 1.66 2.34 2.32 2 3 C0.68 2.34 -0.64 1.68 -2 1 C-1.34 0.67 -0.68 0.34 0 0 Z " fill="#99171C" transform="translate(130,42)"/>
<path d="M0 0 C0.66 0.66 1.32 1.32 2 2 C1.67 2.66 1.34 3.32 1 4 C0.01 3.67 -0.98 3.34 -2 3 C-1.34 2.01 -0.68 1.02 0 0 Z " fill="#9E332F" transform="translate(100,39)"/>
<path d="M0 0 C1.32 0 2.64 0 4 0 C3.67 0.99 3.34 1.98 3 3 C2.01 2.01 1.02 1.02 0 0 Z " fill="#C4BEBF" transform="translate(36,52)"/>
<path d="M0 0 C0.66 0 1.32 0 2 0 C1.67 0.66 1.34 1.32 1 2 C0.67 1.34 0.34 0.68 0 0 Z M-1 1 C-0.34 1.66 0.32 2.32 1 3 C0.01 3 -0.98 3 -2 3 C-1.67 2.34 -1.34 1.68 -1 1 Z " fill="#A23523" transform="translate(156,50)"/>
<path d="M0 0 C0.66 0.33 1.32 0.66 2 1 C2 1.66 2 2.32 2 3 C1.01 3 0.02 3 -1 3 C-0.67 2.01 -0.34 1.02 0 0 Z " fill="#F8F407" transform="translate(56,61)"/>
<path d="M0 0 C0.66 0 1.32 0 2 0 C1.67 0.99 1.34 1.98 1 3 C0.34 3 -0.32 3 -1 3 C-0.67 2.01 -0.34 1.02 0 0 Z " fill="#FCFCFB" transform="translate(42,43)"/>
<path d="M0 0 C0.66 0 1.32 0 2 0 C1.67 0.99 1.34 1.98 1 3 C0.34 2.34 -0.32 1.68 -1 1 C-0.67 0.67 -0.34 0.34 0 0 Z " fill="#CFC4C7" transform="translate(183,46)"/>
<path d="M0 0 C0.66 0.66 1.32 1.32 2 2 C1.01 2 0.02 2 -1 2 C-0.67 1.34 -0.34 0.68 0 0 Z " fill="#CFAF15" transform="translate(171,109)"/>
</svg>